G75*
%MOIN*%
%OFA0B0*%
%FSLAX25Y25*%
%IPPOS*%
%LPD*%
%AMOC8*
5,1,8,0,0,1.08239X$1,22.5*
%
%ADD10C,0.00000*%
%ADD11C,0.01600*%
%ADD12C,0.07000*%
%ADD13C,0.05543*%
%ADD14C,0.11220*%
%ADD15C,0.07400*%
%ADD16R,0.05906X0.05906*%
%ADD17R,0.06299X0.05118*%
%ADD18C,0.02400*%
%ADD19C,0.04356*%
%ADD20OC8,0.04356*%
D10*
X0001000Y0001000D02*
X0117142Y0001000D01*
X0117142Y0260843D01*
X0001000Y0260843D01*
X0001000Y0001000D01*
X0030100Y0036000D02*
X0030102Y0036160D01*
X0030108Y0036319D01*
X0030118Y0036478D01*
X0030132Y0036637D01*
X0030150Y0036796D01*
X0030171Y0036954D01*
X0030197Y0037111D01*
X0030227Y0037268D01*
X0030260Y0037424D01*
X0030298Y0037579D01*
X0030339Y0037733D01*
X0030384Y0037886D01*
X0030433Y0038038D01*
X0030486Y0038189D01*
X0030542Y0038338D01*
X0030603Y0038486D01*
X0030666Y0038632D01*
X0030734Y0038777D01*
X0030805Y0038920D01*
X0030879Y0039061D01*
X0030957Y0039200D01*
X0031039Y0039337D01*
X0031124Y0039472D01*
X0031212Y0039605D01*
X0031304Y0039736D01*
X0031398Y0039864D01*
X0031496Y0039990D01*
X0031597Y0040114D01*
X0031701Y0040235D01*
X0031808Y0040353D01*
X0031918Y0040469D01*
X0032031Y0040582D01*
X0032147Y0040692D01*
X0032265Y0040799D01*
X0032386Y0040903D01*
X0032510Y0041004D01*
X0032636Y0041102D01*
X0032764Y0041196D01*
X0032895Y0041288D01*
X0033028Y0041376D01*
X0033163Y0041461D01*
X0033300Y0041543D01*
X0033439Y0041621D01*
X0033580Y0041695D01*
X0033723Y0041766D01*
X0033868Y0041834D01*
X0034014Y0041897D01*
X0034162Y0041958D01*
X0034311Y0042014D01*
X0034462Y0042067D01*
X0034614Y0042116D01*
X0034767Y0042161D01*
X0034921Y0042202D01*
X0035076Y0042240D01*
X0035232Y0042273D01*
X0035389Y0042303D01*
X0035546Y0042329D01*
X0035704Y0042350D01*
X0035863Y0042368D01*
X0036022Y0042382D01*
X0036181Y0042392D01*
X0036340Y0042398D01*
X0036500Y0042400D01*
X0036660Y0042398D01*
X0036819Y0042392D01*
X0036978Y0042382D01*
X0037137Y0042368D01*
X0037296Y0042350D01*
X0037454Y0042329D01*
X0037611Y0042303D01*
X0037768Y0042273D01*
X0037924Y0042240D01*
X0038079Y0042202D01*
X0038233Y0042161D01*
X0038386Y0042116D01*
X0038538Y0042067D01*
X0038689Y0042014D01*
X0038838Y0041958D01*
X0038986Y0041897D01*
X0039132Y0041834D01*
X0039277Y0041766D01*
X0039420Y0041695D01*
X0039561Y0041621D01*
X0039700Y0041543D01*
X0039837Y0041461D01*
X0039972Y0041376D01*
X0040105Y0041288D01*
X0040236Y0041196D01*
X0040364Y0041102D01*
X0040490Y0041004D01*
X0040614Y0040903D01*
X0040735Y0040799D01*
X0040853Y0040692D01*
X0040969Y0040582D01*
X0041082Y0040469D01*
X0041192Y0040353D01*
X0041299Y0040235D01*
X0041403Y0040114D01*
X0041504Y0039990D01*
X0041602Y0039864D01*
X0041696Y0039736D01*
X0041788Y0039605D01*
X0041876Y0039472D01*
X0041961Y0039337D01*
X0042043Y0039200D01*
X0042121Y0039061D01*
X0042195Y0038920D01*
X0042266Y0038777D01*
X0042334Y0038632D01*
X0042397Y0038486D01*
X0042458Y0038338D01*
X0042514Y0038189D01*
X0042567Y0038038D01*
X0042616Y0037886D01*
X0042661Y0037733D01*
X0042702Y0037579D01*
X0042740Y0037424D01*
X0042773Y0037268D01*
X0042803Y0037111D01*
X0042829Y0036954D01*
X0042850Y0036796D01*
X0042868Y0036637D01*
X0042882Y0036478D01*
X0042892Y0036319D01*
X0042898Y0036160D01*
X0042900Y0036000D01*
X0042898Y0035840D01*
X0042892Y0035681D01*
X0042882Y0035522D01*
X0042868Y0035363D01*
X0042850Y0035204D01*
X0042829Y0035046D01*
X0042803Y0034889D01*
X0042773Y0034732D01*
X0042740Y0034576D01*
X0042702Y0034421D01*
X0042661Y0034267D01*
X0042616Y0034114D01*
X0042567Y0033962D01*
X0042514Y0033811D01*
X0042458Y0033662D01*
X0042397Y0033514D01*
X0042334Y0033368D01*
X0042266Y0033223D01*
X0042195Y0033080D01*
X0042121Y0032939D01*
X0042043Y0032800D01*
X0041961Y0032663D01*
X0041876Y0032528D01*
X0041788Y0032395D01*
X0041696Y0032264D01*
X0041602Y0032136D01*
X0041504Y0032010D01*
X0041403Y0031886D01*
X0041299Y0031765D01*
X0041192Y0031647D01*
X0041082Y0031531D01*
X0040969Y0031418D01*
X0040853Y0031308D01*
X0040735Y0031201D01*
X0040614Y0031097D01*
X0040490Y0030996D01*
X0040364Y0030898D01*
X0040236Y0030804D01*
X0040105Y0030712D01*
X0039972Y0030624D01*
X0039837Y0030539D01*
X0039700Y0030457D01*
X0039561Y0030379D01*
X0039420Y0030305D01*
X0039277Y0030234D01*
X0039132Y0030166D01*
X0038986Y0030103D01*
X0038838Y0030042D01*
X0038689Y0029986D01*
X0038538Y0029933D01*
X0038386Y0029884D01*
X0038233Y0029839D01*
X0038079Y0029798D01*
X0037924Y0029760D01*
X0037768Y0029727D01*
X0037611Y0029697D01*
X0037454Y0029671D01*
X0037296Y0029650D01*
X0037137Y0029632D01*
X0036978Y0029618D01*
X0036819Y0029608D01*
X0036660Y0029602D01*
X0036500Y0029600D01*
X0036340Y0029602D01*
X0036181Y0029608D01*
X0036022Y0029618D01*
X0035863Y0029632D01*
X0035704Y0029650D01*
X0035546Y0029671D01*
X0035389Y0029697D01*
X0035232Y0029727D01*
X0035076Y0029760D01*
X0034921Y0029798D01*
X0034767Y0029839D01*
X0034614Y0029884D01*
X0034462Y0029933D01*
X0034311Y0029986D01*
X0034162Y0030042D01*
X0034014Y0030103D01*
X0033868Y0030166D01*
X0033723Y0030234D01*
X0033580Y0030305D01*
X0033439Y0030379D01*
X0033300Y0030457D01*
X0033163Y0030539D01*
X0033028Y0030624D01*
X0032895Y0030712D01*
X0032764Y0030804D01*
X0032636Y0030898D01*
X0032510Y0030996D01*
X0032386Y0031097D01*
X0032265Y0031201D01*
X0032147Y0031308D01*
X0032031Y0031418D01*
X0031918Y0031531D01*
X0031808Y0031647D01*
X0031701Y0031765D01*
X0031597Y0031886D01*
X0031496Y0032010D01*
X0031398Y0032136D01*
X0031304Y0032264D01*
X0031212Y0032395D01*
X0031124Y0032528D01*
X0031039Y0032663D01*
X0030957Y0032800D01*
X0030879Y0032939D01*
X0030805Y0033080D01*
X0030734Y0033223D01*
X0030666Y0033368D01*
X0030603Y0033514D01*
X0030542Y0033662D01*
X0030486Y0033811D01*
X0030433Y0033962D01*
X0030384Y0034114D01*
X0030339Y0034267D01*
X0030298Y0034421D01*
X0030260Y0034576D01*
X0030227Y0034732D01*
X0030197Y0034889D01*
X0030171Y0035046D01*
X0030150Y0035204D01*
X0030132Y0035363D01*
X0030118Y0035522D01*
X0030108Y0035681D01*
X0030102Y0035840D01*
X0030100Y0036000D01*
X0075100Y0036000D02*
X0075102Y0036160D01*
X0075108Y0036319D01*
X0075118Y0036478D01*
X0075132Y0036637D01*
X0075150Y0036796D01*
X0075171Y0036954D01*
X0075197Y0037111D01*
X0075227Y0037268D01*
X0075260Y0037424D01*
X0075298Y0037579D01*
X0075339Y0037733D01*
X0075384Y0037886D01*
X0075433Y0038038D01*
X0075486Y0038189D01*
X0075542Y0038338D01*
X0075603Y0038486D01*
X0075666Y0038632D01*
X0075734Y0038777D01*
X0075805Y0038920D01*
X0075879Y0039061D01*
X0075957Y0039200D01*
X0076039Y0039337D01*
X0076124Y0039472D01*
X0076212Y0039605D01*
X0076304Y0039736D01*
X0076398Y0039864D01*
X0076496Y0039990D01*
X0076597Y0040114D01*
X0076701Y0040235D01*
X0076808Y0040353D01*
X0076918Y0040469D01*
X0077031Y0040582D01*
X0077147Y0040692D01*
X0077265Y0040799D01*
X0077386Y0040903D01*
X0077510Y0041004D01*
X0077636Y0041102D01*
X0077764Y0041196D01*
X0077895Y0041288D01*
X0078028Y0041376D01*
X0078163Y0041461D01*
X0078300Y0041543D01*
X0078439Y0041621D01*
X0078580Y0041695D01*
X0078723Y0041766D01*
X0078868Y0041834D01*
X0079014Y0041897D01*
X0079162Y0041958D01*
X0079311Y0042014D01*
X0079462Y0042067D01*
X0079614Y0042116D01*
X0079767Y0042161D01*
X0079921Y0042202D01*
X0080076Y0042240D01*
X0080232Y0042273D01*
X0080389Y0042303D01*
X0080546Y0042329D01*
X0080704Y0042350D01*
X0080863Y0042368D01*
X0081022Y0042382D01*
X0081181Y0042392D01*
X0081340Y0042398D01*
X0081500Y0042400D01*
X0081660Y0042398D01*
X0081819Y0042392D01*
X0081978Y0042382D01*
X0082137Y0042368D01*
X0082296Y0042350D01*
X0082454Y0042329D01*
X0082611Y0042303D01*
X0082768Y0042273D01*
X0082924Y0042240D01*
X0083079Y0042202D01*
X0083233Y0042161D01*
X0083386Y0042116D01*
X0083538Y0042067D01*
X0083689Y0042014D01*
X0083838Y0041958D01*
X0083986Y0041897D01*
X0084132Y0041834D01*
X0084277Y0041766D01*
X0084420Y0041695D01*
X0084561Y0041621D01*
X0084700Y0041543D01*
X0084837Y0041461D01*
X0084972Y0041376D01*
X0085105Y0041288D01*
X0085236Y0041196D01*
X0085364Y0041102D01*
X0085490Y0041004D01*
X0085614Y0040903D01*
X0085735Y0040799D01*
X0085853Y0040692D01*
X0085969Y0040582D01*
X0086082Y0040469D01*
X0086192Y0040353D01*
X0086299Y0040235D01*
X0086403Y0040114D01*
X0086504Y0039990D01*
X0086602Y0039864D01*
X0086696Y0039736D01*
X0086788Y0039605D01*
X0086876Y0039472D01*
X0086961Y0039337D01*
X0087043Y0039200D01*
X0087121Y0039061D01*
X0087195Y0038920D01*
X0087266Y0038777D01*
X0087334Y0038632D01*
X0087397Y0038486D01*
X0087458Y0038338D01*
X0087514Y0038189D01*
X0087567Y0038038D01*
X0087616Y0037886D01*
X0087661Y0037733D01*
X0087702Y0037579D01*
X0087740Y0037424D01*
X0087773Y0037268D01*
X0087803Y0037111D01*
X0087829Y0036954D01*
X0087850Y0036796D01*
X0087868Y0036637D01*
X0087882Y0036478D01*
X0087892Y0036319D01*
X0087898Y0036160D01*
X0087900Y0036000D01*
X0087898Y0035840D01*
X0087892Y0035681D01*
X0087882Y0035522D01*
X0087868Y0035363D01*
X0087850Y0035204D01*
X0087829Y0035046D01*
X0087803Y0034889D01*
X0087773Y0034732D01*
X0087740Y0034576D01*
X0087702Y0034421D01*
X0087661Y0034267D01*
X0087616Y0034114D01*
X0087567Y0033962D01*
X0087514Y0033811D01*
X0087458Y0033662D01*
X0087397Y0033514D01*
X0087334Y0033368D01*
X0087266Y0033223D01*
X0087195Y0033080D01*
X0087121Y0032939D01*
X0087043Y0032800D01*
X0086961Y0032663D01*
X0086876Y0032528D01*
X0086788Y0032395D01*
X0086696Y0032264D01*
X0086602Y0032136D01*
X0086504Y0032010D01*
X0086403Y0031886D01*
X0086299Y0031765D01*
X0086192Y0031647D01*
X0086082Y0031531D01*
X0085969Y0031418D01*
X0085853Y0031308D01*
X0085735Y0031201D01*
X0085614Y0031097D01*
X0085490Y0030996D01*
X0085364Y0030898D01*
X0085236Y0030804D01*
X0085105Y0030712D01*
X0084972Y0030624D01*
X0084837Y0030539D01*
X0084700Y0030457D01*
X0084561Y0030379D01*
X0084420Y0030305D01*
X0084277Y0030234D01*
X0084132Y0030166D01*
X0083986Y0030103D01*
X0083838Y0030042D01*
X0083689Y0029986D01*
X0083538Y0029933D01*
X0083386Y0029884D01*
X0083233Y0029839D01*
X0083079Y0029798D01*
X0082924Y0029760D01*
X0082768Y0029727D01*
X0082611Y0029697D01*
X0082454Y0029671D01*
X0082296Y0029650D01*
X0082137Y0029632D01*
X0081978Y0029618D01*
X0081819Y0029608D01*
X0081660Y0029602D01*
X0081500Y0029600D01*
X0081340Y0029602D01*
X0081181Y0029608D01*
X0081022Y0029618D01*
X0080863Y0029632D01*
X0080704Y0029650D01*
X0080546Y0029671D01*
X0080389Y0029697D01*
X0080232Y0029727D01*
X0080076Y0029760D01*
X0079921Y0029798D01*
X0079767Y0029839D01*
X0079614Y0029884D01*
X0079462Y0029933D01*
X0079311Y0029986D01*
X0079162Y0030042D01*
X0079014Y0030103D01*
X0078868Y0030166D01*
X0078723Y0030234D01*
X0078580Y0030305D01*
X0078439Y0030379D01*
X0078300Y0030457D01*
X0078163Y0030539D01*
X0078028Y0030624D01*
X0077895Y0030712D01*
X0077764Y0030804D01*
X0077636Y0030898D01*
X0077510Y0030996D01*
X0077386Y0031097D01*
X0077265Y0031201D01*
X0077147Y0031308D01*
X0077031Y0031418D01*
X0076918Y0031531D01*
X0076808Y0031647D01*
X0076701Y0031765D01*
X0076597Y0031886D01*
X0076496Y0032010D01*
X0076398Y0032136D01*
X0076304Y0032264D01*
X0076212Y0032395D01*
X0076124Y0032528D01*
X0076039Y0032663D01*
X0075957Y0032800D01*
X0075879Y0032939D01*
X0075805Y0033080D01*
X0075734Y0033223D01*
X0075666Y0033368D01*
X0075603Y0033514D01*
X0075542Y0033662D01*
X0075486Y0033811D01*
X0075433Y0033962D01*
X0075384Y0034114D01*
X0075339Y0034267D01*
X0075298Y0034421D01*
X0075260Y0034576D01*
X0075227Y0034732D01*
X0075197Y0034889D01*
X0075171Y0035046D01*
X0075150Y0035204D01*
X0075132Y0035363D01*
X0075118Y0035522D01*
X0075108Y0035681D01*
X0075102Y0035840D01*
X0075100Y0036000D01*
D11*
X0071063Y0031677D02*
X0072538Y0029123D01*
X0074623Y0027038D01*
X0077177Y0025563D01*
X0080025Y0024800D01*
X0082975Y0024800D01*
X0085823Y0025563D01*
X0086507Y0025958D01*
X0086290Y0025434D01*
X0086290Y0022566D01*
X0087387Y0019916D01*
X0089416Y0017887D01*
X0092066Y0016790D01*
X0094934Y0016790D01*
X0097584Y0017887D01*
X0098762Y0019065D01*
X0098762Y0008568D01*
X0019380Y0008568D01*
X0019380Y0018924D01*
X0020416Y0017887D01*
X0023066Y0016790D01*
X0025934Y0016790D01*
X0028584Y0017887D01*
X0030613Y0019916D01*
X0031710Y0022566D01*
X0031710Y0025434D01*
X0031493Y0025958D01*
X0032177Y0025563D01*
X0035025Y0024800D01*
X0037975Y0024800D01*
X0040823Y0025563D01*
X0043377Y0027038D01*
X0045462Y0029123D01*
X0046937Y0031677D01*
X0047700Y0034525D01*
X0047700Y0037475D01*
X0046937Y0040323D01*
X0045462Y0042877D01*
X0043377Y0044962D01*
X0040823Y0046437D01*
X0037975Y0047200D01*
X0035025Y0047200D01*
X0032177Y0046437D01*
X0029623Y0044962D01*
X0027538Y0042877D01*
X0026063Y0040323D01*
X0025300Y0037475D01*
X0025300Y0034525D01*
X0026063Y0031677D01*
X0026458Y0030993D01*
X0025934Y0031210D01*
X0023066Y0031210D01*
X0020416Y0030113D01*
X0019380Y0029076D01*
X0019380Y0082823D01*
X0018787Y0084253D01*
X0019414Y0083626D01*
X0020443Y0083200D01*
X0024840Y0083200D01*
X0035200Y0072840D01*
X0035200Y0066443D01*
X0035626Y0065414D01*
X0036414Y0064626D01*
X0037727Y0063314D01*
X0037128Y0061870D01*
X0037128Y0060130D01*
X0037794Y0058524D01*
X0039024Y0057294D01*
X0040630Y0056628D01*
X0042370Y0056628D01*
X0043976Y0057294D01*
X0045206Y0058524D01*
X0045872Y0060130D01*
X0045872Y0061870D01*
X0045206Y0063476D01*
X0044070Y0064613D01*
X0043874Y0065086D01*
X0040800Y0068160D01*
X0040800Y0074557D01*
X0040374Y0075586D01*
X0028374Y0087586D01*
X0027586Y0088374D01*
X0026557Y0088800D01*
X0022160Y0088800D01*
X0011800Y0099160D01*
X0011800Y0209100D01*
X0015801Y0213101D01*
X0019812Y0213101D01*
X0020750Y0214038D01*
X0020750Y0214460D01*
X0085817Y0214460D01*
X0086846Y0214886D01*
X0094744Y0222784D01*
X0094946Y0222700D01*
X0097054Y0222700D01*
X0099002Y0223507D01*
X0100493Y0224998D01*
X0101300Y0226946D01*
X0101300Y0229054D01*
X0100493Y0231002D01*
X0099002Y0232493D01*
X0097778Y0233000D01*
X0099002Y0233507D01*
X0100493Y0234998D01*
X0101300Y0236946D01*
X0101300Y0239054D01*
X0100493Y0241002D01*
X0099002Y0242493D01*
X0098056Y0242885D01*
X0098111Y0242903D01*
X0098883Y0243296D01*
X0099583Y0243805D01*
X0100195Y0244417D01*
X0100704Y0245117D01*
X0101097Y0245889D01*
X0101365Y0246712D01*
X0101500Y0247567D01*
X0101500Y0248000D01*
X0101500Y0248433D01*
X0101365Y0249288D01*
X0101097Y0250111D01*
X0100704Y0250883D01*
X0100195Y0251583D01*
X0099583Y0252195D01*
X0098883Y0252704D01*
X0098111Y0253097D01*
X0097567Y0253274D01*
X0109573Y0253274D01*
X0109573Y0087309D01*
X0103248Y0087309D01*
X0101190Y0086456D01*
X0099615Y0084881D01*
X0098762Y0082823D01*
X0098762Y0028935D01*
X0097584Y0030113D01*
X0094934Y0031210D01*
X0092066Y0031210D01*
X0091542Y0030993D01*
X0091937Y0031677D01*
X0092700Y0034525D01*
X0092700Y0037475D01*
X0091937Y0040323D01*
X0090462Y0042877D01*
X0088377Y0044962D01*
X0085823Y0046437D01*
X0082975Y0047200D01*
X0080025Y0047200D01*
X0077177Y0046437D01*
X0074623Y0044962D01*
X0072538Y0042877D01*
X0071063Y0040323D01*
X0070300Y0037475D01*
X0070300Y0034525D01*
X0071063Y0031677D01*
X0071239Y0031372D02*
X0046760Y0031372D01*
X0047283Y0032970D02*
X0070717Y0032970D01*
X0070300Y0034569D02*
X0047700Y0034569D01*
X0047700Y0036167D02*
X0070300Y0036167D01*
X0070378Y0037766D02*
X0047622Y0037766D01*
X0047194Y0039364D02*
X0070806Y0039364D01*
X0071433Y0040963D02*
X0046567Y0040963D01*
X0045644Y0042561D02*
X0072356Y0042561D01*
X0073821Y0044160D02*
X0044179Y0044160D01*
X0041998Y0045758D02*
X0076002Y0045758D01*
X0072370Y0056628D02*
X0073976Y0057294D01*
X0075206Y0058524D01*
X0075238Y0058600D01*
X0076477Y0058600D01*
X0077359Y0058965D01*
X0083359Y0064965D01*
X0084035Y0065641D01*
X0084400Y0066523D01*
X0084400Y0067581D01*
X0084887Y0066404D01*
X0086916Y0064376D01*
X0089566Y0063278D01*
X0092434Y0063278D01*
X0095084Y0064376D01*
X0097113Y0066404D01*
X0098210Y0069054D01*
X0098210Y0071922D01*
X0097113Y0074572D01*
X0095084Y0076601D01*
X0092434Y0077698D01*
X0089566Y0077698D01*
X0086916Y0076601D01*
X0084887Y0074572D01*
X0084400Y0073396D01*
X0084400Y0091006D01*
X0092359Y0098965D01*
X0093035Y0099641D01*
X0093400Y0100523D01*
X0093400Y0130006D01*
X0096841Y0133447D01*
X0097188Y0133101D01*
X0104812Y0133101D01*
X0105750Y0134038D01*
X0105750Y0140482D01*
X0105231Y0141000D01*
X0105750Y0141518D01*
X0105750Y0147962D01*
X0104812Y0148899D01*
X0103400Y0148899D01*
X0103400Y0149557D01*
X0104615Y0149557D01*
X0105553Y0150495D01*
X0105553Y0157726D01*
X0104615Y0158663D01*
X0097384Y0158663D01*
X0096447Y0157726D01*
X0096447Y0150495D01*
X0097384Y0149557D01*
X0098600Y0149557D01*
X0098600Y0148899D01*
X0097188Y0148899D01*
X0096250Y0147962D01*
X0096250Y0141518D01*
X0096769Y0141000D01*
X0096250Y0140482D01*
X0096250Y0138400D01*
X0095523Y0138400D01*
X0094641Y0138035D01*
X0093965Y0137359D01*
X0088965Y0132359D01*
X0088600Y0131477D01*
X0088600Y0101994D01*
X0088400Y0101794D01*
X0088400Y0170006D01*
X0096841Y0178447D01*
X0097188Y0178101D01*
X0104812Y0178101D01*
X0105750Y0179038D01*
X0105750Y0185482D01*
X0105231Y0186000D01*
X0105750Y0186518D01*
X0105750Y0192962D01*
X0104812Y0193899D01*
X0103400Y0193899D01*
X0103400Y0194557D01*
X0104615Y0194557D01*
X0105553Y0195495D01*
X0105553Y0202726D01*
X0104615Y0203663D01*
X0097384Y0203663D01*
X0096447Y0202726D01*
X0096447Y0195495D01*
X0097384Y0194557D01*
X0098600Y0194557D01*
X0098600Y0193899D01*
X0097188Y0193899D01*
X0096250Y0192962D01*
X0096250Y0186518D01*
X0096769Y0186000D01*
X0096250Y0185482D01*
X0096250Y0183400D01*
X0095523Y0183400D01*
X0094641Y0183035D01*
X0093965Y0182359D01*
X0083965Y0172359D01*
X0083600Y0171477D01*
X0083600Y0101994D01*
X0083400Y0101794D01*
X0083400Y0126477D01*
X0083035Y0127359D01*
X0079394Y0131000D01*
X0083035Y0134641D01*
X0083400Y0135523D01*
X0083400Y0186477D01*
X0083035Y0187359D01*
X0082359Y0188035D01*
X0077359Y0193035D01*
X0076477Y0193400D01*
X0075526Y0193400D01*
X0075324Y0193889D01*
X0073889Y0195324D01*
X0072014Y0196100D01*
X0069986Y0196100D01*
X0068111Y0195324D01*
X0066676Y0193889D01*
X0065900Y0192014D01*
X0065900Y0189986D01*
X0066676Y0188111D01*
X0068111Y0186676D01*
X0069744Y0186000D01*
X0068111Y0185324D01*
X0066676Y0183889D01*
X0065900Y0182014D01*
X0065900Y0179986D01*
X0066676Y0178111D01*
X0068111Y0176676D01*
X0069521Y0176092D01*
X0068966Y0175912D01*
X0068222Y0175533D01*
X0067547Y0175043D01*
X0066957Y0174453D01*
X0066467Y0173778D01*
X0066088Y0173034D01*
X0065830Y0172241D01*
X0065700Y0171417D01*
X0065700Y0171184D01*
X0070816Y0171184D01*
X0070816Y0170816D01*
X0065700Y0170816D01*
X0065700Y0170583D01*
X0065830Y0169759D01*
X0066088Y0168966D01*
X0066467Y0168222D01*
X0066957Y0167547D01*
X0067547Y0166957D01*
X0068222Y0166467D01*
X0068966Y0166088D01*
X0069521Y0165908D01*
X0068111Y0165324D01*
X0066676Y0163889D01*
X0066640Y0163800D01*
X0065443Y0163800D01*
X0064414Y0163374D01*
X0063626Y0162586D01*
X0058626Y0157586D01*
X0058200Y0156557D01*
X0058200Y0105443D01*
X0058626Y0104414D01*
X0059414Y0103626D01*
X0064414Y0098626D01*
X0064593Y0098552D01*
X0044126Y0078086D01*
X0043700Y0077057D01*
X0043700Y0074382D01*
X0042794Y0073476D01*
X0042128Y0071870D01*
X0042128Y0070130D01*
X0042794Y0068524D01*
X0044024Y0067294D01*
X0045630Y0066628D01*
X0047370Y0066628D01*
X0048976Y0067294D01*
X0050206Y0068524D01*
X0050872Y0070130D01*
X0050872Y0071870D01*
X0050206Y0073476D01*
X0049300Y0074382D01*
X0049300Y0075340D01*
X0069897Y0095937D01*
X0069986Y0095900D01*
X0072014Y0095900D01*
X0072853Y0096248D01*
X0054465Y0077859D01*
X0054100Y0076977D01*
X0054100Y0074738D01*
X0054024Y0074706D01*
X0052794Y0073476D01*
X0052128Y0071870D01*
X0052128Y0070130D01*
X0052794Y0068524D01*
X0054024Y0067294D01*
X0055630Y0066628D01*
X0057370Y0066628D01*
X0058976Y0067294D01*
X0060206Y0068524D01*
X0060872Y0070130D01*
X0060872Y0071870D01*
X0060206Y0073476D01*
X0058976Y0074706D01*
X0058900Y0074738D01*
X0058900Y0075506D01*
X0074100Y0090706D01*
X0074100Y0074738D01*
X0074024Y0074706D01*
X0072794Y0073476D01*
X0072128Y0071870D01*
X0072128Y0070130D01*
X0072794Y0068524D01*
X0074024Y0067294D01*
X0075630Y0066628D01*
X0077370Y0066628D01*
X0078846Y0067240D01*
X0075144Y0063538D01*
X0073976Y0064706D01*
X0072370Y0065372D01*
X0070630Y0065372D01*
X0069024Y0064706D01*
X0067794Y0063476D01*
X0067128Y0061870D01*
X0067128Y0060130D01*
X0067794Y0058524D01*
X0069024Y0057294D01*
X0070630Y0056628D01*
X0072370Y0056628D01*
X0073141Y0056948D02*
X0098762Y0056948D01*
X0098762Y0058546D02*
X0075216Y0058546D01*
X0076000Y0061000D02*
X0082000Y0067000D01*
X0082000Y0092000D01*
X0091000Y0101000D01*
X0091000Y0131000D01*
X0096000Y0136000D01*
X0099740Y0136000D01*
X0101000Y0137260D01*
X0101000Y0144740D02*
X0101000Y0154110D01*
X0104720Y0149662D02*
X0109573Y0149662D01*
X0109573Y0151260D02*
X0105553Y0151260D01*
X0105553Y0152859D02*
X0109573Y0152859D01*
X0109573Y0154457D02*
X0105553Y0154457D01*
X0105553Y0156056D02*
X0109573Y0156056D01*
X0109573Y0157654D02*
X0105553Y0157654D01*
X0104190Y0163137D02*
X0104648Y0163260D01*
X0105058Y0163497D01*
X0105393Y0163832D01*
X0105630Y0164242D01*
X0105753Y0164700D01*
X0105753Y0167213D01*
X0101676Y0167213D01*
X0101676Y0163137D01*
X0104190Y0163137D01*
X0105518Y0164048D02*
X0109573Y0164048D01*
X0109573Y0162450D02*
X0088400Y0162450D01*
X0088400Y0164048D02*
X0096482Y0164048D01*
X0096370Y0164242D02*
X0096607Y0163832D01*
X0096942Y0163497D01*
X0097352Y0163260D01*
X0097810Y0163137D01*
X0100324Y0163137D01*
X0100324Y0167213D01*
X0101676Y0167213D01*
X0101676Y0168566D01*
X0100324Y0168566D01*
X0100324Y0172643D01*
X0097810Y0172643D01*
X0097352Y0172520D01*
X0096942Y0172283D01*
X0096607Y0171948D01*
X0096370Y0171537D01*
X0096247Y0171079D01*
X0096247Y0168566D01*
X0100324Y0168566D01*
X0100324Y0167213D01*
X0096247Y0167213D01*
X0096247Y0164700D01*
X0096370Y0164242D01*
X0096247Y0165647D02*
X0088400Y0165647D01*
X0088400Y0167245D02*
X0100324Y0167245D01*
X0100324Y0165647D02*
X0101676Y0165647D01*
X0101676Y0167245D02*
X0109573Y0167245D01*
X0109573Y0165647D02*
X0105753Y0165647D01*
X0105753Y0168566D02*
X0105753Y0171079D01*
X0105630Y0171537D01*
X0105393Y0171948D01*
X0105058Y0172283D01*
X0104648Y0172520D01*
X0104190Y0172643D01*
X0101676Y0172643D01*
X0101676Y0168566D01*
X0105753Y0168566D01*
X0105753Y0168844D02*
X0109573Y0168844D01*
X0109573Y0170442D02*
X0105753Y0170442D01*
X0105300Y0172041D02*
X0109573Y0172041D01*
X0109573Y0173639D02*
X0092033Y0173639D01*
X0090435Y0172041D02*
X0096700Y0172041D01*
X0096247Y0170442D02*
X0088836Y0170442D01*
X0088400Y0168844D02*
X0096247Y0168844D01*
X0093632Y0175238D02*
X0109573Y0175238D01*
X0109573Y0176836D02*
X0095230Y0176836D01*
X0096829Y0178435D02*
X0096854Y0178435D01*
X0096000Y0181000D02*
X0099740Y0181000D01*
X0101000Y0182260D01*
X0101000Y0189740D02*
X0101000Y0199110D01*
X0098600Y0194420D02*
X0074793Y0194420D01*
X0072211Y0196018D02*
X0096447Y0196018D01*
X0096447Y0197617D02*
X0011800Y0197617D01*
X0011800Y0199215D02*
X0096447Y0199215D01*
X0096447Y0200814D02*
X0011800Y0200814D01*
X0011800Y0202412D02*
X0096447Y0202412D01*
X0097810Y0208137D02*
X0100324Y0208137D01*
X0100324Y0212213D01*
X0101676Y0212213D01*
X0101676Y0208137D01*
X0104190Y0208137D01*
X0104648Y0208260D01*
X0105058Y0208497D01*
X0105393Y0208832D01*
X0105630Y0209242D01*
X0105753Y0209700D01*
X0105753Y0212213D01*
X0101676Y0212213D01*
X0101676Y0213566D01*
X0100324Y0213566D01*
X0100324Y0217643D01*
X0097810Y0217643D01*
X0097352Y0217520D01*
X0096942Y0217283D01*
X0096607Y0216948D01*
X0096370Y0216537D01*
X0096247Y0216079D01*
X0096247Y0213566D01*
X0100324Y0213566D01*
X0100324Y0212213D01*
X0096247Y0212213D01*
X0096247Y0209700D01*
X0096370Y0209242D01*
X0096607Y0208832D01*
X0096942Y0208497D01*
X0097352Y0208260D01*
X0097810Y0208137D01*
X0096632Y0208806D02*
X0011800Y0208806D01*
X0011800Y0207208D02*
X0109573Y0207208D01*
X0109573Y0208806D02*
X0105368Y0208806D01*
X0105753Y0210405D02*
X0109573Y0210405D01*
X0109573Y0212003D02*
X0105753Y0212003D01*
X0105753Y0213566D02*
X0105753Y0216079D01*
X0105630Y0216537D01*
X0105393Y0216948D01*
X0105058Y0217283D01*
X0104648Y0217520D01*
X0104190Y0217643D01*
X0101676Y0217643D01*
X0101676Y0213566D01*
X0105753Y0213566D01*
X0105753Y0213602D02*
X0109573Y0213602D01*
X0109573Y0215201D02*
X0105753Y0215201D01*
X0105479Y0216799D02*
X0109573Y0216799D01*
X0109573Y0218398D02*
X0090357Y0218398D01*
X0091956Y0219996D02*
X0109573Y0219996D01*
X0109573Y0221595D02*
X0093554Y0221595D01*
X0096521Y0216799D02*
X0088759Y0216799D01*
X0087160Y0215201D02*
X0096247Y0215201D01*
X0096247Y0213602D02*
X0020314Y0213602D01*
X0020750Y0220060D02*
X0020750Y0220482D01*
X0020231Y0221000D01*
X0020750Y0221518D01*
X0020750Y0227962D01*
X0019812Y0228899D01*
X0018800Y0228899D01*
X0018800Y0229557D01*
X0019615Y0229557D01*
X0020553Y0230495D01*
X0020553Y0237726D01*
X0019615Y0238663D01*
X0012384Y0238663D01*
X0011447Y0237726D01*
X0011447Y0230495D01*
X0012384Y0229557D01*
X0013200Y0229557D01*
X0013200Y0228899D01*
X0012188Y0228899D01*
X0011250Y0227962D01*
X0011250Y0221518D01*
X0011769Y0221000D01*
X0011250Y0220482D01*
X0011250Y0216470D01*
X0008568Y0213788D01*
X0008568Y0253274D01*
X0094433Y0253274D01*
X0093889Y0253097D01*
X0093117Y0252704D01*
X0092417Y0252195D01*
X0091805Y0251583D01*
X0091296Y0250883D01*
X0090903Y0250111D01*
X0090635Y0249288D01*
X0090500Y0248433D01*
X0090500Y0248000D01*
X0096000Y0248000D01*
X0101500Y0248000D01*
X0096000Y0248000D01*
X0096000Y0248000D01*
X0096000Y0248000D01*
X0090500Y0248000D01*
X0090500Y0247567D01*
X0090635Y0246712D01*
X0090903Y0245889D01*
X0091296Y0245117D01*
X0091805Y0244417D01*
X0092417Y0243805D01*
X0093117Y0243296D01*
X0093889Y0242903D01*
X0093944Y0242885D01*
X0092998Y0242493D01*
X0091507Y0241002D01*
X0090700Y0239054D01*
X0090700Y0236946D01*
X0091507Y0234998D01*
X0092998Y0233507D01*
X0094222Y0233000D01*
X0092998Y0232493D01*
X0091507Y0231002D01*
X0090700Y0229054D01*
X0090700Y0226946D01*
X0090784Y0226744D01*
X0084100Y0220060D01*
X0020750Y0220060D01*
X0020750Y0221595D02*
X0085635Y0221595D01*
X0087233Y0223193D02*
X0020750Y0223193D01*
X0020750Y0224792D02*
X0088832Y0224792D01*
X0090430Y0226390D02*
X0020750Y0226390D01*
X0020723Y0227989D02*
X0090700Y0227989D01*
X0090921Y0229587D02*
X0019645Y0229587D01*
X0020553Y0231186D02*
X0091690Y0231186D01*
X0092122Y0234383D02*
X0020553Y0234383D01*
X0020553Y0235981D02*
X0091100Y0235981D01*
X0090700Y0237580D02*
X0020553Y0237580D01*
X0020553Y0232784D02*
X0093700Y0232784D01*
X0090751Y0239178D02*
X0008568Y0239178D01*
X0008568Y0237580D02*
X0011447Y0237580D01*
X0011447Y0235981D02*
X0008568Y0235981D01*
X0008568Y0234383D02*
X0011447Y0234383D01*
X0011447Y0232784D02*
X0008568Y0232784D01*
X0008568Y0231186D02*
X0011447Y0231186D01*
X0012355Y0229587D02*
X0008568Y0229587D01*
X0008568Y0227989D02*
X0011277Y0227989D01*
X0011250Y0226390D02*
X0008568Y0226390D01*
X0008568Y0224792D02*
X0011250Y0224792D01*
X0011250Y0223193D02*
X0008568Y0223193D01*
X0008568Y0221595D02*
X0011250Y0221595D01*
X0011250Y0219996D02*
X0008568Y0219996D01*
X0008568Y0218398D02*
X0011250Y0218398D01*
X0011250Y0216799D02*
X0008568Y0216799D01*
X0008568Y0215201D02*
X0009981Y0215201D01*
X0013105Y0210405D02*
X0096247Y0210405D01*
X0096247Y0212003D02*
X0014703Y0212003D01*
X0011800Y0205609D02*
X0109573Y0205609D01*
X0109573Y0204011D02*
X0011800Y0204011D01*
X0011800Y0196018D02*
X0069789Y0196018D01*
X0071000Y0191000D02*
X0076000Y0191000D01*
X0081000Y0186000D01*
X0081000Y0136000D01*
X0076000Y0131000D01*
X0071000Y0131000D01*
X0069986Y0136100D02*
X0068111Y0135324D01*
X0066676Y0133889D01*
X0065900Y0132014D01*
X0065900Y0129986D01*
X0066676Y0128111D01*
X0068111Y0126676D01*
X0069744Y0126000D01*
X0068111Y0125324D01*
X0066676Y0123889D01*
X0065900Y0122014D01*
X0065900Y0119986D01*
X0066676Y0118111D01*
X0068111Y0116676D01*
X0069521Y0116092D01*
X0068966Y0115912D01*
X0068222Y0115533D01*
X0067547Y0115043D01*
X0066957Y0114453D01*
X0066467Y0113778D01*
X0066088Y0113034D01*
X0065830Y0112241D01*
X0065700Y0111417D01*
X0065700Y0111184D01*
X0070816Y0111184D01*
X0070816Y0110816D01*
X0065700Y0110816D01*
X0065700Y0110583D01*
X0065830Y0109759D01*
X0066088Y0108966D01*
X0066467Y0108222D01*
X0066957Y0107547D01*
X0067547Y0106957D01*
X0068222Y0106467D01*
X0068966Y0106088D01*
X0069521Y0105908D01*
X0068111Y0105324D01*
X0066874Y0104086D01*
X0063800Y0107160D01*
X0063800Y0154840D01*
X0066874Y0157914D01*
X0068111Y0156676D01*
X0069986Y0155900D01*
X0072014Y0155900D01*
X0073889Y0156676D01*
X0075324Y0158111D01*
X0076100Y0159986D01*
X0076100Y0162014D01*
X0075324Y0163889D01*
X0073889Y0165324D01*
X0072479Y0165908D01*
X0073034Y0166088D01*
X0073778Y0166467D01*
X0074453Y0166957D01*
X0075043Y0167547D01*
X0075533Y0168222D01*
X0075912Y0168966D01*
X0076169Y0169759D01*
X0076300Y0170583D01*
X0076300Y0170816D01*
X0071184Y0170816D01*
X0071184Y0171184D01*
X0076300Y0171184D01*
X0076300Y0171417D01*
X0076169Y0172241D01*
X0075912Y0173034D01*
X0075533Y0173778D01*
X0075043Y0174453D01*
X0074453Y0175043D01*
X0073778Y0175533D01*
X0073034Y0175912D01*
X0072479Y0176092D01*
X0073889Y0176676D01*
X0075324Y0178111D01*
X0076100Y0179986D01*
X0076100Y0182014D01*
X0075324Y0183889D01*
X0073889Y0185324D01*
X0072256Y0186000D01*
X0073889Y0186676D01*
X0075324Y0188111D01*
X0075374Y0188232D01*
X0078600Y0185006D01*
X0078600Y0136994D01*
X0075374Y0133768D01*
X0075324Y0133889D01*
X0073889Y0135324D01*
X0072014Y0136100D01*
X0069986Y0136100D01*
X0068062Y0135275D02*
X0063800Y0135275D01*
X0063800Y0136873D02*
X0078479Y0136873D01*
X0078600Y0138472D02*
X0063800Y0138472D01*
X0063800Y0140070D02*
X0078600Y0140070D01*
X0078600Y0141669D02*
X0063800Y0141669D01*
X0063800Y0143268D02*
X0078600Y0143268D01*
X0078600Y0144866D02*
X0063800Y0144866D01*
X0063800Y0146465D02*
X0078600Y0146465D01*
X0078600Y0148063D02*
X0063800Y0148063D01*
X0063800Y0149662D02*
X0078600Y0149662D01*
X0078600Y0151260D02*
X0063800Y0151260D01*
X0063800Y0152859D02*
X0078600Y0152859D01*
X0078600Y0154457D02*
X0063800Y0154457D01*
X0065015Y0156056D02*
X0069610Y0156056D01*
X0067133Y0157654D02*
X0066614Y0157654D01*
X0066836Y0164048D02*
X0011800Y0164048D01*
X0011800Y0162450D02*
X0063490Y0162450D01*
X0061891Y0160851D02*
X0011800Y0160851D01*
X0011800Y0159253D02*
X0060293Y0159253D01*
X0058694Y0157654D02*
X0011800Y0157654D01*
X0011800Y0156056D02*
X0058200Y0156056D01*
X0058200Y0154457D02*
X0011800Y0154457D01*
X0011800Y0152859D02*
X0058200Y0152859D01*
X0058200Y0151260D02*
X0011800Y0151260D01*
X0011800Y0149662D02*
X0058200Y0149662D01*
X0058200Y0148063D02*
X0011800Y0148063D01*
X0011800Y0146465D02*
X0058200Y0146465D01*
X0058200Y0144866D02*
X0011800Y0144866D01*
X0011800Y0143268D02*
X0058200Y0143268D01*
X0058200Y0141669D02*
X0011800Y0141669D01*
X0011800Y0140070D02*
X0058200Y0140070D01*
X0058200Y0138472D02*
X0011800Y0138472D01*
X0011800Y0136873D02*
X0058200Y0136873D01*
X0058200Y0135275D02*
X0011800Y0135275D01*
X0011800Y0133676D02*
X0058200Y0133676D01*
X0058200Y0132078D02*
X0011800Y0132078D01*
X0011800Y0130479D02*
X0058200Y0130479D01*
X0058200Y0128881D02*
X0011800Y0128881D01*
X0011800Y0127282D02*
X0058200Y0127282D01*
X0058200Y0125684D02*
X0011800Y0125684D01*
X0011800Y0124085D02*
X0058200Y0124085D01*
X0058200Y0122487D02*
X0011800Y0122487D01*
X0011800Y0120888D02*
X0058200Y0120888D01*
X0058200Y0119290D02*
X0011800Y0119290D01*
X0011800Y0117691D02*
X0058200Y0117691D01*
X0058200Y0116093D02*
X0011800Y0116093D01*
X0011800Y0114494D02*
X0058200Y0114494D01*
X0058200Y0112896D02*
X0011800Y0112896D01*
X0011800Y0111297D02*
X0058200Y0111297D01*
X0058200Y0109699D02*
X0011800Y0109699D01*
X0011800Y0108100D02*
X0058200Y0108100D01*
X0058200Y0106502D02*
X0011800Y0106502D01*
X0011800Y0104903D02*
X0058424Y0104903D01*
X0059735Y0103305D02*
X0011800Y0103305D01*
X0011800Y0101706D02*
X0061334Y0101706D01*
X0062932Y0100108D02*
X0011800Y0100108D01*
X0012451Y0098509D02*
X0064549Y0098509D01*
X0062951Y0096911D02*
X0014049Y0096911D01*
X0015648Y0095312D02*
X0061352Y0095312D01*
X0059754Y0093714D02*
X0017246Y0093714D01*
X0018845Y0092115D02*
X0058155Y0092115D01*
X0056557Y0090517D02*
X0020443Y0090517D01*
X0022042Y0088918D02*
X0054958Y0088918D01*
X0053360Y0087320D02*
X0028640Y0087320D01*
X0030239Y0085721D02*
X0051761Y0085721D01*
X0050163Y0084123D02*
X0031837Y0084123D01*
X0033436Y0082524D02*
X0048564Y0082524D01*
X0046966Y0080926D02*
X0035034Y0080926D01*
X0036633Y0079327D02*
X0045367Y0079327D01*
X0043978Y0077729D02*
X0038231Y0077729D01*
X0039830Y0076130D02*
X0043700Y0076130D01*
X0043700Y0074532D02*
X0040800Y0074532D01*
X0040800Y0072933D02*
X0042569Y0072933D01*
X0042128Y0071334D02*
X0040800Y0071334D01*
X0040800Y0069736D02*
X0042292Y0069736D01*
X0043180Y0068137D02*
X0040822Y0068137D01*
X0042421Y0066539D02*
X0078145Y0066539D01*
X0076546Y0064940D02*
X0073411Y0064940D01*
X0073180Y0068137D02*
X0069820Y0068137D01*
X0070206Y0068524D02*
X0070872Y0070130D01*
X0070872Y0071870D01*
X0070206Y0073476D01*
X0068976Y0074706D01*
X0067370Y0075372D01*
X0065630Y0075372D01*
X0064024Y0074706D01*
X0062794Y0073476D01*
X0062128Y0071870D01*
X0062128Y0070130D01*
X0062794Y0068524D01*
X0064024Y0067294D01*
X0065630Y0066628D01*
X0067370Y0066628D01*
X0068976Y0067294D01*
X0070206Y0068524D01*
X0070708Y0069736D02*
X0072292Y0069736D01*
X0072128Y0071334D02*
X0070872Y0071334D01*
X0070431Y0072933D02*
X0072569Y0072933D01*
X0073849Y0074532D02*
X0069151Y0074532D01*
X0065918Y0082524D02*
X0074100Y0082524D01*
X0074100Y0080926D02*
X0064320Y0080926D01*
X0062721Y0079327D02*
X0074100Y0079327D01*
X0074100Y0077729D02*
X0061123Y0077729D01*
X0059524Y0076130D02*
X0074100Y0076130D01*
X0076500Y0071000D02*
X0076500Y0091500D01*
X0086000Y0101000D01*
X0086000Y0171000D01*
X0096000Y0181000D01*
X0095113Y0183230D02*
X0083400Y0183230D01*
X0083400Y0181632D02*
X0093238Y0181632D01*
X0091639Y0180033D02*
X0083400Y0180033D01*
X0083400Y0178435D02*
X0090041Y0178435D01*
X0088442Y0176836D02*
X0083400Y0176836D01*
X0083400Y0175238D02*
X0086844Y0175238D01*
X0085245Y0173639D02*
X0083400Y0173639D01*
X0083400Y0172041D02*
X0083833Y0172041D01*
X0083600Y0170442D02*
X0083400Y0170442D01*
X0083400Y0168844D02*
X0083600Y0168844D01*
X0083600Y0167245D02*
X0083400Y0167245D01*
X0083400Y0165647D02*
X0083600Y0165647D01*
X0083600Y0164048D02*
X0083400Y0164048D01*
X0083400Y0162450D02*
X0083600Y0162450D01*
X0083600Y0160851D02*
X0083400Y0160851D01*
X0083400Y0159253D02*
X0083600Y0159253D01*
X0083600Y0157654D02*
X0083400Y0157654D01*
X0083400Y0156056D02*
X0083600Y0156056D01*
X0083600Y0154457D02*
X0083400Y0154457D01*
X0083400Y0152859D02*
X0083600Y0152859D01*
X0083600Y0151260D02*
X0083400Y0151260D01*
X0083400Y0149662D02*
X0083600Y0149662D01*
X0083600Y0148063D02*
X0083400Y0148063D01*
X0083400Y0146465D02*
X0083600Y0146465D01*
X0083600Y0144866D02*
X0083400Y0144866D01*
X0083400Y0143268D02*
X0083600Y0143268D01*
X0083600Y0141669D02*
X0083400Y0141669D01*
X0083400Y0140070D02*
X0083600Y0140070D01*
X0083600Y0138472D02*
X0083400Y0138472D01*
X0083400Y0136873D02*
X0083600Y0136873D01*
X0083600Y0135275D02*
X0083297Y0135275D01*
X0083600Y0133676D02*
X0082071Y0133676D01*
X0083600Y0132078D02*
X0080472Y0132078D01*
X0079915Y0130479D02*
X0083600Y0130479D01*
X0083600Y0128881D02*
X0081513Y0128881D01*
X0081000Y0126000D02*
X0076000Y0131000D01*
X0076881Y0135275D02*
X0073938Y0135275D01*
X0075374Y0128232D02*
X0078600Y0125006D01*
X0078600Y0101994D01*
X0075752Y0099147D01*
X0076100Y0099986D01*
X0076100Y0102014D01*
X0075324Y0103889D01*
X0073889Y0105324D01*
X0072479Y0105908D01*
X0073034Y0106088D01*
X0073778Y0106467D01*
X0074453Y0106957D01*
X0075043Y0107547D01*
X0075533Y0108222D01*
X0075912Y0108966D01*
X0076169Y0109759D01*
X0076300Y0110583D01*
X0076300Y0110816D01*
X0071184Y0110816D01*
X0071184Y0111184D01*
X0076300Y0111184D01*
X0076300Y0111417D01*
X0076169Y0112241D01*
X0075912Y0113034D01*
X0075533Y0113778D01*
X0075043Y0114453D01*
X0074453Y0115043D01*
X0073778Y0115533D01*
X0073034Y0115912D01*
X0072479Y0116092D01*
X0073889Y0116676D01*
X0075324Y0118111D01*
X0076100Y0119986D01*
X0076100Y0122014D01*
X0075324Y0123889D01*
X0073889Y0125324D01*
X0072256Y0126000D01*
X0073889Y0126676D01*
X0075324Y0128111D01*
X0075374Y0128232D01*
X0074495Y0127282D02*
X0076323Y0127282D01*
X0077922Y0125684D02*
X0073019Y0125684D01*
X0075127Y0124085D02*
X0078600Y0124085D01*
X0078600Y0122487D02*
X0075904Y0122487D01*
X0076100Y0120888D02*
X0078600Y0120888D01*
X0078600Y0119290D02*
X0075812Y0119290D01*
X0074904Y0117691D02*
X0078600Y0117691D01*
X0078600Y0116093D02*
X0072480Y0116093D01*
X0075001Y0114494D02*
X0078600Y0114494D01*
X0078600Y0112896D02*
X0075957Y0112896D01*
X0076300Y0111297D02*
X0078600Y0111297D01*
X0078600Y0109699D02*
X0076150Y0109699D01*
X0075444Y0108100D02*
X0078600Y0108100D01*
X0078600Y0106502D02*
X0073826Y0106502D01*
X0074309Y0104903D02*
X0078600Y0104903D01*
X0078600Y0103305D02*
X0075566Y0103305D01*
X0076100Y0101706D02*
X0078312Y0101706D01*
X0076714Y0100108D02*
X0076100Y0100108D01*
X0081000Y0101000D02*
X0081000Y0126000D01*
X0083400Y0125684D02*
X0083600Y0125684D01*
X0083600Y0127282D02*
X0083067Y0127282D01*
X0083400Y0124085D02*
X0083600Y0124085D01*
X0083600Y0122487D02*
X0083400Y0122487D01*
X0083400Y0120888D02*
X0083600Y0120888D01*
X0083600Y0119290D02*
X0083400Y0119290D01*
X0083400Y0117691D02*
X0083600Y0117691D01*
X0083600Y0116093D02*
X0083400Y0116093D01*
X0083400Y0114494D02*
X0083600Y0114494D01*
X0083600Y0112896D02*
X0083400Y0112896D01*
X0083400Y0111297D02*
X0083600Y0111297D01*
X0083600Y0109699D02*
X0083400Y0109699D01*
X0083400Y0108100D02*
X0083600Y0108100D01*
X0083600Y0106502D02*
X0083400Y0106502D01*
X0083400Y0104903D02*
X0083600Y0104903D01*
X0083600Y0103305D02*
X0083400Y0103305D01*
X0081000Y0101000D02*
X0056500Y0076500D01*
X0056500Y0071000D01*
X0053180Y0068137D02*
X0049820Y0068137D01*
X0050708Y0069736D02*
X0052292Y0069736D01*
X0052128Y0071334D02*
X0050872Y0071334D01*
X0050431Y0072933D02*
X0052569Y0072933D01*
X0053849Y0074532D02*
X0049300Y0074532D01*
X0050090Y0076130D02*
X0054100Y0076130D01*
X0054411Y0077729D02*
X0051688Y0077729D01*
X0053287Y0079327D02*
X0055933Y0079327D01*
X0054885Y0080926D02*
X0057531Y0080926D01*
X0056484Y0082524D02*
X0059130Y0082524D01*
X0058082Y0084123D02*
X0060728Y0084123D01*
X0059681Y0085721D02*
X0062327Y0085721D01*
X0061279Y0087320D02*
X0063926Y0087320D01*
X0062878Y0088918D02*
X0065524Y0088918D01*
X0064476Y0090517D02*
X0067123Y0090517D01*
X0066075Y0092115D02*
X0068721Y0092115D01*
X0067673Y0093714D02*
X0070320Y0093714D01*
X0069272Y0095312D02*
X0071918Y0095312D01*
X0073911Y0090517D02*
X0074100Y0090517D01*
X0074100Y0088918D02*
X0072312Y0088918D01*
X0070714Y0087320D02*
X0074100Y0087320D01*
X0074100Y0085721D02*
X0069115Y0085721D01*
X0067517Y0084123D02*
X0074100Y0084123D01*
X0063849Y0074532D02*
X0059151Y0074532D01*
X0060431Y0072933D02*
X0062569Y0072933D01*
X0062128Y0071334D02*
X0060872Y0071334D01*
X0060708Y0069736D02*
X0062292Y0069736D01*
X0063180Y0068137D02*
X0059820Y0068137D01*
X0060630Y0065372D02*
X0059024Y0064706D01*
X0057794Y0063476D01*
X0057128Y0061870D01*
X0057128Y0060130D01*
X0057794Y0058524D01*
X0059024Y0057294D01*
X0060630Y0056628D01*
X0062370Y0056628D01*
X0063976Y0057294D01*
X0065206Y0058524D01*
X0065872Y0060130D01*
X0065872Y0061870D01*
X0065206Y0063476D01*
X0063976Y0064706D01*
X0062370Y0065372D01*
X0060630Y0065372D01*
X0059589Y0064940D02*
X0053836Y0064940D01*
X0053896Y0064910D02*
X0053255Y0065237D01*
X0052571Y0065459D01*
X0051860Y0065572D01*
X0051586Y0065572D01*
X0051586Y0061086D01*
X0056072Y0061086D01*
X0056072Y0061360D01*
X0055959Y0062071D01*
X0055737Y0062755D01*
X0055410Y0063396D01*
X0054987Y0063978D01*
X0054478Y0064487D01*
X0053896Y0064910D01*
X0055438Y0063342D02*
X0057738Y0063342D01*
X0057128Y0061743D02*
X0056011Y0061743D01*
X0056072Y0060914D02*
X0051586Y0060914D01*
X0051586Y0061086D01*
X0051414Y0061086D01*
X0051414Y0065572D01*
X0051140Y0065572D01*
X0050429Y0065459D01*
X0049745Y0065237D01*
X0049104Y0064910D01*
X0048522Y0064487D01*
X0048013Y0063978D01*
X0047590Y0063396D01*
X0047263Y0062755D01*
X0047041Y0062071D01*
X0046928Y0061360D01*
X0046928Y0061086D01*
X0051414Y0061086D01*
X0051414Y0060914D01*
X0051586Y0060914D01*
X0051586Y0056428D01*
X0051860Y0056428D01*
X0052571Y0056541D01*
X0053255Y0056763D01*
X0053896Y0057090D01*
X0054478Y0057513D01*
X0054987Y0058022D01*
X0055410Y0058604D01*
X0055737Y0059245D01*
X0055959Y0059929D01*
X0056072Y0060640D01*
X0056072Y0060914D01*
X0055993Y0060145D02*
X0057128Y0060145D01*
X0057784Y0058546D02*
X0055368Y0058546D01*
X0053617Y0056948D02*
X0059859Y0056948D01*
X0063141Y0056948D02*
X0069859Y0056948D01*
X0067784Y0058546D02*
X0065216Y0058546D01*
X0065872Y0060145D02*
X0067128Y0060145D01*
X0067128Y0061743D02*
X0065872Y0061743D01*
X0065262Y0063342D02*
X0067738Y0063342D01*
X0069589Y0064940D02*
X0063411Y0064940D01*
X0071500Y0061000D02*
X0076000Y0061000D01*
X0078539Y0060145D02*
X0098762Y0060145D01*
X0098762Y0061743D02*
X0080138Y0061743D01*
X0081736Y0063342D02*
X0089411Y0063342D01*
X0086351Y0064940D02*
X0083335Y0064940D01*
X0084400Y0066539D02*
X0084832Y0066539D01*
X0084870Y0074532D02*
X0084400Y0074532D01*
X0084400Y0076130D02*
X0086445Y0076130D01*
X0084400Y0077729D02*
X0098762Y0077729D01*
X0098762Y0079327D02*
X0084400Y0079327D01*
X0084400Y0080926D02*
X0098762Y0080926D01*
X0098762Y0082524D02*
X0092481Y0082524D01*
X0093140Y0082797D02*
X0093543Y0083200D01*
X0095297Y0083200D01*
X0096326Y0083626D01*
X0097114Y0084414D01*
X0100801Y0088101D01*
X0104812Y0088101D01*
X0105750Y0089038D01*
X0105750Y0095482D01*
X0105231Y0096000D01*
X0105750Y0096518D01*
X0105750Y0102962D01*
X0104812Y0103899D01*
X0103800Y0103899D01*
X0103800Y0104557D01*
X0104615Y0104557D01*
X0105553Y0105495D01*
X0105553Y0112726D01*
X0104615Y0113663D01*
X0097384Y0113663D01*
X0096447Y0112726D01*
X0096447Y0105495D01*
X0097384Y0104557D01*
X0098200Y0104557D01*
X0098200Y0103899D01*
X0097188Y0103899D01*
X0096250Y0102962D01*
X0096250Y0096518D01*
X0096769Y0096000D01*
X0096250Y0095482D01*
X0096250Y0091470D01*
X0093580Y0088800D01*
X0093543Y0088800D01*
X0093140Y0089203D01*
X0091751Y0089778D01*
X0090249Y0089778D01*
X0088860Y0089203D01*
X0087797Y0088140D01*
X0087222Y0086751D01*
X0087222Y0085249D01*
X0087797Y0083860D01*
X0088860Y0082797D01*
X0090249Y0082222D01*
X0091751Y0082222D01*
X0093140Y0082797D01*
X0093425Y0088918D02*
X0093698Y0088918D01*
X0095297Y0090517D02*
X0084400Y0090517D01*
X0084400Y0088918D02*
X0088575Y0088918D01*
X0087457Y0087320D02*
X0084400Y0087320D01*
X0084400Y0085721D02*
X0087222Y0085721D01*
X0087688Y0084123D02*
X0084400Y0084123D01*
X0084400Y0082524D02*
X0089519Y0082524D01*
X0085509Y0092115D02*
X0096250Y0092115D01*
X0096250Y0093714D02*
X0087108Y0093714D01*
X0088706Y0095312D02*
X0096250Y0095312D01*
X0096250Y0096911D02*
X0090305Y0096911D01*
X0091903Y0098509D02*
X0096250Y0098509D01*
X0096250Y0100108D02*
X0093228Y0100108D01*
X0093400Y0101706D02*
X0096250Y0101706D01*
X0096593Y0103305D02*
X0093400Y0103305D01*
X0093400Y0104903D02*
X0097039Y0104903D01*
X0096447Y0106502D02*
X0093400Y0106502D01*
X0093400Y0108100D02*
X0096447Y0108100D01*
X0096447Y0109699D02*
X0093400Y0109699D01*
X0093400Y0111297D02*
X0096447Y0111297D01*
X0096617Y0112896D02*
X0093400Y0112896D01*
X0093400Y0114494D02*
X0109573Y0114494D01*
X0109573Y0112896D02*
X0105383Y0112896D01*
X0105553Y0111297D02*
X0109573Y0111297D01*
X0109573Y0109699D02*
X0105553Y0109699D01*
X0105553Y0108100D02*
X0109573Y0108100D01*
X0109573Y0106502D02*
X0105553Y0106502D01*
X0104961Y0104903D02*
X0109573Y0104903D01*
X0109573Y0103305D02*
X0105407Y0103305D01*
X0105750Y0101706D02*
X0109573Y0101706D01*
X0109573Y0100108D02*
X0105750Y0100108D01*
X0105750Y0098509D02*
X0109573Y0098509D01*
X0109573Y0096911D02*
X0105750Y0096911D01*
X0105750Y0095312D02*
X0109573Y0095312D01*
X0109573Y0093714D02*
X0105750Y0093714D01*
X0105750Y0092115D02*
X0109573Y0092115D01*
X0109573Y0090517D02*
X0105750Y0090517D01*
X0105630Y0088918D02*
X0109573Y0088918D01*
X0109573Y0087320D02*
X0100020Y0087320D01*
X0100455Y0085721D02*
X0098421Y0085721D01*
X0099301Y0084123D02*
X0096823Y0084123D01*
X0095555Y0076130D02*
X0098762Y0076130D01*
X0098762Y0074532D02*
X0097130Y0074532D01*
X0097792Y0072933D02*
X0098762Y0072933D01*
X0098762Y0071334D02*
X0098210Y0071334D01*
X0098210Y0069736D02*
X0098762Y0069736D01*
X0098762Y0068137D02*
X0097831Y0068137D01*
X0097168Y0066539D02*
X0098762Y0066539D01*
X0098762Y0064940D02*
X0095649Y0064940D01*
X0092589Y0063342D02*
X0098762Y0063342D01*
X0098762Y0055349D02*
X0019380Y0055349D01*
X0019380Y0053751D02*
X0098762Y0053751D01*
X0098762Y0052152D02*
X0019380Y0052152D01*
X0019380Y0050554D02*
X0098762Y0050554D01*
X0098762Y0048955D02*
X0019380Y0048955D01*
X0019380Y0047357D02*
X0098762Y0047357D01*
X0098762Y0045758D02*
X0086998Y0045758D01*
X0089179Y0044160D02*
X0098762Y0044160D01*
X0098762Y0042561D02*
X0090644Y0042561D01*
X0091567Y0040963D02*
X0098762Y0040963D01*
X0098762Y0039364D02*
X0092194Y0039364D01*
X0092622Y0037766D02*
X0098762Y0037766D01*
X0098762Y0036167D02*
X0092700Y0036167D01*
X0092700Y0034569D02*
X0098762Y0034569D01*
X0098762Y0032970D02*
X0092283Y0032970D01*
X0091760Y0031372D02*
X0098762Y0031372D01*
X0098762Y0029773D02*
X0097924Y0029773D01*
X0098280Y0018584D02*
X0098762Y0018584D01*
X0098762Y0016985D02*
X0095406Y0016985D01*
X0098762Y0015387D02*
X0019380Y0015387D01*
X0019380Y0016985D02*
X0022594Y0016985D01*
X0019720Y0018584D02*
X0019380Y0018584D01*
X0019380Y0013788D02*
X0098762Y0013788D01*
X0098762Y0012190D02*
X0019380Y0012190D01*
X0019380Y0010591D02*
X0098762Y0010591D01*
X0098762Y0008993D02*
X0019380Y0008993D01*
X0013780Y0002969D02*
X0013780Y0081709D01*
X0002969Y0081709D01*
X0002969Y0258874D01*
X0115173Y0258874D01*
X0115173Y0081709D01*
X0104362Y0081709D01*
X0104362Y0002969D01*
X0013780Y0002969D01*
X0019380Y0029773D02*
X0020076Y0029773D01*
X0019380Y0031372D02*
X0026239Y0031372D01*
X0025717Y0032970D02*
X0019380Y0032970D01*
X0019380Y0034569D02*
X0025300Y0034569D01*
X0025300Y0036167D02*
X0019380Y0036167D01*
X0019380Y0037766D02*
X0025378Y0037766D01*
X0025806Y0039364D02*
X0019380Y0039364D01*
X0019380Y0040963D02*
X0026433Y0040963D01*
X0027356Y0042561D02*
X0019380Y0042561D01*
X0019380Y0044160D02*
X0028821Y0044160D01*
X0031002Y0045758D02*
X0019380Y0045758D01*
X0019380Y0056948D02*
X0039859Y0056948D01*
X0037784Y0058546D02*
X0019380Y0058546D01*
X0019380Y0060145D02*
X0037128Y0060145D01*
X0037128Y0061743D02*
X0019380Y0061743D01*
X0019380Y0063342D02*
X0025411Y0063342D01*
X0025566Y0063278D02*
X0028434Y0063278D01*
X0031084Y0064376D01*
X0033113Y0066404D01*
X0034210Y0069054D01*
X0034210Y0071922D01*
X0033113Y0074572D01*
X0031084Y0076601D01*
X0028434Y0077698D01*
X0025566Y0077698D01*
X0022916Y0076601D01*
X0020887Y0074572D01*
X0019790Y0071922D01*
X0019790Y0069054D01*
X0020887Y0066404D01*
X0022916Y0064376D01*
X0025566Y0063278D01*
X0028589Y0063342D02*
X0037698Y0063342D01*
X0036100Y0064940D02*
X0031649Y0064940D01*
X0033168Y0066539D02*
X0035200Y0066539D01*
X0035200Y0068137D02*
X0033831Y0068137D01*
X0034210Y0069736D02*
X0035200Y0069736D01*
X0035200Y0071334D02*
X0034210Y0071334D01*
X0033792Y0072933D02*
X0035107Y0072933D01*
X0033509Y0074532D02*
X0033130Y0074532D01*
X0031910Y0076130D02*
X0031555Y0076130D01*
X0030312Y0077729D02*
X0019380Y0077729D01*
X0019380Y0079327D02*
X0028713Y0079327D01*
X0027115Y0080926D02*
X0019380Y0080926D01*
X0019380Y0082524D02*
X0025516Y0082524D01*
X0022445Y0076130D02*
X0019380Y0076130D01*
X0019380Y0074532D02*
X0020870Y0074532D01*
X0020208Y0072933D02*
X0019380Y0072933D01*
X0019380Y0071334D02*
X0019790Y0071334D01*
X0019790Y0069736D02*
X0019380Y0069736D01*
X0019380Y0068137D02*
X0020169Y0068137D01*
X0020832Y0066539D02*
X0019380Y0066539D01*
X0019380Y0064940D02*
X0022351Y0064940D01*
X0018918Y0084123D02*
X0018841Y0084123D01*
X0043141Y0056948D02*
X0049383Y0056948D01*
X0049104Y0057090D02*
X0049745Y0056763D01*
X0050429Y0056541D01*
X0051140Y0056428D01*
X0051414Y0056428D01*
X0051414Y0060914D01*
X0046928Y0060914D01*
X0046928Y0060640D01*
X0047041Y0059929D01*
X0047263Y0059245D01*
X0047590Y0058604D01*
X0048013Y0058022D01*
X0048522Y0057513D01*
X0049104Y0057090D01*
X0047632Y0058546D02*
X0045216Y0058546D01*
X0045872Y0060145D02*
X0047007Y0060145D01*
X0046989Y0061743D02*
X0045872Y0061743D01*
X0045262Y0063342D02*
X0047562Y0063342D01*
X0049164Y0064940D02*
X0043934Y0064940D01*
X0051414Y0064940D02*
X0051586Y0064940D01*
X0051586Y0063342D02*
X0051414Y0063342D01*
X0051414Y0061743D02*
X0051586Y0061743D01*
X0051586Y0060145D02*
X0051414Y0060145D01*
X0051414Y0058546D02*
X0051586Y0058546D01*
X0051586Y0056948D02*
X0051414Y0056948D01*
X0045838Y0029773D02*
X0072162Y0029773D01*
X0073486Y0028175D02*
X0044514Y0028175D01*
X0042577Y0026576D02*
X0075423Y0026576D01*
X0079362Y0024978D02*
X0038638Y0024978D01*
X0034362Y0024978D02*
X0031710Y0024978D01*
X0031710Y0023379D02*
X0086290Y0023379D01*
X0086290Y0024978D02*
X0083638Y0024978D01*
X0086615Y0021781D02*
X0031385Y0021781D01*
X0030723Y0020182D02*
X0087277Y0020182D01*
X0088720Y0018584D02*
X0029280Y0018584D01*
X0026406Y0016985D02*
X0091594Y0016985D01*
X0088600Y0103305D02*
X0088400Y0103305D01*
X0088400Y0104903D02*
X0088600Y0104903D01*
X0088600Y0106502D02*
X0088400Y0106502D01*
X0088400Y0108100D02*
X0088600Y0108100D01*
X0088600Y0109699D02*
X0088400Y0109699D01*
X0088400Y0111297D02*
X0088600Y0111297D01*
X0088600Y0112896D02*
X0088400Y0112896D01*
X0088400Y0114494D02*
X0088600Y0114494D01*
X0088600Y0116093D02*
X0088400Y0116093D01*
X0088400Y0117691D02*
X0088600Y0117691D01*
X0088600Y0119290D02*
X0088400Y0119290D01*
X0088400Y0120888D02*
X0088600Y0120888D01*
X0088600Y0122487D02*
X0088400Y0122487D01*
X0088400Y0124085D02*
X0088600Y0124085D01*
X0088600Y0125684D02*
X0088400Y0125684D01*
X0088400Y0127282D02*
X0088600Y0127282D01*
X0088600Y0128881D02*
X0088400Y0128881D01*
X0088400Y0130479D02*
X0088600Y0130479D01*
X0088400Y0132078D02*
X0088849Y0132078D01*
X0088400Y0133676D02*
X0090282Y0133676D01*
X0091881Y0135275D02*
X0088400Y0135275D01*
X0088400Y0136873D02*
X0093479Y0136873D01*
X0096250Y0138472D02*
X0088400Y0138472D01*
X0088400Y0140070D02*
X0096250Y0140070D01*
X0096250Y0141669D02*
X0088400Y0141669D01*
X0088400Y0143268D02*
X0096250Y0143268D01*
X0096250Y0144866D02*
X0088400Y0144866D01*
X0088400Y0146465D02*
X0096250Y0146465D01*
X0096351Y0148063D02*
X0088400Y0148063D01*
X0088400Y0149662D02*
X0097280Y0149662D01*
X0096447Y0151260D02*
X0088400Y0151260D01*
X0088400Y0152859D02*
X0096447Y0152859D01*
X0096447Y0154457D02*
X0088400Y0154457D01*
X0088400Y0156056D02*
X0096447Y0156056D01*
X0096447Y0157654D02*
X0088400Y0157654D01*
X0088400Y0159253D02*
X0109573Y0159253D01*
X0109573Y0160851D02*
X0088400Y0160851D01*
X0078600Y0160851D02*
X0076100Y0160851D01*
X0075920Y0162450D02*
X0078600Y0162450D01*
X0078600Y0164048D02*
X0075164Y0164048D01*
X0074741Y0167245D02*
X0078600Y0167245D01*
X0078600Y0165647D02*
X0073109Y0165647D01*
X0075850Y0168844D02*
X0078600Y0168844D01*
X0078600Y0170442D02*
X0076278Y0170442D01*
X0076201Y0172041D02*
X0078600Y0172041D01*
X0078600Y0173639D02*
X0075604Y0173639D01*
X0074184Y0175238D02*
X0078600Y0175238D01*
X0078600Y0176836D02*
X0074049Y0176836D01*
X0075458Y0178435D02*
X0078600Y0178435D01*
X0078600Y0180033D02*
X0076100Y0180033D01*
X0076100Y0181632D02*
X0078600Y0181632D01*
X0078600Y0183230D02*
X0075596Y0183230D01*
X0074384Y0184829D02*
X0078600Y0184829D01*
X0077179Y0186427D02*
X0073287Y0186427D01*
X0075238Y0188026D02*
X0075580Y0188026D01*
X0077573Y0192821D02*
X0096250Y0192821D01*
X0096250Y0191223D02*
X0079171Y0191223D01*
X0080770Y0189624D02*
X0096250Y0189624D01*
X0096250Y0188026D02*
X0082368Y0188026D01*
X0082359Y0188035D02*
X0082359Y0188035D01*
X0083400Y0186427D02*
X0096341Y0186427D01*
X0096250Y0184829D02*
X0083400Y0184829D01*
X0078600Y0159253D02*
X0075796Y0159253D01*
X0074867Y0157654D02*
X0078600Y0157654D01*
X0078600Y0156056D02*
X0072390Y0156056D01*
X0068891Y0165647D02*
X0011800Y0165647D01*
X0011800Y0167245D02*
X0067259Y0167245D01*
X0066150Y0168844D02*
X0011800Y0168844D01*
X0011800Y0170442D02*
X0065722Y0170442D01*
X0065799Y0172041D02*
X0011800Y0172041D01*
X0011800Y0173639D02*
X0066396Y0173639D01*
X0067816Y0175238D02*
X0011800Y0175238D01*
X0011800Y0176836D02*
X0067951Y0176836D01*
X0066542Y0178435D02*
X0011800Y0178435D01*
X0011800Y0180033D02*
X0065900Y0180033D01*
X0065900Y0181632D02*
X0011800Y0181632D01*
X0011800Y0183230D02*
X0066404Y0183230D01*
X0067616Y0184829D02*
X0011800Y0184829D01*
X0011800Y0186427D02*
X0068712Y0186427D01*
X0066762Y0188026D02*
X0011800Y0188026D01*
X0011800Y0189624D02*
X0066050Y0189624D01*
X0065900Y0191223D02*
X0011800Y0191223D01*
X0011800Y0192821D02*
X0066234Y0192821D01*
X0067207Y0194420D02*
X0011800Y0194420D01*
X0008568Y0240777D02*
X0091413Y0240777D01*
X0092880Y0242375D02*
X0008568Y0242375D01*
X0008568Y0243974D02*
X0011525Y0243974D01*
X0011607Y0243832D02*
X0011942Y0243497D01*
X0012352Y0243260D01*
X0012810Y0243137D01*
X0015324Y0243137D01*
X0015324Y0247213D01*
X0016676Y0247213D01*
X0016676Y0243137D01*
X0019190Y0243137D01*
X0019648Y0243260D01*
X0020058Y0243497D01*
X0020393Y0243832D01*
X0020630Y0244242D01*
X0020753Y0244700D01*
X0020753Y0247213D01*
X0016676Y0247213D01*
X0016676Y0248566D01*
X0015324Y0248566D01*
X0015324Y0252643D01*
X0012810Y0252643D01*
X0012352Y0252520D01*
X0011942Y0252283D01*
X0011607Y0251948D01*
X0011370Y0251537D01*
X0011247Y0251079D01*
X0011247Y0248566D01*
X0015324Y0248566D01*
X0015324Y0247213D01*
X0011247Y0247213D01*
X0011247Y0244700D01*
X0011370Y0244242D01*
X0011607Y0243832D01*
X0011247Y0245572D02*
X0008568Y0245572D01*
X0008568Y0247171D02*
X0011247Y0247171D01*
X0011247Y0248769D02*
X0008568Y0248769D01*
X0008568Y0250368D02*
X0011247Y0250368D01*
X0011625Y0251966D02*
X0008568Y0251966D01*
X0015324Y0251966D02*
X0016676Y0251966D01*
X0016676Y0252643D02*
X0019190Y0252643D01*
X0019648Y0252520D01*
X0020058Y0252283D01*
X0020393Y0251948D01*
X0020630Y0251537D01*
X0020753Y0251079D01*
X0020753Y0248566D01*
X0016676Y0248566D01*
X0016676Y0252643D01*
X0016676Y0250368D02*
X0015324Y0250368D01*
X0015324Y0248769D02*
X0016676Y0248769D01*
X0016676Y0247171D02*
X0015324Y0247171D01*
X0015324Y0245572D02*
X0016676Y0245572D01*
X0016676Y0243974D02*
X0015324Y0243974D01*
X0020475Y0243974D02*
X0092248Y0243974D01*
X0091064Y0245572D02*
X0020753Y0245572D01*
X0020753Y0247171D02*
X0090563Y0247171D01*
X0090553Y0248769D02*
X0020753Y0248769D01*
X0020753Y0250368D02*
X0091034Y0250368D01*
X0092188Y0251966D02*
X0020375Y0251966D01*
X0063800Y0133676D02*
X0066588Y0133676D01*
X0065926Y0132078D02*
X0063800Y0132078D01*
X0063800Y0130479D02*
X0065900Y0130479D01*
X0066358Y0128881D02*
X0063800Y0128881D01*
X0063800Y0127282D02*
X0067505Y0127282D01*
X0068981Y0125684D02*
X0063800Y0125684D01*
X0063800Y0124085D02*
X0066873Y0124085D01*
X0066096Y0122487D02*
X0063800Y0122487D01*
X0063800Y0120888D02*
X0065900Y0120888D01*
X0066188Y0119290D02*
X0063800Y0119290D01*
X0063800Y0117691D02*
X0067096Y0117691D01*
X0066999Y0114494D02*
X0063800Y0114494D01*
X0063800Y0112896D02*
X0066043Y0112896D01*
X0065700Y0111297D02*
X0063800Y0111297D01*
X0063800Y0109699D02*
X0065850Y0109699D01*
X0066556Y0108100D02*
X0063800Y0108100D01*
X0064458Y0106502D02*
X0068174Y0106502D01*
X0067691Y0104903D02*
X0066057Y0104903D01*
X0063800Y0116093D02*
X0069520Y0116093D01*
X0093400Y0116093D02*
X0109573Y0116093D01*
X0109573Y0117691D02*
X0093400Y0117691D01*
X0093400Y0119290D02*
X0096357Y0119290D01*
X0096370Y0119242D02*
X0096607Y0118832D01*
X0096942Y0118497D01*
X0097352Y0118260D01*
X0097810Y0118137D01*
X0100324Y0118137D01*
X0100324Y0122213D01*
X0101676Y0122213D01*
X0101676Y0118137D01*
X0104190Y0118137D01*
X0104648Y0118260D01*
X0105058Y0118497D01*
X0105393Y0118832D01*
X0105630Y0119242D01*
X0105753Y0119700D01*
X0105753Y0122213D01*
X0101676Y0122213D01*
X0101676Y0123566D01*
X0100324Y0123566D01*
X0100324Y0127643D01*
X0097810Y0127643D01*
X0097352Y0127520D01*
X0096942Y0127283D01*
X0096607Y0126948D01*
X0096370Y0126537D01*
X0096247Y0126079D01*
X0096247Y0123566D01*
X0100324Y0123566D01*
X0100324Y0122213D01*
X0096247Y0122213D01*
X0096247Y0119700D01*
X0096370Y0119242D01*
X0096247Y0120888D02*
X0093400Y0120888D01*
X0093400Y0122487D02*
X0100324Y0122487D01*
X0100324Y0124085D02*
X0101676Y0124085D01*
X0101676Y0123566D02*
X0101676Y0127643D01*
X0104190Y0127643D01*
X0104648Y0127520D01*
X0105058Y0127283D01*
X0105393Y0126948D01*
X0105630Y0126537D01*
X0105753Y0126079D01*
X0105753Y0123566D01*
X0101676Y0123566D01*
X0101676Y0122487D02*
X0109573Y0122487D01*
X0109573Y0124085D02*
X0105753Y0124085D01*
X0105753Y0125684D02*
X0109573Y0125684D01*
X0109573Y0127282D02*
X0105058Y0127282D01*
X0101676Y0127282D02*
X0100324Y0127282D01*
X0100324Y0125684D02*
X0101676Y0125684D01*
X0101676Y0120888D02*
X0100324Y0120888D01*
X0100324Y0119290D02*
X0101676Y0119290D01*
X0105643Y0119290D02*
X0109573Y0119290D01*
X0109573Y0120888D02*
X0105753Y0120888D01*
X0109573Y0128881D02*
X0093400Y0128881D01*
X0093400Y0127282D02*
X0096942Y0127282D01*
X0096247Y0125684D02*
X0093400Y0125684D01*
X0093400Y0124085D02*
X0096247Y0124085D01*
X0093874Y0130479D02*
X0109573Y0130479D01*
X0109573Y0132078D02*
X0095472Y0132078D01*
X0105388Y0133676D02*
X0109573Y0133676D01*
X0109573Y0135275D02*
X0105750Y0135275D01*
X0105750Y0136873D02*
X0109573Y0136873D01*
X0109573Y0138472D02*
X0105750Y0138472D01*
X0105750Y0140070D02*
X0109573Y0140070D01*
X0109573Y0141669D02*
X0105750Y0141669D01*
X0105750Y0143268D02*
X0109573Y0143268D01*
X0109573Y0144866D02*
X0105750Y0144866D01*
X0105750Y0146465D02*
X0109573Y0146465D01*
X0109573Y0148063D02*
X0105648Y0148063D01*
X0101676Y0164048D02*
X0100324Y0164048D01*
X0100324Y0168844D02*
X0101676Y0168844D01*
X0101676Y0170442D02*
X0100324Y0170442D01*
X0100324Y0172041D02*
X0101676Y0172041D01*
X0105146Y0178435D02*
X0109573Y0178435D01*
X0109573Y0180033D02*
X0105750Y0180033D01*
X0105750Y0181632D02*
X0109573Y0181632D01*
X0109573Y0183230D02*
X0105750Y0183230D01*
X0105750Y0184829D02*
X0109573Y0184829D01*
X0109573Y0186427D02*
X0105659Y0186427D01*
X0105750Y0188026D02*
X0109573Y0188026D01*
X0109573Y0189624D02*
X0105750Y0189624D01*
X0105750Y0191223D02*
X0109573Y0191223D01*
X0109573Y0192821D02*
X0105750Y0192821D01*
X0105553Y0196018D02*
X0109573Y0196018D01*
X0109573Y0194420D02*
X0103400Y0194420D01*
X0105553Y0197617D02*
X0109573Y0197617D01*
X0109573Y0199215D02*
X0105553Y0199215D01*
X0105553Y0200814D02*
X0109573Y0200814D01*
X0109573Y0202412D02*
X0105553Y0202412D01*
X0101676Y0208806D02*
X0100324Y0208806D01*
X0100324Y0210405D02*
X0101676Y0210405D01*
X0101676Y0212003D02*
X0100324Y0212003D01*
X0100324Y0213602D02*
X0101676Y0213602D01*
X0101676Y0215201D02*
X0100324Y0215201D01*
X0100324Y0216799D02*
X0101676Y0216799D01*
X0098245Y0223193D02*
X0109573Y0223193D01*
X0109573Y0224792D02*
X0100287Y0224792D01*
X0101070Y0226390D02*
X0109573Y0226390D01*
X0109573Y0227989D02*
X0101300Y0227989D01*
X0101079Y0229587D02*
X0109573Y0229587D01*
X0109573Y0231186D02*
X0100310Y0231186D01*
X0098300Y0232784D02*
X0109573Y0232784D01*
X0109573Y0234383D02*
X0099878Y0234383D01*
X0100900Y0235981D02*
X0109573Y0235981D01*
X0109573Y0237580D02*
X0101300Y0237580D01*
X0101249Y0239178D02*
X0109573Y0239178D01*
X0109573Y0240777D02*
X0100587Y0240777D01*
X0099120Y0242375D02*
X0109573Y0242375D01*
X0109573Y0243974D02*
X0099752Y0243974D01*
X0100936Y0245572D02*
X0109573Y0245572D01*
X0109573Y0247171D02*
X0101437Y0247171D01*
X0101447Y0248769D02*
X0109573Y0248769D01*
X0109573Y0250368D02*
X0100966Y0250368D01*
X0099812Y0251966D02*
X0109573Y0251966D01*
D12*
X0071000Y0191000D03*
X0071000Y0181000D03*
X0071000Y0171000D03*
X0071000Y0161000D03*
X0071000Y0131000D03*
X0071000Y0121000D03*
X0071000Y0111000D03*
X0071000Y0101000D03*
D13*
X0066500Y0071000D03*
X0061500Y0061000D03*
X0056500Y0071000D03*
X0051500Y0061000D03*
X0046500Y0071000D03*
X0041500Y0061000D03*
X0071500Y0061000D03*
X0076500Y0071000D03*
D14*
X0091000Y0070488D03*
X0093500Y0024000D03*
X0027000Y0070488D03*
X0024500Y0024000D03*
D15*
X0096000Y0228000D03*
X0096000Y0238000D03*
X0096000Y0248000D03*
D16*
X0101000Y0212890D03*
X0101000Y0199110D03*
X0101000Y0167890D03*
X0101000Y0154110D03*
X0101000Y0122890D03*
X0101000Y0109110D03*
X0016000Y0234110D03*
X0016000Y0247890D03*
D17*
X0016000Y0224740D03*
X0016000Y0217260D03*
X0101000Y0189740D03*
X0101000Y0182260D03*
X0101000Y0144740D03*
X0101000Y0137260D03*
X0101000Y0099740D03*
X0101000Y0092260D03*
D18*
X0094740Y0086000D01*
X0091000Y0086000D01*
X0101000Y0099740D02*
X0101000Y0109110D01*
X0071000Y0101000D02*
X0066000Y0101000D01*
X0061000Y0106000D01*
X0061000Y0156000D01*
X0066000Y0161000D01*
X0071000Y0161000D01*
X0085260Y0217260D02*
X0096000Y0228000D01*
X0085260Y0217260D02*
X0016000Y0217260D01*
X0009000Y0210260D01*
X0009000Y0098000D01*
X0021000Y0086000D01*
X0026000Y0086000D01*
X0038000Y0074000D01*
X0038000Y0067000D01*
X0041500Y0063500D01*
X0041500Y0061000D01*
X0046500Y0071000D02*
X0046500Y0076500D01*
X0071000Y0101000D01*
X0016000Y0224740D02*
X0016000Y0234110D01*
D19*
X0091000Y0086000D03*
D20*
X0068000Y0043000D03*
X0049000Y0027000D03*
X0043000Y0091000D03*
X0037000Y0146000D03*
X0056000Y0206000D03*
X0046000Y0231000D03*
X0046000Y0251000D03*
M02*
