G75*
%MOIN*%
%OFA0B0*%
%FSLAX25Y25*%
%IPPOS*%
%LPD*%
%AMOC8*
5,1,8,0,0,1.08239X$1,22.5*
%
%ADD10C,0.00000*%
%ADD11C,0.01600*%
%ADD12C,0.00500*%
%ADD13C,0.00600*%
%ADD14C,0.00800*%
%ADD15C,0.00700*%
%ADD16R,0.01280X0.01673*%
%ADD17R,0.01378X0.01378*%
%ADD18C,0.00400*%
%ADD19C,0.00300*%
%ADD20C,0.00200*%
D10*
X0001000Y0001000D02*
X0117142Y0001000D01*
X0117142Y0260843D01*
X0001000Y0260843D01*
X0001000Y0001000D01*
X0030100Y0036000D02*
X0030102Y0036160D01*
X0030108Y0036319D01*
X0030118Y0036478D01*
X0030132Y0036637D01*
X0030150Y0036796D01*
X0030171Y0036954D01*
X0030197Y0037111D01*
X0030227Y0037268D01*
X0030260Y0037424D01*
X0030298Y0037579D01*
X0030339Y0037733D01*
X0030384Y0037886D01*
X0030433Y0038038D01*
X0030486Y0038189D01*
X0030542Y0038338D01*
X0030603Y0038486D01*
X0030666Y0038632D01*
X0030734Y0038777D01*
X0030805Y0038920D01*
X0030879Y0039061D01*
X0030957Y0039200D01*
X0031039Y0039337D01*
X0031124Y0039472D01*
X0031212Y0039605D01*
X0031304Y0039736D01*
X0031398Y0039864D01*
X0031496Y0039990D01*
X0031597Y0040114D01*
X0031701Y0040235D01*
X0031808Y0040353D01*
X0031918Y0040469D01*
X0032031Y0040582D01*
X0032147Y0040692D01*
X0032265Y0040799D01*
X0032386Y0040903D01*
X0032510Y0041004D01*
X0032636Y0041102D01*
X0032764Y0041196D01*
X0032895Y0041288D01*
X0033028Y0041376D01*
X0033163Y0041461D01*
X0033300Y0041543D01*
X0033439Y0041621D01*
X0033580Y0041695D01*
X0033723Y0041766D01*
X0033868Y0041834D01*
X0034014Y0041897D01*
X0034162Y0041958D01*
X0034311Y0042014D01*
X0034462Y0042067D01*
X0034614Y0042116D01*
X0034767Y0042161D01*
X0034921Y0042202D01*
X0035076Y0042240D01*
X0035232Y0042273D01*
X0035389Y0042303D01*
X0035546Y0042329D01*
X0035704Y0042350D01*
X0035863Y0042368D01*
X0036022Y0042382D01*
X0036181Y0042392D01*
X0036340Y0042398D01*
X0036500Y0042400D01*
X0036660Y0042398D01*
X0036819Y0042392D01*
X0036978Y0042382D01*
X0037137Y0042368D01*
X0037296Y0042350D01*
X0037454Y0042329D01*
X0037611Y0042303D01*
X0037768Y0042273D01*
X0037924Y0042240D01*
X0038079Y0042202D01*
X0038233Y0042161D01*
X0038386Y0042116D01*
X0038538Y0042067D01*
X0038689Y0042014D01*
X0038838Y0041958D01*
X0038986Y0041897D01*
X0039132Y0041834D01*
X0039277Y0041766D01*
X0039420Y0041695D01*
X0039561Y0041621D01*
X0039700Y0041543D01*
X0039837Y0041461D01*
X0039972Y0041376D01*
X0040105Y0041288D01*
X0040236Y0041196D01*
X0040364Y0041102D01*
X0040490Y0041004D01*
X0040614Y0040903D01*
X0040735Y0040799D01*
X0040853Y0040692D01*
X0040969Y0040582D01*
X0041082Y0040469D01*
X0041192Y0040353D01*
X0041299Y0040235D01*
X0041403Y0040114D01*
X0041504Y0039990D01*
X0041602Y0039864D01*
X0041696Y0039736D01*
X0041788Y0039605D01*
X0041876Y0039472D01*
X0041961Y0039337D01*
X0042043Y0039200D01*
X0042121Y0039061D01*
X0042195Y0038920D01*
X0042266Y0038777D01*
X0042334Y0038632D01*
X0042397Y0038486D01*
X0042458Y0038338D01*
X0042514Y0038189D01*
X0042567Y0038038D01*
X0042616Y0037886D01*
X0042661Y0037733D01*
X0042702Y0037579D01*
X0042740Y0037424D01*
X0042773Y0037268D01*
X0042803Y0037111D01*
X0042829Y0036954D01*
X0042850Y0036796D01*
X0042868Y0036637D01*
X0042882Y0036478D01*
X0042892Y0036319D01*
X0042898Y0036160D01*
X0042900Y0036000D01*
X0042898Y0035840D01*
X0042892Y0035681D01*
X0042882Y0035522D01*
X0042868Y0035363D01*
X0042850Y0035204D01*
X0042829Y0035046D01*
X0042803Y0034889D01*
X0042773Y0034732D01*
X0042740Y0034576D01*
X0042702Y0034421D01*
X0042661Y0034267D01*
X0042616Y0034114D01*
X0042567Y0033962D01*
X0042514Y0033811D01*
X0042458Y0033662D01*
X0042397Y0033514D01*
X0042334Y0033368D01*
X0042266Y0033223D01*
X0042195Y0033080D01*
X0042121Y0032939D01*
X0042043Y0032800D01*
X0041961Y0032663D01*
X0041876Y0032528D01*
X0041788Y0032395D01*
X0041696Y0032264D01*
X0041602Y0032136D01*
X0041504Y0032010D01*
X0041403Y0031886D01*
X0041299Y0031765D01*
X0041192Y0031647D01*
X0041082Y0031531D01*
X0040969Y0031418D01*
X0040853Y0031308D01*
X0040735Y0031201D01*
X0040614Y0031097D01*
X0040490Y0030996D01*
X0040364Y0030898D01*
X0040236Y0030804D01*
X0040105Y0030712D01*
X0039972Y0030624D01*
X0039837Y0030539D01*
X0039700Y0030457D01*
X0039561Y0030379D01*
X0039420Y0030305D01*
X0039277Y0030234D01*
X0039132Y0030166D01*
X0038986Y0030103D01*
X0038838Y0030042D01*
X0038689Y0029986D01*
X0038538Y0029933D01*
X0038386Y0029884D01*
X0038233Y0029839D01*
X0038079Y0029798D01*
X0037924Y0029760D01*
X0037768Y0029727D01*
X0037611Y0029697D01*
X0037454Y0029671D01*
X0037296Y0029650D01*
X0037137Y0029632D01*
X0036978Y0029618D01*
X0036819Y0029608D01*
X0036660Y0029602D01*
X0036500Y0029600D01*
X0036340Y0029602D01*
X0036181Y0029608D01*
X0036022Y0029618D01*
X0035863Y0029632D01*
X0035704Y0029650D01*
X0035546Y0029671D01*
X0035389Y0029697D01*
X0035232Y0029727D01*
X0035076Y0029760D01*
X0034921Y0029798D01*
X0034767Y0029839D01*
X0034614Y0029884D01*
X0034462Y0029933D01*
X0034311Y0029986D01*
X0034162Y0030042D01*
X0034014Y0030103D01*
X0033868Y0030166D01*
X0033723Y0030234D01*
X0033580Y0030305D01*
X0033439Y0030379D01*
X0033300Y0030457D01*
X0033163Y0030539D01*
X0033028Y0030624D01*
X0032895Y0030712D01*
X0032764Y0030804D01*
X0032636Y0030898D01*
X0032510Y0030996D01*
X0032386Y0031097D01*
X0032265Y0031201D01*
X0032147Y0031308D01*
X0032031Y0031418D01*
X0031918Y0031531D01*
X0031808Y0031647D01*
X0031701Y0031765D01*
X0031597Y0031886D01*
X0031496Y0032010D01*
X0031398Y0032136D01*
X0031304Y0032264D01*
X0031212Y0032395D01*
X0031124Y0032528D01*
X0031039Y0032663D01*
X0030957Y0032800D01*
X0030879Y0032939D01*
X0030805Y0033080D01*
X0030734Y0033223D01*
X0030666Y0033368D01*
X0030603Y0033514D01*
X0030542Y0033662D01*
X0030486Y0033811D01*
X0030433Y0033962D01*
X0030384Y0034114D01*
X0030339Y0034267D01*
X0030298Y0034421D01*
X0030260Y0034576D01*
X0030227Y0034732D01*
X0030197Y0034889D01*
X0030171Y0035046D01*
X0030150Y0035204D01*
X0030132Y0035363D01*
X0030118Y0035522D01*
X0030108Y0035681D01*
X0030102Y0035840D01*
X0030100Y0036000D01*
X0075100Y0036000D02*
X0075102Y0036160D01*
X0075108Y0036319D01*
X0075118Y0036478D01*
X0075132Y0036637D01*
X0075150Y0036796D01*
X0075171Y0036954D01*
X0075197Y0037111D01*
X0075227Y0037268D01*
X0075260Y0037424D01*
X0075298Y0037579D01*
X0075339Y0037733D01*
X0075384Y0037886D01*
X0075433Y0038038D01*
X0075486Y0038189D01*
X0075542Y0038338D01*
X0075603Y0038486D01*
X0075666Y0038632D01*
X0075734Y0038777D01*
X0075805Y0038920D01*
X0075879Y0039061D01*
X0075957Y0039200D01*
X0076039Y0039337D01*
X0076124Y0039472D01*
X0076212Y0039605D01*
X0076304Y0039736D01*
X0076398Y0039864D01*
X0076496Y0039990D01*
X0076597Y0040114D01*
X0076701Y0040235D01*
X0076808Y0040353D01*
X0076918Y0040469D01*
X0077031Y0040582D01*
X0077147Y0040692D01*
X0077265Y0040799D01*
X0077386Y0040903D01*
X0077510Y0041004D01*
X0077636Y0041102D01*
X0077764Y0041196D01*
X0077895Y0041288D01*
X0078028Y0041376D01*
X0078163Y0041461D01*
X0078300Y0041543D01*
X0078439Y0041621D01*
X0078580Y0041695D01*
X0078723Y0041766D01*
X0078868Y0041834D01*
X0079014Y0041897D01*
X0079162Y0041958D01*
X0079311Y0042014D01*
X0079462Y0042067D01*
X0079614Y0042116D01*
X0079767Y0042161D01*
X0079921Y0042202D01*
X0080076Y0042240D01*
X0080232Y0042273D01*
X0080389Y0042303D01*
X0080546Y0042329D01*
X0080704Y0042350D01*
X0080863Y0042368D01*
X0081022Y0042382D01*
X0081181Y0042392D01*
X0081340Y0042398D01*
X0081500Y0042400D01*
X0081660Y0042398D01*
X0081819Y0042392D01*
X0081978Y0042382D01*
X0082137Y0042368D01*
X0082296Y0042350D01*
X0082454Y0042329D01*
X0082611Y0042303D01*
X0082768Y0042273D01*
X0082924Y0042240D01*
X0083079Y0042202D01*
X0083233Y0042161D01*
X0083386Y0042116D01*
X0083538Y0042067D01*
X0083689Y0042014D01*
X0083838Y0041958D01*
X0083986Y0041897D01*
X0084132Y0041834D01*
X0084277Y0041766D01*
X0084420Y0041695D01*
X0084561Y0041621D01*
X0084700Y0041543D01*
X0084837Y0041461D01*
X0084972Y0041376D01*
X0085105Y0041288D01*
X0085236Y0041196D01*
X0085364Y0041102D01*
X0085490Y0041004D01*
X0085614Y0040903D01*
X0085735Y0040799D01*
X0085853Y0040692D01*
X0085969Y0040582D01*
X0086082Y0040469D01*
X0086192Y0040353D01*
X0086299Y0040235D01*
X0086403Y0040114D01*
X0086504Y0039990D01*
X0086602Y0039864D01*
X0086696Y0039736D01*
X0086788Y0039605D01*
X0086876Y0039472D01*
X0086961Y0039337D01*
X0087043Y0039200D01*
X0087121Y0039061D01*
X0087195Y0038920D01*
X0087266Y0038777D01*
X0087334Y0038632D01*
X0087397Y0038486D01*
X0087458Y0038338D01*
X0087514Y0038189D01*
X0087567Y0038038D01*
X0087616Y0037886D01*
X0087661Y0037733D01*
X0087702Y0037579D01*
X0087740Y0037424D01*
X0087773Y0037268D01*
X0087803Y0037111D01*
X0087829Y0036954D01*
X0087850Y0036796D01*
X0087868Y0036637D01*
X0087882Y0036478D01*
X0087892Y0036319D01*
X0087898Y0036160D01*
X0087900Y0036000D01*
X0087898Y0035840D01*
X0087892Y0035681D01*
X0087882Y0035522D01*
X0087868Y0035363D01*
X0087850Y0035204D01*
X0087829Y0035046D01*
X0087803Y0034889D01*
X0087773Y0034732D01*
X0087740Y0034576D01*
X0087702Y0034421D01*
X0087661Y0034267D01*
X0087616Y0034114D01*
X0087567Y0033962D01*
X0087514Y0033811D01*
X0087458Y0033662D01*
X0087397Y0033514D01*
X0087334Y0033368D01*
X0087266Y0033223D01*
X0087195Y0033080D01*
X0087121Y0032939D01*
X0087043Y0032800D01*
X0086961Y0032663D01*
X0086876Y0032528D01*
X0086788Y0032395D01*
X0086696Y0032264D01*
X0086602Y0032136D01*
X0086504Y0032010D01*
X0086403Y0031886D01*
X0086299Y0031765D01*
X0086192Y0031647D01*
X0086082Y0031531D01*
X0085969Y0031418D01*
X0085853Y0031308D01*
X0085735Y0031201D01*
X0085614Y0031097D01*
X0085490Y0030996D01*
X0085364Y0030898D01*
X0085236Y0030804D01*
X0085105Y0030712D01*
X0084972Y0030624D01*
X0084837Y0030539D01*
X0084700Y0030457D01*
X0084561Y0030379D01*
X0084420Y0030305D01*
X0084277Y0030234D01*
X0084132Y0030166D01*
X0083986Y0030103D01*
X0083838Y0030042D01*
X0083689Y0029986D01*
X0083538Y0029933D01*
X0083386Y0029884D01*
X0083233Y0029839D01*
X0083079Y0029798D01*
X0082924Y0029760D01*
X0082768Y0029727D01*
X0082611Y0029697D01*
X0082454Y0029671D01*
X0082296Y0029650D01*
X0082137Y0029632D01*
X0081978Y0029618D01*
X0081819Y0029608D01*
X0081660Y0029602D01*
X0081500Y0029600D01*
X0081340Y0029602D01*
X0081181Y0029608D01*
X0081022Y0029618D01*
X0080863Y0029632D01*
X0080704Y0029650D01*
X0080546Y0029671D01*
X0080389Y0029697D01*
X0080232Y0029727D01*
X0080076Y0029760D01*
X0079921Y0029798D01*
X0079767Y0029839D01*
X0079614Y0029884D01*
X0079462Y0029933D01*
X0079311Y0029986D01*
X0079162Y0030042D01*
X0079014Y0030103D01*
X0078868Y0030166D01*
X0078723Y0030234D01*
X0078580Y0030305D01*
X0078439Y0030379D01*
X0078300Y0030457D01*
X0078163Y0030539D01*
X0078028Y0030624D01*
X0077895Y0030712D01*
X0077764Y0030804D01*
X0077636Y0030898D01*
X0077510Y0030996D01*
X0077386Y0031097D01*
X0077265Y0031201D01*
X0077147Y0031308D01*
X0077031Y0031418D01*
X0076918Y0031531D01*
X0076808Y0031647D01*
X0076701Y0031765D01*
X0076597Y0031886D01*
X0076496Y0032010D01*
X0076398Y0032136D01*
X0076304Y0032264D01*
X0076212Y0032395D01*
X0076124Y0032528D01*
X0076039Y0032663D01*
X0075957Y0032800D01*
X0075879Y0032939D01*
X0075805Y0033080D01*
X0075734Y0033223D01*
X0075666Y0033368D01*
X0075603Y0033514D01*
X0075542Y0033662D01*
X0075486Y0033811D01*
X0075433Y0033962D01*
X0075384Y0034114D01*
X0075339Y0034267D01*
X0075298Y0034421D01*
X0075260Y0034576D01*
X0075227Y0034732D01*
X0075197Y0034889D01*
X0075171Y0035046D01*
X0075150Y0035204D01*
X0075132Y0035363D01*
X0075118Y0035522D01*
X0075108Y0035681D01*
X0075102Y0035840D01*
X0075100Y0036000D01*
D11*
X0104362Y0002969D02*
X0104362Y0081709D01*
X0115173Y0081709D01*
X0115173Y0258874D01*
X0002969Y0258874D01*
X0002969Y0081709D01*
X0013780Y0081709D01*
X0013780Y0002969D01*
X0104362Y0002969D01*
D12*
X0075213Y0094661D02*
X0024031Y0094661D01*
X0024031Y0137969D01*
X0075213Y0137969D01*
X0075213Y0094661D01*
X0075213Y0154661D02*
X0024031Y0154661D01*
X0024031Y0197969D01*
X0075213Y0197969D01*
X0075213Y0154661D01*
X0086848Y0236040D02*
X0088433Y0236040D01*
X0088750Y0236357D01*
X0088750Y0236991D01*
X0088433Y0237308D01*
X0086848Y0237308D01*
X0087482Y0238250D02*
X0086848Y0238884D01*
X0088750Y0238884D01*
X0088750Y0238250D02*
X0088750Y0239518D01*
X0028929Y0166000D02*
X0028931Y0166174D01*
X0028938Y0166347D01*
X0028948Y0166520D01*
X0028963Y0166693D01*
X0028982Y0166866D01*
X0029006Y0167038D01*
X0029033Y0167209D01*
X0029065Y0167379D01*
X0029101Y0167549D01*
X0029141Y0167718D01*
X0029185Y0167886D01*
X0029233Y0168053D01*
X0029286Y0168218D01*
X0029342Y0168382D01*
X0029403Y0168545D01*
X0029467Y0168706D01*
X0029536Y0168865D01*
X0029608Y0169023D01*
X0029684Y0169179D01*
X0029764Y0169333D01*
X0029848Y0169485D01*
X0029935Y0169635D01*
X0030026Y0169783D01*
X0030121Y0169928D01*
X0030219Y0170072D01*
X0030321Y0170212D01*
X0030426Y0170350D01*
X0030534Y0170486D01*
X0030646Y0170619D01*
X0030761Y0170749D01*
X0030879Y0170876D01*
X0031000Y0171000D01*
X0031124Y0171121D01*
X0031251Y0171239D01*
X0031381Y0171354D01*
X0031514Y0171466D01*
X0031650Y0171574D01*
X0031788Y0171679D01*
X0031928Y0171781D01*
X0032072Y0171879D01*
X0032217Y0171974D01*
X0032365Y0172065D01*
X0032515Y0172152D01*
X0032667Y0172236D01*
X0032821Y0172316D01*
X0032977Y0172392D01*
X0033135Y0172464D01*
X0033294Y0172533D01*
X0033455Y0172597D01*
X0033618Y0172658D01*
X0033782Y0172714D01*
X0033947Y0172767D01*
X0034114Y0172815D01*
X0034282Y0172859D01*
X0034451Y0172899D01*
X0034621Y0172935D01*
X0034791Y0172967D01*
X0034962Y0172994D01*
X0035134Y0173018D01*
X0035307Y0173037D01*
X0035480Y0173052D01*
X0035653Y0173062D01*
X0035826Y0173069D01*
X0036000Y0173071D01*
X0036174Y0173069D01*
X0036347Y0173062D01*
X0036520Y0173052D01*
X0036693Y0173037D01*
X0036866Y0173018D01*
X0037038Y0172994D01*
X0037209Y0172967D01*
X0037379Y0172935D01*
X0037549Y0172899D01*
X0037718Y0172859D01*
X0037886Y0172815D01*
X0038053Y0172767D01*
X0038218Y0172714D01*
X0038382Y0172658D01*
X0038545Y0172597D01*
X0038706Y0172533D01*
X0038865Y0172464D01*
X0039023Y0172392D01*
X0039179Y0172316D01*
X0039333Y0172236D01*
X0039485Y0172152D01*
X0039635Y0172065D01*
X0039783Y0171974D01*
X0039928Y0171879D01*
X0040072Y0171781D01*
X0040212Y0171679D01*
X0040350Y0171574D01*
X0040486Y0171466D01*
X0040619Y0171354D01*
X0040749Y0171239D01*
X0040876Y0171121D01*
X0041000Y0171000D01*
X0041121Y0170876D01*
X0041239Y0170749D01*
X0041354Y0170619D01*
X0041466Y0170486D01*
X0041574Y0170350D01*
X0041679Y0170212D01*
X0041781Y0170072D01*
X0041879Y0169928D01*
X0041974Y0169783D01*
X0042065Y0169635D01*
X0042152Y0169485D01*
X0042236Y0169333D01*
X0042316Y0169179D01*
X0042392Y0169023D01*
X0042464Y0168865D01*
X0042533Y0168706D01*
X0042597Y0168545D01*
X0042658Y0168382D01*
X0042714Y0168218D01*
X0042767Y0168053D01*
X0042815Y0167886D01*
X0042859Y0167718D01*
X0042899Y0167549D01*
X0042935Y0167379D01*
X0042967Y0167209D01*
X0042994Y0167038D01*
X0043018Y0166866D01*
X0043037Y0166693D01*
X0043052Y0166520D01*
X0043062Y0166347D01*
X0043069Y0166174D01*
X0043071Y0166000D01*
X0043069Y0165826D01*
X0043062Y0165653D01*
X0043052Y0165480D01*
X0043037Y0165307D01*
X0043018Y0165134D01*
X0042994Y0164962D01*
X0042967Y0164791D01*
X0042935Y0164621D01*
X0042899Y0164451D01*
X0042859Y0164282D01*
X0042815Y0164114D01*
X0042767Y0163947D01*
X0042714Y0163782D01*
X0042658Y0163618D01*
X0042597Y0163455D01*
X0042533Y0163294D01*
X0042464Y0163135D01*
X0042392Y0162977D01*
X0042316Y0162821D01*
X0042236Y0162667D01*
X0042152Y0162515D01*
X0042065Y0162365D01*
X0041974Y0162217D01*
X0041879Y0162072D01*
X0041781Y0161928D01*
X0041679Y0161788D01*
X0041574Y0161650D01*
X0041466Y0161514D01*
X0041354Y0161381D01*
X0041239Y0161251D01*
X0041121Y0161124D01*
X0041000Y0161000D01*
X0040876Y0160879D01*
X0040749Y0160761D01*
X0040619Y0160646D01*
X0040486Y0160534D01*
X0040350Y0160426D01*
X0040212Y0160321D01*
X0040072Y0160219D01*
X0039928Y0160121D01*
X0039783Y0160026D01*
X0039635Y0159935D01*
X0039485Y0159848D01*
X0039333Y0159764D01*
X0039179Y0159684D01*
X0039023Y0159608D01*
X0038865Y0159536D01*
X0038706Y0159467D01*
X0038545Y0159403D01*
X0038382Y0159342D01*
X0038218Y0159286D01*
X0038053Y0159233D01*
X0037886Y0159185D01*
X0037718Y0159141D01*
X0037549Y0159101D01*
X0037379Y0159065D01*
X0037209Y0159033D01*
X0037038Y0159006D01*
X0036866Y0158982D01*
X0036693Y0158963D01*
X0036520Y0158948D01*
X0036347Y0158938D01*
X0036174Y0158931D01*
X0036000Y0158929D01*
X0035826Y0158931D01*
X0035653Y0158938D01*
X0035480Y0158948D01*
X0035307Y0158963D01*
X0035134Y0158982D01*
X0034962Y0159006D01*
X0034791Y0159033D01*
X0034621Y0159065D01*
X0034451Y0159101D01*
X0034282Y0159141D01*
X0034114Y0159185D01*
X0033947Y0159233D01*
X0033782Y0159286D01*
X0033618Y0159342D01*
X0033455Y0159403D01*
X0033294Y0159467D01*
X0033135Y0159536D01*
X0032977Y0159608D01*
X0032821Y0159684D01*
X0032667Y0159764D01*
X0032515Y0159848D01*
X0032365Y0159935D01*
X0032217Y0160026D01*
X0032072Y0160121D01*
X0031928Y0160219D01*
X0031788Y0160321D01*
X0031650Y0160426D01*
X0031514Y0160534D01*
X0031381Y0160646D01*
X0031251Y0160761D01*
X0031124Y0160879D01*
X0031000Y0161000D01*
X0030879Y0161124D01*
X0030761Y0161251D01*
X0030646Y0161381D01*
X0030534Y0161514D01*
X0030426Y0161650D01*
X0030321Y0161788D01*
X0030219Y0161928D01*
X0030121Y0162072D01*
X0030026Y0162217D01*
X0029935Y0162365D01*
X0029848Y0162515D01*
X0029764Y0162667D01*
X0029684Y0162821D01*
X0029608Y0162977D01*
X0029536Y0163135D01*
X0029467Y0163294D01*
X0029403Y0163455D01*
X0029342Y0163618D01*
X0029286Y0163782D01*
X0029233Y0163947D01*
X0029185Y0164114D01*
X0029141Y0164282D01*
X0029101Y0164451D01*
X0029065Y0164621D01*
X0029033Y0164791D01*
X0029006Y0164962D01*
X0028982Y0165134D01*
X0028963Y0165307D01*
X0028948Y0165480D01*
X0028938Y0165653D01*
X0028931Y0165826D01*
X0028929Y0166000D01*
X0028929Y0106000D02*
X0028931Y0106174D01*
X0028938Y0106347D01*
X0028948Y0106520D01*
X0028963Y0106693D01*
X0028982Y0106866D01*
X0029006Y0107038D01*
X0029033Y0107209D01*
X0029065Y0107379D01*
X0029101Y0107549D01*
X0029141Y0107718D01*
X0029185Y0107886D01*
X0029233Y0108053D01*
X0029286Y0108218D01*
X0029342Y0108382D01*
X0029403Y0108545D01*
X0029467Y0108706D01*
X0029536Y0108865D01*
X0029608Y0109023D01*
X0029684Y0109179D01*
X0029764Y0109333D01*
X0029848Y0109485D01*
X0029935Y0109635D01*
X0030026Y0109783D01*
X0030121Y0109928D01*
X0030219Y0110072D01*
X0030321Y0110212D01*
X0030426Y0110350D01*
X0030534Y0110486D01*
X0030646Y0110619D01*
X0030761Y0110749D01*
X0030879Y0110876D01*
X0031000Y0111000D01*
X0031124Y0111121D01*
X0031251Y0111239D01*
X0031381Y0111354D01*
X0031514Y0111466D01*
X0031650Y0111574D01*
X0031788Y0111679D01*
X0031928Y0111781D01*
X0032072Y0111879D01*
X0032217Y0111974D01*
X0032365Y0112065D01*
X0032515Y0112152D01*
X0032667Y0112236D01*
X0032821Y0112316D01*
X0032977Y0112392D01*
X0033135Y0112464D01*
X0033294Y0112533D01*
X0033455Y0112597D01*
X0033618Y0112658D01*
X0033782Y0112714D01*
X0033947Y0112767D01*
X0034114Y0112815D01*
X0034282Y0112859D01*
X0034451Y0112899D01*
X0034621Y0112935D01*
X0034791Y0112967D01*
X0034962Y0112994D01*
X0035134Y0113018D01*
X0035307Y0113037D01*
X0035480Y0113052D01*
X0035653Y0113062D01*
X0035826Y0113069D01*
X0036000Y0113071D01*
X0036174Y0113069D01*
X0036347Y0113062D01*
X0036520Y0113052D01*
X0036693Y0113037D01*
X0036866Y0113018D01*
X0037038Y0112994D01*
X0037209Y0112967D01*
X0037379Y0112935D01*
X0037549Y0112899D01*
X0037718Y0112859D01*
X0037886Y0112815D01*
X0038053Y0112767D01*
X0038218Y0112714D01*
X0038382Y0112658D01*
X0038545Y0112597D01*
X0038706Y0112533D01*
X0038865Y0112464D01*
X0039023Y0112392D01*
X0039179Y0112316D01*
X0039333Y0112236D01*
X0039485Y0112152D01*
X0039635Y0112065D01*
X0039783Y0111974D01*
X0039928Y0111879D01*
X0040072Y0111781D01*
X0040212Y0111679D01*
X0040350Y0111574D01*
X0040486Y0111466D01*
X0040619Y0111354D01*
X0040749Y0111239D01*
X0040876Y0111121D01*
X0041000Y0111000D01*
X0041121Y0110876D01*
X0041239Y0110749D01*
X0041354Y0110619D01*
X0041466Y0110486D01*
X0041574Y0110350D01*
X0041679Y0110212D01*
X0041781Y0110072D01*
X0041879Y0109928D01*
X0041974Y0109783D01*
X0042065Y0109635D01*
X0042152Y0109485D01*
X0042236Y0109333D01*
X0042316Y0109179D01*
X0042392Y0109023D01*
X0042464Y0108865D01*
X0042533Y0108706D01*
X0042597Y0108545D01*
X0042658Y0108382D01*
X0042714Y0108218D01*
X0042767Y0108053D01*
X0042815Y0107886D01*
X0042859Y0107718D01*
X0042899Y0107549D01*
X0042935Y0107379D01*
X0042967Y0107209D01*
X0042994Y0107038D01*
X0043018Y0106866D01*
X0043037Y0106693D01*
X0043052Y0106520D01*
X0043062Y0106347D01*
X0043069Y0106174D01*
X0043071Y0106000D01*
X0043069Y0105826D01*
X0043062Y0105653D01*
X0043052Y0105480D01*
X0043037Y0105307D01*
X0043018Y0105134D01*
X0042994Y0104962D01*
X0042967Y0104791D01*
X0042935Y0104621D01*
X0042899Y0104451D01*
X0042859Y0104282D01*
X0042815Y0104114D01*
X0042767Y0103947D01*
X0042714Y0103782D01*
X0042658Y0103618D01*
X0042597Y0103455D01*
X0042533Y0103294D01*
X0042464Y0103135D01*
X0042392Y0102977D01*
X0042316Y0102821D01*
X0042236Y0102667D01*
X0042152Y0102515D01*
X0042065Y0102365D01*
X0041974Y0102217D01*
X0041879Y0102072D01*
X0041781Y0101928D01*
X0041679Y0101788D01*
X0041574Y0101650D01*
X0041466Y0101514D01*
X0041354Y0101381D01*
X0041239Y0101251D01*
X0041121Y0101124D01*
X0041000Y0101000D01*
X0040876Y0100879D01*
X0040749Y0100761D01*
X0040619Y0100646D01*
X0040486Y0100534D01*
X0040350Y0100426D01*
X0040212Y0100321D01*
X0040072Y0100219D01*
X0039928Y0100121D01*
X0039783Y0100026D01*
X0039635Y0099935D01*
X0039485Y0099848D01*
X0039333Y0099764D01*
X0039179Y0099684D01*
X0039023Y0099608D01*
X0038865Y0099536D01*
X0038706Y0099467D01*
X0038545Y0099403D01*
X0038382Y0099342D01*
X0038218Y0099286D01*
X0038053Y0099233D01*
X0037886Y0099185D01*
X0037718Y0099141D01*
X0037549Y0099101D01*
X0037379Y0099065D01*
X0037209Y0099033D01*
X0037038Y0099006D01*
X0036866Y0098982D01*
X0036693Y0098963D01*
X0036520Y0098948D01*
X0036347Y0098938D01*
X0036174Y0098931D01*
X0036000Y0098929D01*
X0035826Y0098931D01*
X0035653Y0098938D01*
X0035480Y0098948D01*
X0035307Y0098963D01*
X0035134Y0098982D01*
X0034962Y0099006D01*
X0034791Y0099033D01*
X0034621Y0099065D01*
X0034451Y0099101D01*
X0034282Y0099141D01*
X0034114Y0099185D01*
X0033947Y0099233D01*
X0033782Y0099286D01*
X0033618Y0099342D01*
X0033455Y0099403D01*
X0033294Y0099467D01*
X0033135Y0099536D01*
X0032977Y0099608D01*
X0032821Y0099684D01*
X0032667Y0099764D01*
X0032515Y0099848D01*
X0032365Y0099935D01*
X0032217Y0100026D01*
X0032072Y0100121D01*
X0031928Y0100219D01*
X0031788Y0100321D01*
X0031650Y0100426D01*
X0031514Y0100534D01*
X0031381Y0100646D01*
X0031251Y0100761D01*
X0031124Y0100879D01*
X0031000Y0101000D01*
X0030879Y0101124D01*
X0030761Y0101251D01*
X0030646Y0101381D01*
X0030534Y0101514D01*
X0030426Y0101650D01*
X0030321Y0101788D01*
X0030219Y0101928D01*
X0030121Y0102072D01*
X0030026Y0102217D01*
X0029935Y0102365D01*
X0029848Y0102515D01*
X0029764Y0102667D01*
X0029684Y0102821D01*
X0029608Y0102977D01*
X0029536Y0103135D01*
X0029467Y0103294D01*
X0029403Y0103455D01*
X0029342Y0103618D01*
X0029286Y0103782D01*
X0029233Y0103947D01*
X0029185Y0104114D01*
X0029141Y0104282D01*
X0029101Y0104451D01*
X0029065Y0104621D01*
X0029033Y0104791D01*
X0029006Y0104962D01*
X0028982Y0105134D01*
X0028963Y0105307D01*
X0028948Y0105480D01*
X0028938Y0105653D01*
X0028931Y0105826D01*
X0028929Y0106000D01*
D13*
X0046296Y0105878D02*
X0046296Y0103676D01*
X0050700Y0103676D01*
X0050700Y0105878D01*
X0049966Y0106612D01*
X0049232Y0106612D01*
X0048498Y0105878D01*
X0048498Y0103676D01*
X0048498Y0105878D02*
X0047764Y0106612D01*
X0047030Y0106612D01*
X0046296Y0105878D01*
X0046296Y0108280D02*
X0047764Y0109748D01*
X0046296Y0111216D01*
X0050700Y0111216D01*
X0050700Y0112884D02*
X0046296Y0112884D01*
X0046296Y0115086D01*
X0047030Y0115820D01*
X0048498Y0115820D01*
X0049232Y0115086D01*
X0049232Y0112884D01*
X0047764Y0117488D02*
X0046296Y0118956D01*
X0050700Y0118956D01*
X0050700Y0117488D02*
X0050700Y0120424D01*
X0049966Y0122092D02*
X0049232Y0122092D01*
X0048498Y0122826D01*
X0048498Y0124294D01*
X0049232Y0125028D01*
X0049966Y0125028D01*
X0050700Y0124294D01*
X0050700Y0122826D01*
X0049966Y0122092D01*
X0048498Y0122826D02*
X0047764Y0122092D01*
X0047030Y0122092D01*
X0046296Y0122826D01*
X0046296Y0124294D01*
X0047030Y0125028D01*
X0047764Y0125028D01*
X0048498Y0124294D01*
X0049966Y0126696D02*
X0047030Y0126696D01*
X0046296Y0127430D01*
X0046296Y0128898D01*
X0047030Y0129632D01*
X0049966Y0126696D01*
X0050700Y0127430D01*
X0050700Y0128898D01*
X0049966Y0129632D01*
X0047030Y0129632D01*
X0046296Y0108280D02*
X0050700Y0108280D01*
X0050700Y0156399D02*
X0050700Y0157867D01*
X0050700Y0157133D02*
X0046296Y0157133D01*
X0046296Y0156399D02*
X0046296Y0157867D01*
X0047030Y0159469D02*
X0046296Y0160202D01*
X0046296Y0161670D01*
X0047030Y0162404D01*
X0047764Y0162404D01*
X0050700Y0159469D01*
X0050700Y0162404D01*
X0049966Y0164072D02*
X0050700Y0164806D01*
X0050700Y0166274D01*
X0049966Y0167008D01*
X0049966Y0164072D02*
X0047030Y0164072D01*
X0046296Y0164806D01*
X0046296Y0166274D01*
X0047030Y0167008D01*
X0046296Y0173280D02*
X0046296Y0175482D01*
X0047030Y0176216D01*
X0047764Y0176216D01*
X0048498Y0175482D01*
X0048498Y0173280D01*
X0050700Y0173280D02*
X0046296Y0173280D01*
X0047030Y0177884D02*
X0049966Y0177884D01*
X0050700Y0178618D01*
X0050700Y0180086D01*
X0049966Y0180820D01*
X0047030Y0180820D01*
X0046296Y0180086D01*
X0046296Y0178618D01*
X0047030Y0177884D01*
X0049232Y0176216D02*
X0049966Y0176216D01*
X0050700Y0175482D01*
X0050700Y0173280D01*
X0048498Y0175482D02*
X0049232Y0176216D01*
X0048498Y0182488D02*
X0048498Y0185424D01*
X0047764Y0185424D02*
X0050700Y0185424D01*
X0050700Y0187092D02*
X0046296Y0187092D01*
X0046296Y0189294D01*
X0047030Y0190028D01*
X0048498Y0190028D01*
X0049232Y0189294D01*
X0049232Y0187092D01*
X0049232Y0188560D02*
X0050700Y0190028D01*
X0050700Y0191696D02*
X0050700Y0193898D01*
X0049966Y0194632D01*
X0047030Y0194632D01*
X0046296Y0193898D01*
X0046296Y0191696D01*
X0050700Y0191696D01*
X0047764Y0185424D02*
X0046296Y0183956D01*
X0047764Y0182488D01*
X0050700Y0182488D01*
X0055909Y0026205D02*
X0060179Y0019800D01*
X0062354Y0019800D02*
X0066625Y0019800D01*
X0064490Y0019800D02*
X0064490Y0026205D01*
X0062354Y0024070D01*
X0060179Y0026205D02*
X0055909Y0019800D01*
D14*
X0028382Y0016094D02*
X0028382Y0005362D01*
X0089618Y0005362D01*
X0089618Y0016094D01*
X0089618Y0032862D02*
X0089618Y0063594D01*
X0089618Y0078594D02*
X0028382Y0078594D01*
X0028382Y0063594D02*
X0028382Y0032862D01*
X0089500Y0227754D02*
X0089500Y0248246D01*
D15*
X0101000Y0248000D02*
X0101244Y0247895D01*
X0101486Y0247785D01*
X0101725Y0247668D01*
X0101960Y0247546D01*
X0102193Y0247418D01*
X0102423Y0247284D01*
X0102649Y0247145D01*
X0102871Y0247000D01*
X0103091Y0246850D01*
X0103306Y0246694D01*
X0103517Y0246533D01*
X0103725Y0246367D01*
X0103928Y0246196D01*
X0104127Y0246020D01*
X0104322Y0245839D01*
X0104512Y0245654D01*
X0104697Y0245464D01*
X0104878Y0245269D01*
X0105054Y0245070D01*
X0105225Y0244867D01*
X0105391Y0244659D01*
X0105552Y0244448D01*
X0105708Y0244233D01*
X0105858Y0244013D01*
X0106003Y0243791D01*
X0106142Y0243565D01*
X0106276Y0243335D01*
X0106404Y0243102D01*
X0106526Y0242867D01*
X0106643Y0242628D01*
X0106753Y0242386D01*
X0106858Y0242142D01*
X0106957Y0241896D01*
X0107049Y0241646D01*
X0107136Y0241395D01*
X0107216Y0241142D01*
X0107290Y0240887D01*
X0107358Y0240630D01*
X0107419Y0240372D01*
X0107474Y0240112D01*
X0107523Y0239850D01*
X0107565Y0239588D01*
X0107601Y0239325D01*
X0107630Y0239061D01*
X0107653Y0238796D01*
X0107669Y0238531D01*
X0107679Y0238266D01*
X0107682Y0238000D01*
X0107679Y0237734D01*
X0107669Y0237469D01*
X0107653Y0237204D01*
X0107630Y0236939D01*
X0107601Y0236675D01*
X0107565Y0236412D01*
X0107523Y0236150D01*
X0107474Y0235888D01*
X0107419Y0235628D01*
X0107358Y0235370D01*
X0107290Y0235113D01*
X0107216Y0234858D01*
X0107136Y0234605D01*
X0107049Y0234354D01*
X0106957Y0234104D01*
X0106858Y0233858D01*
X0106753Y0233614D01*
X0106643Y0233372D01*
X0106526Y0233133D01*
X0106404Y0232898D01*
X0106276Y0232665D01*
X0106142Y0232435D01*
X0106003Y0232209D01*
X0105858Y0231987D01*
X0105708Y0231767D01*
X0105552Y0231552D01*
X0105391Y0231341D01*
X0105225Y0231133D01*
X0105054Y0230930D01*
X0104878Y0230731D01*
X0104697Y0230536D01*
X0104512Y0230346D01*
X0104322Y0230161D01*
X0104127Y0229980D01*
X0103928Y0229804D01*
X0103725Y0229633D01*
X0103517Y0229467D01*
X0103306Y0229306D01*
X0103091Y0229150D01*
X0102871Y0229000D01*
X0102649Y0228855D01*
X0102423Y0228716D01*
X0102193Y0228582D01*
X0101960Y0228454D01*
X0101725Y0228332D01*
X0101486Y0228215D01*
X0101244Y0228105D01*
X0101000Y0228000D01*
D16*
X0098293Y0208215D03*
X0103707Y0208215D03*
X0103707Y0163215D03*
X0098293Y0163215D03*
X0098293Y0118215D03*
X0103707Y0118215D03*
X0018707Y0243215D03*
X0013293Y0243215D03*
D17*
X0016000Y0241689D03*
X0101000Y0206689D03*
X0101000Y0161689D03*
X0101000Y0116689D03*
D18*
X0093800Y0117873D02*
X0093800Y0114804D01*
X0089196Y0114804D01*
X0089196Y0117873D01*
X0089196Y0119408D02*
X0089196Y0121710D01*
X0089963Y0122477D01*
X0093033Y0122477D01*
X0093800Y0121710D01*
X0093800Y0119408D01*
X0089196Y0119408D01*
X0091498Y0116339D02*
X0091498Y0114804D01*
X0093800Y0113269D02*
X0093800Y0110200D01*
X0089196Y0110200D01*
X0091498Y0124012D02*
X0091498Y0127081D01*
X0089196Y0126314D02*
X0091498Y0124012D01*
X0093800Y0126314D02*
X0089196Y0126314D01*
X0089196Y0155200D02*
X0093800Y0155200D01*
X0093800Y0158269D01*
X0093800Y0159804D02*
X0093800Y0162873D01*
X0093800Y0164408D02*
X0093800Y0166710D01*
X0093033Y0167477D01*
X0089963Y0167477D01*
X0089196Y0166710D01*
X0089196Y0164408D01*
X0093800Y0164408D01*
X0093800Y0159804D02*
X0089196Y0159804D01*
X0089196Y0162873D01*
X0091498Y0161339D02*
X0091498Y0159804D01*
X0090731Y0169012D02*
X0089196Y0170546D01*
X0093800Y0170546D01*
X0093800Y0169012D02*
X0093800Y0172081D01*
X0093800Y0201200D02*
X0089196Y0201200D01*
X0089196Y0205804D02*
X0093800Y0205804D01*
X0093800Y0208873D01*
X0093800Y0210408D02*
X0093800Y0212710D01*
X0093033Y0213477D01*
X0089963Y0213477D01*
X0089196Y0212710D01*
X0089196Y0210408D01*
X0093800Y0210408D01*
X0091498Y0207339D02*
X0091498Y0205804D01*
X0089196Y0205804D02*
X0089196Y0208873D01*
X0089963Y0215012D02*
X0089196Y0215779D01*
X0089196Y0217314D01*
X0089963Y0218081D01*
X0090731Y0218081D01*
X0093800Y0215012D01*
X0093800Y0218081D01*
X0093800Y0204269D02*
X0093800Y0201200D01*
D19*
X0107147Y0187701D02*
X0110850Y0187701D01*
X0110850Y0186467D02*
X0110850Y0188936D01*
X0108381Y0186467D02*
X0107147Y0187701D01*
X0107764Y0185252D02*
X0107147Y0184635D01*
X0107147Y0182784D01*
X0110850Y0182784D01*
X0109616Y0182784D02*
X0109616Y0184635D01*
X0108998Y0185252D01*
X0107764Y0185252D01*
X0109616Y0184018D02*
X0110850Y0185252D01*
X0110850Y0146936D02*
X0110850Y0144467D01*
X0108381Y0146936D01*
X0107764Y0146936D01*
X0107147Y0146318D01*
X0107147Y0145084D01*
X0107764Y0144467D01*
X0107764Y0143252D02*
X0107147Y0142635D01*
X0107147Y0140784D01*
X0110850Y0140784D01*
X0109616Y0140784D02*
X0109616Y0142635D01*
X0108998Y0143252D01*
X0107764Y0143252D01*
X0109616Y0142018D02*
X0110850Y0143252D01*
X0108998Y0098936D02*
X0108998Y0096467D01*
X0107147Y0098318D01*
X0110850Y0098318D01*
X0110850Y0095252D02*
X0109616Y0094018D01*
X0109616Y0094635D02*
X0109616Y0092784D01*
X0110850Y0092784D02*
X0107147Y0092784D01*
X0107147Y0094635D01*
X0107764Y0095252D01*
X0108998Y0095252D01*
X0109616Y0094635D01*
X0025850Y0220784D02*
X0022147Y0220784D01*
X0022147Y0222635D01*
X0022764Y0223252D01*
X0023998Y0223252D01*
X0024616Y0222635D01*
X0024616Y0220784D01*
X0024616Y0222018D02*
X0025850Y0223252D01*
X0025233Y0224467D02*
X0025850Y0225084D01*
X0025850Y0226318D01*
X0025233Y0226936D01*
X0024616Y0226936D01*
X0023998Y0226318D01*
X0023998Y0225701D01*
X0023998Y0226318D02*
X0023381Y0226936D01*
X0022764Y0226936D01*
X0022147Y0226318D01*
X0022147Y0225084D01*
X0022764Y0224467D01*
D20*
X0027098Y0241100D02*
X0029900Y0241100D01*
X0029900Y0242968D01*
X0029900Y0243862D02*
X0029900Y0245731D01*
X0029900Y0246625D02*
X0029900Y0248026D01*
X0029433Y0248493D01*
X0027565Y0248493D01*
X0027098Y0248026D01*
X0027098Y0246625D01*
X0029900Y0246625D01*
X0028499Y0244796D02*
X0028499Y0243862D01*
X0027098Y0243862D02*
X0029900Y0243862D01*
X0029433Y0249387D02*
X0029900Y0249854D01*
X0029900Y0250788D01*
X0029433Y0251255D01*
X0028966Y0251255D01*
X0028499Y0250788D01*
X0028499Y0250321D01*
X0028499Y0250788D02*
X0028032Y0251255D01*
X0027565Y0251255D01*
X0027098Y0250788D01*
X0027098Y0249854D01*
X0027565Y0249387D01*
X0027098Y0245731D02*
X0027098Y0243862D01*
M02*
