G75*
%MOIN*%
%OFA0B0*%
%FSLAX25Y25*%
%IPPOS*%
%LPD*%
%AMOC8*
5,1,8,0,0,1.08239X$1,22.5*
%
%ADD10C,0.00000*%
%ADD11C,0.01600*%
%ADD12C,0.07000*%
%ADD13C,0.05543*%
%ADD14C,0.11220*%
%ADD15C,0.07400*%
%ADD16C,0.02400*%
%ADD17C,0.04356*%
%ADD18OC8,0.04356*%
D10*
X0001000Y0001000D02*
X0117142Y0001000D01*
X0117142Y0260843D01*
X0001000Y0260843D01*
X0001000Y0001000D01*
X0030100Y0036000D02*
X0030102Y0036160D01*
X0030108Y0036319D01*
X0030118Y0036478D01*
X0030132Y0036637D01*
X0030150Y0036796D01*
X0030171Y0036954D01*
X0030197Y0037111D01*
X0030227Y0037268D01*
X0030260Y0037424D01*
X0030298Y0037579D01*
X0030339Y0037733D01*
X0030384Y0037886D01*
X0030433Y0038038D01*
X0030486Y0038189D01*
X0030542Y0038338D01*
X0030603Y0038486D01*
X0030666Y0038632D01*
X0030734Y0038777D01*
X0030805Y0038920D01*
X0030879Y0039061D01*
X0030957Y0039200D01*
X0031039Y0039337D01*
X0031124Y0039472D01*
X0031212Y0039605D01*
X0031304Y0039736D01*
X0031398Y0039864D01*
X0031496Y0039990D01*
X0031597Y0040114D01*
X0031701Y0040235D01*
X0031808Y0040353D01*
X0031918Y0040469D01*
X0032031Y0040582D01*
X0032147Y0040692D01*
X0032265Y0040799D01*
X0032386Y0040903D01*
X0032510Y0041004D01*
X0032636Y0041102D01*
X0032764Y0041196D01*
X0032895Y0041288D01*
X0033028Y0041376D01*
X0033163Y0041461D01*
X0033300Y0041543D01*
X0033439Y0041621D01*
X0033580Y0041695D01*
X0033723Y0041766D01*
X0033868Y0041834D01*
X0034014Y0041897D01*
X0034162Y0041958D01*
X0034311Y0042014D01*
X0034462Y0042067D01*
X0034614Y0042116D01*
X0034767Y0042161D01*
X0034921Y0042202D01*
X0035076Y0042240D01*
X0035232Y0042273D01*
X0035389Y0042303D01*
X0035546Y0042329D01*
X0035704Y0042350D01*
X0035863Y0042368D01*
X0036022Y0042382D01*
X0036181Y0042392D01*
X0036340Y0042398D01*
X0036500Y0042400D01*
X0036660Y0042398D01*
X0036819Y0042392D01*
X0036978Y0042382D01*
X0037137Y0042368D01*
X0037296Y0042350D01*
X0037454Y0042329D01*
X0037611Y0042303D01*
X0037768Y0042273D01*
X0037924Y0042240D01*
X0038079Y0042202D01*
X0038233Y0042161D01*
X0038386Y0042116D01*
X0038538Y0042067D01*
X0038689Y0042014D01*
X0038838Y0041958D01*
X0038986Y0041897D01*
X0039132Y0041834D01*
X0039277Y0041766D01*
X0039420Y0041695D01*
X0039561Y0041621D01*
X0039700Y0041543D01*
X0039837Y0041461D01*
X0039972Y0041376D01*
X0040105Y0041288D01*
X0040236Y0041196D01*
X0040364Y0041102D01*
X0040490Y0041004D01*
X0040614Y0040903D01*
X0040735Y0040799D01*
X0040853Y0040692D01*
X0040969Y0040582D01*
X0041082Y0040469D01*
X0041192Y0040353D01*
X0041299Y0040235D01*
X0041403Y0040114D01*
X0041504Y0039990D01*
X0041602Y0039864D01*
X0041696Y0039736D01*
X0041788Y0039605D01*
X0041876Y0039472D01*
X0041961Y0039337D01*
X0042043Y0039200D01*
X0042121Y0039061D01*
X0042195Y0038920D01*
X0042266Y0038777D01*
X0042334Y0038632D01*
X0042397Y0038486D01*
X0042458Y0038338D01*
X0042514Y0038189D01*
X0042567Y0038038D01*
X0042616Y0037886D01*
X0042661Y0037733D01*
X0042702Y0037579D01*
X0042740Y0037424D01*
X0042773Y0037268D01*
X0042803Y0037111D01*
X0042829Y0036954D01*
X0042850Y0036796D01*
X0042868Y0036637D01*
X0042882Y0036478D01*
X0042892Y0036319D01*
X0042898Y0036160D01*
X0042900Y0036000D01*
X0042898Y0035840D01*
X0042892Y0035681D01*
X0042882Y0035522D01*
X0042868Y0035363D01*
X0042850Y0035204D01*
X0042829Y0035046D01*
X0042803Y0034889D01*
X0042773Y0034732D01*
X0042740Y0034576D01*
X0042702Y0034421D01*
X0042661Y0034267D01*
X0042616Y0034114D01*
X0042567Y0033962D01*
X0042514Y0033811D01*
X0042458Y0033662D01*
X0042397Y0033514D01*
X0042334Y0033368D01*
X0042266Y0033223D01*
X0042195Y0033080D01*
X0042121Y0032939D01*
X0042043Y0032800D01*
X0041961Y0032663D01*
X0041876Y0032528D01*
X0041788Y0032395D01*
X0041696Y0032264D01*
X0041602Y0032136D01*
X0041504Y0032010D01*
X0041403Y0031886D01*
X0041299Y0031765D01*
X0041192Y0031647D01*
X0041082Y0031531D01*
X0040969Y0031418D01*
X0040853Y0031308D01*
X0040735Y0031201D01*
X0040614Y0031097D01*
X0040490Y0030996D01*
X0040364Y0030898D01*
X0040236Y0030804D01*
X0040105Y0030712D01*
X0039972Y0030624D01*
X0039837Y0030539D01*
X0039700Y0030457D01*
X0039561Y0030379D01*
X0039420Y0030305D01*
X0039277Y0030234D01*
X0039132Y0030166D01*
X0038986Y0030103D01*
X0038838Y0030042D01*
X0038689Y0029986D01*
X0038538Y0029933D01*
X0038386Y0029884D01*
X0038233Y0029839D01*
X0038079Y0029798D01*
X0037924Y0029760D01*
X0037768Y0029727D01*
X0037611Y0029697D01*
X0037454Y0029671D01*
X0037296Y0029650D01*
X0037137Y0029632D01*
X0036978Y0029618D01*
X0036819Y0029608D01*
X0036660Y0029602D01*
X0036500Y0029600D01*
X0036340Y0029602D01*
X0036181Y0029608D01*
X0036022Y0029618D01*
X0035863Y0029632D01*
X0035704Y0029650D01*
X0035546Y0029671D01*
X0035389Y0029697D01*
X0035232Y0029727D01*
X0035076Y0029760D01*
X0034921Y0029798D01*
X0034767Y0029839D01*
X0034614Y0029884D01*
X0034462Y0029933D01*
X0034311Y0029986D01*
X0034162Y0030042D01*
X0034014Y0030103D01*
X0033868Y0030166D01*
X0033723Y0030234D01*
X0033580Y0030305D01*
X0033439Y0030379D01*
X0033300Y0030457D01*
X0033163Y0030539D01*
X0033028Y0030624D01*
X0032895Y0030712D01*
X0032764Y0030804D01*
X0032636Y0030898D01*
X0032510Y0030996D01*
X0032386Y0031097D01*
X0032265Y0031201D01*
X0032147Y0031308D01*
X0032031Y0031418D01*
X0031918Y0031531D01*
X0031808Y0031647D01*
X0031701Y0031765D01*
X0031597Y0031886D01*
X0031496Y0032010D01*
X0031398Y0032136D01*
X0031304Y0032264D01*
X0031212Y0032395D01*
X0031124Y0032528D01*
X0031039Y0032663D01*
X0030957Y0032800D01*
X0030879Y0032939D01*
X0030805Y0033080D01*
X0030734Y0033223D01*
X0030666Y0033368D01*
X0030603Y0033514D01*
X0030542Y0033662D01*
X0030486Y0033811D01*
X0030433Y0033962D01*
X0030384Y0034114D01*
X0030339Y0034267D01*
X0030298Y0034421D01*
X0030260Y0034576D01*
X0030227Y0034732D01*
X0030197Y0034889D01*
X0030171Y0035046D01*
X0030150Y0035204D01*
X0030132Y0035363D01*
X0030118Y0035522D01*
X0030108Y0035681D01*
X0030102Y0035840D01*
X0030100Y0036000D01*
X0075100Y0036000D02*
X0075102Y0036160D01*
X0075108Y0036319D01*
X0075118Y0036478D01*
X0075132Y0036637D01*
X0075150Y0036796D01*
X0075171Y0036954D01*
X0075197Y0037111D01*
X0075227Y0037268D01*
X0075260Y0037424D01*
X0075298Y0037579D01*
X0075339Y0037733D01*
X0075384Y0037886D01*
X0075433Y0038038D01*
X0075486Y0038189D01*
X0075542Y0038338D01*
X0075603Y0038486D01*
X0075666Y0038632D01*
X0075734Y0038777D01*
X0075805Y0038920D01*
X0075879Y0039061D01*
X0075957Y0039200D01*
X0076039Y0039337D01*
X0076124Y0039472D01*
X0076212Y0039605D01*
X0076304Y0039736D01*
X0076398Y0039864D01*
X0076496Y0039990D01*
X0076597Y0040114D01*
X0076701Y0040235D01*
X0076808Y0040353D01*
X0076918Y0040469D01*
X0077031Y0040582D01*
X0077147Y0040692D01*
X0077265Y0040799D01*
X0077386Y0040903D01*
X0077510Y0041004D01*
X0077636Y0041102D01*
X0077764Y0041196D01*
X0077895Y0041288D01*
X0078028Y0041376D01*
X0078163Y0041461D01*
X0078300Y0041543D01*
X0078439Y0041621D01*
X0078580Y0041695D01*
X0078723Y0041766D01*
X0078868Y0041834D01*
X0079014Y0041897D01*
X0079162Y0041958D01*
X0079311Y0042014D01*
X0079462Y0042067D01*
X0079614Y0042116D01*
X0079767Y0042161D01*
X0079921Y0042202D01*
X0080076Y0042240D01*
X0080232Y0042273D01*
X0080389Y0042303D01*
X0080546Y0042329D01*
X0080704Y0042350D01*
X0080863Y0042368D01*
X0081022Y0042382D01*
X0081181Y0042392D01*
X0081340Y0042398D01*
X0081500Y0042400D01*
X0081660Y0042398D01*
X0081819Y0042392D01*
X0081978Y0042382D01*
X0082137Y0042368D01*
X0082296Y0042350D01*
X0082454Y0042329D01*
X0082611Y0042303D01*
X0082768Y0042273D01*
X0082924Y0042240D01*
X0083079Y0042202D01*
X0083233Y0042161D01*
X0083386Y0042116D01*
X0083538Y0042067D01*
X0083689Y0042014D01*
X0083838Y0041958D01*
X0083986Y0041897D01*
X0084132Y0041834D01*
X0084277Y0041766D01*
X0084420Y0041695D01*
X0084561Y0041621D01*
X0084700Y0041543D01*
X0084837Y0041461D01*
X0084972Y0041376D01*
X0085105Y0041288D01*
X0085236Y0041196D01*
X0085364Y0041102D01*
X0085490Y0041004D01*
X0085614Y0040903D01*
X0085735Y0040799D01*
X0085853Y0040692D01*
X0085969Y0040582D01*
X0086082Y0040469D01*
X0086192Y0040353D01*
X0086299Y0040235D01*
X0086403Y0040114D01*
X0086504Y0039990D01*
X0086602Y0039864D01*
X0086696Y0039736D01*
X0086788Y0039605D01*
X0086876Y0039472D01*
X0086961Y0039337D01*
X0087043Y0039200D01*
X0087121Y0039061D01*
X0087195Y0038920D01*
X0087266Y0038777D01*
X0087334Y0038632D01*
X0087397Y0038486D01*
X0087458Y0038338D01*
X0087514Y0038189D01*
X0087567Y0038038D01*
X0087616Y0037886D01*
X0087661Y0037733D01*
X0087702Y0037579D01*
X0087740Y0037424D01*
X0087773Y0037268D01*
X0087803Y0037111D01*
X0087829Y0036954D01*
X0087850Y0036796D01*
X0087868Y0036637D01*
X0087882Y0036478D01*
X0087892Y0036319D01*
X0087898Y0036160D01*
X0087900Y0036000D01*
X0087898Y0035840D01*
X0087892Y0035681D01*
X0087882Y0035522D01*
X0087868Y0035363D01*
X0087850Y0035204D01*
X0087829Y0035046D01*
X0087803Y0034889D01*
X0087773Y0034732D01*
X0087740Y0034576D01*
X0087702Y0034421D01*
X0087661Y0034267D01*
X0087616Y0034114D01*
X0087567Y0033962D01*
X0087514Y0033811D01*
X0087458Y0033662D01*
X0087397Y0033514D01*
X0087334Y0033368D01*
X0087266Y0033223D01*
X0087195Y0033080D01*
X0087121Y0032939D01*
X0087043Y0032800D01*
X0086961Y0032663D01*
X0086876Y0032528D01*
X0086788Y0032395D01*
X0086696Y0032264D01*
X0086602Y0032136D01*
X0086504Y0032010D01*
X0086403Y0031886D01*
X0086299Y0031765D01*
X0086192Y0031647D01*
X0086082Y0031531D01*
X0085969Y0031418D01*
X0085853Y0031308D01*
X0085735Y0031201D01*
X0085614Y0031097D01*
X0085490Y0030996D01*
X0085364Y0030898D01*
X0085236Y0030804D01*
X0085105Y0030712D01*
X0084972Y0030624D01*
X0084837Y0030539D01*
X0084700Y0030457D01*
X0084561Y0030379D01*
X0084420Y0030305D01*
X0084277Y0030234D01*
X0084132Y0030166D01*
X0083986Y0030103D01*
X0083838Y0030042D01*
X0083689Y0029986D01*
X0083538Y0029933D01*
X0083386Y0029884D01*
X0083233Y0029839D01*
X0083079Y0029798D01*
X0082924Y0029760D01*
X0082768Y0029727D01*
X0082611Y0029697D01*
X0082454Y0029671D01*
X0082296Y0029650D01*
X0082137Y0029632D01*
X0081978Y0029618D01*
X0081819Y0029608D01*
X0081660Y0029602D01*
X0081500Y0029600D01*
X0081340Y0029602D01*
X0081181Y0029608D01*
X0081022Y0029618D01*
X0080863Y0029632D01*
X0080704Y0029650D01*
X0080546Y0029671D01*
X0080389Y0029697D01*
X0080232Y0029727D01*
X0080076Y0029760D01*
X0079921Y0029798D01*
X0079767Y0029839D01*
X0079614Y0029884D01*
X0079462Y0029933D01*
X0079311Y0029986D01*
X0079162Y0030042D01*
X0079014Y0030103D01*
X0078868Y0030166D01*
X0078723Y0030234D01*
X0078580Y0030305D01*
X0078439Y0030379D01*
X0078300Y0030457D01*
X0078163Y0030539D01*
X0078028Y0030624D01*
X0077895Y0030712D01*
X0077764Y0030804D01*
X0077636Y0030898D01*
X0077510Y0030996D01*
X0077386Y0031097D01*
X0077265Y0031201D01*
X0077147Y0031308D01*
X0077031Y0031418D01*
X0076918Y0031531D01*
X0076808Y0031647D01*
X0076701Y0031765D01*
X0076597Y0031886D01*
X0076496Y0032010D01*
X0076398Y0032136D01*
X0076304Y0032264D01*
X0076212Y0032395D01*
X0076124Y0032528D01*
X0076039Y0032663D01*
X0075957Y0032800D01*
X0075879Y0032939D01*
X0075805Y0033080D01*
X0075734Y0033223D01*
X0075666Y0033368D01*
X0075603Y0033514D01*
X0075542Y0033662D01*
X0075486Y0033811D01*
X0075433Y0033962D01*
X0075384Y0034114D01*
X0075339Y0034267D01*
X0075298Y0034421D01*
X0075260Y0034576D01*
X0075227Y0034732D01*
X0075197Y0034889D01*
X0075171Y0035046D01*
X0075150Y0035204D01*
X0075132Y0035363D01*
X0075118Y0035522D01*
X0075108Y0035681D01*
X0075102Y0035840D01*
X0075100Y0036000D01*
D11*
X0071063Y0031677D02*
X0072538Y0029123D01*
X0074623Y0027038D01*
X0077177Y0025563D01*
X0080025Y0024800D01*
X0082975Y0024800D01*
X0085823Y0025563D01*
X0086507Y0025958D01*
X0086290Y0025434D01*
X0086290Y0022566D01*
X0087387Y0019916D01*
X0089416Y0017887D01*
X0092066Y0016790D01*
X0094934Y0016790D01*
X0097584Y0017887D01*
X0098762Y0019065D01*
X0098762Y0008568D01*
X0019380Y0008568D01*
X0019380Y0018924D01*
X0020416Y0017887D01*
X0023066Y0016790D01*
X0025934Y0016790D01*
X0028584Y0017887D01*
X0030613Y0019916D01*
X0031710Y0022566D01*
X0031710Y0025434D01*
X0031493Y0025958D01*
X0032177Y0025563D01*
X0035025Y0024800D01*
X0037975Y0024800D01*
X0040823Y0025563D01*
X0043377Y0027038D01*
X0045462Y0029123D01*
X0046937Y0031677D01*
X0047700Y0034525D01*
X0047700Y0037475D01*
X0046937Y0040323D01*
X0045462Y0042877D01*
X0043377Y0044962D01*
X0040823Y0046437D01*
X0037975Y0047200D01*
X0035025Y0047200D01*
X0032177Y0046437D01*
X0029623Y0044962D01*
X0027538Y0042877D01*
X0026063Y0040323D01*
X0025300Y0037475D01*
X0025300Y0034525D01*
X0026063Y0031677D01*
X0026458Y0030993D01*
X0025934Y0031210D01*
X0023066Y0031210D01*
X0020416Y0030113D01*
X0019380Y0029076D01*
X0019380Y0082823D01*
X0018527Y0084881D01*
X0016952Y0086456D01*
X0014893Y0087309D01*
X0008568Y0087309D01*
X0008568Y0253274D01*
X0094433Y0253274D01*
X0093889Y0253097D01*
X0093117Y0252704D01*
X0092417Y0252195D01*
X0091805Y0251583D01*
X0091296Y0250883D01*
X0090903Y0250111D01*
X0090635Y0249288D01*
X0090500Y0248433D01*
X0090500Y0248000D01*
X0096000Y0248000D01*
X0101500Y0248000D01*
X0101500Y0248433D01*
X0101365Y0249288D01*
X0101097Y0250111D01*
X0100704Y0250883D01*
X0100195Y0251583D01*
X0099583Y0252195D01*
X0098883Y0252704D01*
X0098111Y0253097D01*
X0097567Y0253274D01*
X0109573Y0253274D01*
X0109573Y0087309D01*
X0103248Y0087309D01*
X0101190Y0086456D01*
X0099615Y0084881D01*
X0098762Y0082823D01*
X0098762Y0028935D01*
X0097584Y0030113D01*
X0094934Y0031210D01*
X0092066Y0031210D01*
X0091542Y0030993D01*
X0091937Y0031677D01*
X0092700Y0034525D01*
X0092700Y0037475D01*
X0091937Y0040323D01*
X0090462Y0042877D01*
X0088377Y0044962D01*
X0085823Y0046437D01*
X0082975Y0047200D01*
X0080025Y0047200D01*
X0077177Y0046437D01*
X0074623Y0044962D01*
X0072538Y0042877D01*
X0071063Y0040323D01*
X0070300Y0037475D01*
X0070300Y0034525D01*
X0071063Y0031677D01*
X0071239Y0031372D02*
X0046760Y0031372D01*
X0047283Y0032970D02*
X0070717Y0032970D01*
X0070300Y0034569D02*
X0047700Y0034569D01*
X0047700Y0036167D02*
X0070300Y0036167D01*
X0070378Y0037766D02*
X0047622Y0037766D01*
X0047194Y0039364D02*
X0070806Y0039364D01*
X0071433Y0040963D02*
X0046567Y0040963D01*
X0045644Y0042561D02*
X0072356Y0042561D01*
X0073821Y0044160D02*
X0044179Y0044160D01*
X0041998Y0045758D02*
X0076002Y0045758D01*
X0076477Y0053600D02*
X0077359Y0053965D01*
X0083359Y0059965D01*
X0084035Y0060641D01*
X0084400Y0061523D01*
X0084400Y0067581D01*
X0084887Y0066404D01*
X0086916Y0064376D01*
X0089566Y0063278D01*
X0092434Y0063278D01*
X0095084Y0064376D01*
X0097113Y0066404D01*
X0098210Y0069054D01*
X0098210Y0071922D01*
X0097113Y0074572D01*
X0095084Y0076601D01*
X0092434Y0077698D01*
X0089566Y0077698D01*
X0086916Y0076601D01*
X0084887Y0074572D01*
X0084400Y0073396D01*
X0084400Y0079477D01*
X0084035Y0080359D01*
X0064400Y0099994D01*
X0064400Y0111006D01*
X0065925Y0112530D01*
X0065830Y0112241D01*
X0065700Y0111417D01*
X0065700Y0111184D01*
X0070816Y0111184D01*
X0070816Y0110816D01*
X0065700Y0110816D01*
X0065700Y0110583D01*
X0065830Y0109759D01*
X0066088Y0108966D01*
X0066467Y0108222D01*
X0066957Y0107547D01*
X0067547Y0106957D01*
X0068222Y0106467D01*
X0068966Y0106088D01*
X0069521Y0105908D01*
X0068111Y0105324D01*
X0066676Y0103889D01*
X0065900Y0102014D01*
X0065900Y0099986D01*
X0066676Y0098111D01*
X0068111Y0096676D01*
X0069986Y0095900D01*
X0072014Y0095900D01*
X0073889Y0096676D01*
X0075126Y0097914D01*
X0087222Y0085818D01*
X0087222Y0085249D01*
X0087797Y0083860D01*
X0088860Y0082797D01*
X0090249Y0082222D01*
X0091751Y0082222D01*
X0093140Y0082797D01*
X0094203Y0083860D01*
X0094778Y0085249D01*
X0094778Y0086751D01*
X0094203Y0088140D01*
X0093140Y0089203D01*
X0091751Y0089778D01*
X0091182Y0089778D01*
X0077586Y0103374D01*
X0076557Y0103800D01*
X0075360Y0103800D01*
X0075324Y0103889D01*
X0073889Y0105324D01*
X0072479Y0105908D01*
X0073034Y0106088D01*
X0073778Y0106467D01*
X0074453Y0106957D01*
X0075043Y0107547D01*
X0075533Y0108222D01*
X0075912Y0108966D01*
X0076169Y0109759D01*
X0076300Y0110583D01*
X0076300Y0110816D01*
X0071184Y0110816D01*
X0071184Y0111184D01*
X0076300Y0111184D01*
X0076300Y0111417D01*
X0076169Y0112241D01*
X0075912Y0113034D01*
X0075533Y0113778D01*
X0075043Y0114453D01*
X0074453Y0115043D01*
X0073778Y0115533D01*
X0073034Y0115912D01*
X0072479Y0116092D01*
X0073889Y0116676D01*
X0075324Y0118111D01*
X0076100Y0119986D01*
X0076100Y0122014D01*
X0075324Y0123889D01*
X0073889Y0125324D01*
X0072256Y0126000D01*
X0073889Y0126676D01*
X0075324Y0128111D01*
X0076100Y0129986D01*
X0076100Y0132014D01*
X0075324Y0133889D01*
X0073889Y0135324D01*
X0072014Y0136100D01*
X0069986Y0136100D01*
X0068111Y0135324D01*
X0066676Y0133889D01*
X0065900Y0132014D01*
X0065900Y0129986D01*
X0066248Y0129147D01*
X0065400Y0129994D01*
X0065400Y0177006D01*
X0066626Y0178232D01*
X0066676Y0178111D01*
X0068111Y0176676D01*
X0069521Y0176092D01*
X0068966Y0175912D01*
X0068222Y0175533D01*
X0067547Y0175043D01*
X0066957Y0174453D01*
X0066467Y0173778D01*
X0066088Y0173034D01*
X0065830Y0172241D01*
X0065700Y0171417D01*
X0065700Y0171184D01*
X0070816Y0171184D01*
X0070816Y0170816D01*
X0065700Y0170816D01*
X0065700Y0170583D01*
X0065830Y0169759D01*
X0066088Y0168966D01*
X0066467Y0168222D01*
X0066957Y0167547D01*
X0067547Y0166957D01*
X0068222Y0166467D01*
X0068966Y0166088D01*
X0069521Y0165908D01*
X0068111Y0165324D01*
X0066676Y0163889D01*
X0065900Y0162014D01*
X0065900Y0159986D01*
X0066676Y0158111D01*
X0068111Y0156676D01*
X0069986Y0155900D01*
X0072014Y0155900D01*
X0073889Y0156676D01*
X0075324Y0158111D01*
X0076100Y0159986D01*
X0076100Y0162014D01*
X0075324Y0163889D01*
X0073889Y0165324D01*
X0072479Y0165908D01*
X0073034Y0166088D01*
X0073778Y0166467D01*
X0074453Y0166957D01*
X0075043Y0167547D01*
X0075533Y0168222D01*
X0075912Y0168966D01*
X0076169Y0169759D01*
X0076300Y0170583D01*
X0076300Y0170816D01*
X0071184Y0170816D01*
X0071184Y0171184D01*
X0076300Y0171184D01*
X0076300Y0171417D01*
X0076169Y0172241D01*
X0075912Y0173034D01*
X0075533Y0173778D01*
X0075043Y0174453D01*
X0074453Y0175043D01*
X0073778Y0175533D01*
X0073034Y0175912D01*
X0072479Y0176092D01*
X0073889Y0176676D01*
X0075324Y0178111D01*
X0076100Y0179986D01*
X0076100Y0182014D01*
X0075324Y0183889D01*
X0073889Y0185324D01*
X0072256Y0186000D01*
X0073889Y0186676D01*
X0075324Y0188111D01*
X0076100Y0189986D01*
X0076100Y0192014D01*
X0075324Y0193889D01*
X0073889Y0195324D01*
X0072014Y0196100D01*
X0069986Y0196100D01*
X0068111Y0195324D01*
X0066676Y0193889D01*
X0065900Y0192014D01*
X0065900Y0189986D01*
X0066676Y0188111D01*
X0068111Y0186676D01*
X0069744Y0186000D01*
X0068111Y0185324D01*
X0066676Y0183889D01*
X0066474Y0183400D01*
X0065523Y0183400D01*
X0064641Y0183035D01*
X0063965Y0182359D01*
X0060965Y0179359D01*
X0060600Y0178477D01*
X0060600Y0128523D01*
X0060965Y0127641D01*
X0061641Y0126965D01*
X0066103Y0122503D01*
X0065900Y0122014D01*
X0065900Y0119986D01*
X0066103Y0119497D01*
X0059965Y0113359D01*
X0059600Y0112477D01*
X0059600Y0098523D01*
X0059965Y0097641D01*
X0060641Y0096965D01*
X0079600Y0078006D01*
X0079600Y0074082D01*
X0078976Y0074706D01*
X0077370Y0075372D01*
X0075630Y0075372D01*
X0074024Y0074706D01*
X0072794Y0073476D01*
X0072128Y0071870D01*
X0072128Y0070130D01*
X0072794Y0068524D01*
X0074024Y0067294D01*
X0075630Y0066628D01*
X0077370Y0066628D01*
X0078976Y0067294D01*
X0079600Y0067918D01*
X0079600Y0062994D01*
X0075260Y0058654D01*
X0075872Y0060130D01*
X0075872Y0061870D01*
X0075206Y0063476D01*
X0073976Y0064706D01*
X0072370Y0065372D01*
X0070630Y0065372D01*
X0069024Y0064706D01*
X0067794Y0063476D01*
X0067128Y0061870D01*
X0067128Y0060130D01*
X0067794Y0058524D01*
X0067918Y0058400D01*
X0066994Y0058400D01*
X0065694Y0059701D01*
X0065872Y0060130D01*
X0065872Y0061870D01*
X0065206Y0063476D01*
X0063976Y0064706D01*
X0062370Y0065372D01*
X0060630Y0065372D01*
X0059024Y0064706D01*
X0057794Y0063476D01*
X0057128Y0061870D01*
X0057128Y0060130D01*
X0057794Y0058524D01*
X0059024Y0057294D01*
X0060630Y0056628D01*
X0061978Y0056628D01*
X0063965Y0054641D01*
X0064641Y0053965D01*
X0065523Y0053600D01*
X0076477Y0053600D01*
X0076842Y0053751D02*
X0098762Y0053751D01*
X0098762Y0055349D02*
X0078743Y0055349D01*
X0080342Y0056948D02*
X0098762Y0056948D01*
X0098762Y0058546D02*
X0081941Y0058546D01*
X0083539Y0060145D02*
X0098762Y0060145D01*
X0098762Y0061743D02*
X0084400Y0061743D01*
X0084400Y0063342D02*
X0089411Y0063342D01*
X0086351Y0064940D02*
X0084400Y0064940D01*
X0084400Y0066539D02*
X0084832Y0066539D01*
X0082000Y0062000D02*
X0082000Y0079000D01*
X0062000Y0099000D01*
X0062000Y0112000D01*
X0071000Y0121000D01*
X0063000Y0129000D01*
X0063000Y0178000D01*
X0066000Y0181000D01*
X0071000Y0181000D01*
X0074384Y0184829D02*
X0109573Y0184829D01*
X0109573Y0186427D02*
X0073287Y0186427D01*
X0075238Y0188026D02*
X0109573Y0188026D01*
X0109573Y0189624D02*
X0075950Y0189624D01*
X0076100Y0191223D02*
X0109573Y0191223D01*
X0109573Y0192821D02*
X0075766Y0192821D01*
X0074793Y0194420D02*
X0109573Y0194420D01*
X0109573Y0196018D02*
X0072211Y0196018D01*
X0069789Y0196018D02*
X0023400Y0196018D01*
X0023400Y0194420D02*
X0067207Y0194420D01*
X0066234Y0192821D02*
X0023400Y0192821D01*
X0023400Y0191223D02*
X0065900Y0191223D01*
X0066050Y0189624D02*
X0023400Y0189624D01*
X0023400Y0188026D02*
X0066762Y0188026D01*
X0067616Y0184829D02*
X0023400Y0184829D01*
X0023400Y0186427D02*
X0068712Y0186427D01*
X0065113Y0183230D02*
X0023400Y0183230D01*
X0023400Y0181632D02*
X0063238Y0181632D01*
X0061639Y0180033D02*
X0023400Y0180033D01*
X0023400Y0178435D02*
X0060600Y0178435D01*
X0060600Y0176836D02*
X0023400Y0176836D01*
X0023400Y0175238D02*
X0060600Y0175238D01*
X0060600Y0173639D02*
X0023400Y0173639D01*
X0023400Y0172041D02*
X0060600Y0172041D01*
X0060600Y0170442D02*
X0023400Y0170442D01*
X0023400Y0168844D02*
X0060600Y0168844D01*
X0060600Y0167245D02*
X0023400Y0167245D01*
X0023400Y0165647D02*
X0060600Y0165647D01*
X0060600Y0164048D02*
X0023400Y0164048D01*
X0023400Y0162450D02*
X0060600Y0162450D01*
X0060600Y0160851D02*
X0023400Y0160851D01*
X0023400Y0159253D02*
X0060600Y0159253D01*
X0060600Y0157654D02*
X0023400Y0157654D01*
X0023400Y0156056D02*
X0060600Y0156056D01*
X0060600Y0154457D02*
X0023400Y0154457D01*
X0023400Y0152859D02*
X0060600Y0152859D01*
X0060600Y0151260D02*
X0023400Y0151260D01*
X0023400Y0149662D02*
X0060600Y0149662D01*
X0060600Y0148063D02*
X0023400Y0148063D01*
X0023400Y0146465D02*
X0060600Y0146465D01*
X0060600Y0144866D02*
X0023400Y0144866D01*
X0023400Y0143268D02*
X0060600Y0143268D01*
X0060600Y0141669D02*
X0023400Y0141669D01*
X0023400Y0140070D02*
X0060600Y0140070D01*
X0060600Y0138472D02*
X0023400Y0138472D01*
X0023400Y0136873D02*
X0060600Y0136873D01*
X0060600Y0135275D02*
X0023400Y0135275D01*
X0023400Y0133676D02*
X0060600Y0133676D01*
X0060600Y0132078D02*
X0023400Y0132078D01*
X0023400Y0130479D02*
X0060600Y0130479D01*
X0060600Y0128881D02*
X0023400Y0128881D01*
X0023400Y0127282D02*
X0061323Y0127282D01*
X0062922Y0125684D02*
X0023400Y0125684D01*
X0023400Y0124085D02*
X0064521Y0124085D01*
X0066096Y0122487D02*
X0023400Y0122487D01*
X0023400Y0120888D02*
X0065900Y0120888D01*
X0065896Y0119290D02*
X0023400Y0119290D01*
X0023400Y0117691D02*
X0064297Y0117691D01*
X0062699Y0116093D02*
X0023400Y0116093D01*
X0023400Y0114494D02*
X0061100Y0114494D01*
X0059773Y0112896D02*
X0023400Y0112896D01*
X0023400Y0111297D02*
X0059600Y0111297D01*
X0059600Y0109699D02*
X0023400Y0109699D01*
X0023400Y0108100D02*
X0059600Y0108100D01*
X0059600Y0106502D02*
X0023400Y0106502D01*
X0023400Y0104903D02*
X0059600Y0104903D01*
X0059600Y0103305D02*
X0023400Y0103305D01*
X0023400Y0101706D02*
X0059600Y0101706D01*
X0059600Y0100108D02*
X0023400Y0100108D01*
X0023400Y0098509D02*
X0059606Y0098509D01*
X0060695Y0096911D02*
X0023400Y0096911D01*
X0023400Y0095312D02*
X0062294Y0095312D01*
X0063892Y0093714D02*
X0023400Y0093714D01*
X0023400Y0092115D02*
X0065491Y0092115D01*
X0067089Y0090517D02*
X0024877Y0090517D01*
X0023400Y0091994D02*
X0026994Y0088400D01*
X0050771Y0088400D01*
X0051016Y0088447D01*
X0051244Y0088400D01*
X0051477Y0088400D01*
X0051707Y0088305D01*
X0051951Y0088255D01*
X0052144Y0088124D01*
X0052359Y0088035D01*
X0052535Y0087859D01*
X0067644Y0077624D01*
X0067859Y0077535D01*
X0068035Y0077359D01*
X0068241Y0077219D01*
X0068370Y0077024D01*
X0068535Y0076859D01*
X0068630Y0076630D01*
X0068767Y0076422D01*
X0068811Y0076193D01*
X0068900Y0075977D01*
X0068900Y0075729D01*
X0068947Y0075484D01*
X0068900Y0075256D01*
X0068900Y0074738D01*
X0068976Y0074706D01*
X0070206Y0073476D01*
X0070872Y0071870D01*
X0070872Y0070130D01*
X0070206Y0068524D01*
X0068976Y0067294D01*
X0067370Y0066628D01*
X0065630Y0066628D01*
X0064024Y0067294D01*
X0062794Y0068524D01*
X0062128Y0070130D01*
X0062128Y0071870D01*
X0062794Y0073476D01*
X0063769Y0074451D01*
X0050264Y0083600D01*
X0025523Y0083600D01*
X0024641Y0083965D01*
X0019641Y0088965D01*
X0018965Y0089641D01*
X0018600Y0090523D01*
X0018600Y0201477D01*
X0018965Y0202359D01*
X0019641Y0203035D01*
X0019641Y0203035D01*
X0033965Y0217359D01*
X0033965Y0217359D01*
X0034641Y0218035D01*
X0035523Y0218400D01*
X0080006Y0218400D01*
X0085600Y0223994D01*
X0085600Y0230477D01*
X0085965Y0231359D01*
X0090949Y0236344D01*
X0090700Y0236946D01*
X0090700Y0239054D01*
X0091507Y0241002D01*
X0092998Y0242493D01*
X0093944Y0242885D01*
X0093889Y0242903D01*
X0093117Y0243296D01*
X0092417Y0243805D01*
X0091805Y0244417D01*
X0091296Y0245117D01*
X0090903Y0245889D01*
X0090635Y0246712D01*
X0090500Y0247567D01*
X0090500Y0248000D01*
X0096000Y0248000D01*
X0096000Y0248000D01*
X0101500Y0248000D01*
X0101500Y0247567D01*
X0101365Y0246712D01*
X0101097Y0245889D01*
X0100704Y0245117D01*
X0100195Y0244417D01*
X0099583Y0243805D01*
X0098883Y0243296D01*
X0098111Y0242903D01*
X0098056Y0242885D01*
X0099002Y0242493D01*
X0100493Y0241002D01*
X0101300Y0239054D01*
X0101300Y0236946D01*
X0100493Y0234998D01*
X0099002Y0233507D01*
X0097778Y0233000D01*
X0099002Y0232493D01*
X0100493Y0231002D01*
X0101300Y0229054D01*
X0101300Y0226946D01*
X0100493Y0224998D01*
X0099002Y0223507D01*
X0097054Y0222700D01*
X0094946Y0222700D01*
X0092998Y0223507D01*
X0091507Y0224998D01*
X0090700Y0226946D01*
X0090700Y0229054D01*
X0090878Y0229484D01*
X0090400Y0229006D01*
X0090400Y0222523D01*
X0090035Y0221641D01*
X0089359Y0220965D01*
X0089359Y0220965D01*
X0082359Y0213965D01*
X0081477Y0213600D01*
X0036994Y0213600D01*
X0023400Y0200006D01*
X0023400Y0091994D01*
X0021000Y0091000D02*
X0021000Y0201000D01*
X0036000Y0216000D01*
X0081000Y0216000D01*
X0088000Y0223000D01*
X0088000Y0230000D01*
X0096000Y0238000D01*
X0099120Y0242375D02*
X0109573Y0242375D01*
X0109573Y0240777D02*
X0100587Y0240777D01*
X0101249Y0239178D02*
X0109573Y0239178D01*
X0109573Y0237580D02*
X0101300Y0237580D01*
X0100900Y0235981D02*
X0109573Y0235981D01*
X0109573Y0234383D02*
X0099878Y0234383D01*
X0098300Y0232784D02*
X0109573Y0232784D01*
X0109573Y0231186D02*
X0100310Y0231186D01*
X0101079Y0229587D02*
X0109573Y0229587D01*
X0109573Y0227989D02*
X0101300Y0227989D01*
X0101070Y0226390D02*
X0109573Y0226390D01*
X0109573Y0224792D02*
X0100287Y0224792D01*
X0098245Y0223193D02*
X0109573Y0223193D01*
X0109573Y0221595D02*
X0089989Y0221595D01*
X0090400Y0223193D02*
X0093755Y0223193D01*
X0091713Y0224792D02*
X0090400Y0224792D01*
X0090400Y0226390D02*
X0090930Y0226390D01*
X0090700Y0227989D02*
X0090400Y0227989D01*
X0088989Y0234383D02*
X0008568Y0234383D01*
X0008568Y0235981D02*
X0090587Y0235981D01*
X0090700Y0237580D02*
X0008568Y0237580D01*
X0008568Y0239178D02*
X0090751Y0239178D01*
X0091413Y0240777D02*
X0008568Y0240777D01*
X0008568Y0242375D02*
X0092880Y0242375D01*
X0092248Y0243974D02*
X0008568Y0243974D01*
X0008568Y0245572D02*
X0091064Y0245572D01*
X0090563Y0247171D02*
X0008568Y0247171D01*
X0008568Y0248769D02*
X0090553Y0248769D01*
X0091034Y0250368D02*
X0008568Y0250368D01*
X0008568Y0251966D02*
X0092188Y0251966D01*
X0096000Y0248000D02*
X0096000Y0248000D01*
X0099812Y0251966D02*
X0109573Y0251966D01*
X0109573Y0250368D02*
X0100966Y0250368D01*
X0101447Y0248769D02*
X0109573Y0248769D01*
X0109573Y0247171D02*
X0101437Y0247171D01*
X0100936Y0245572D02*
X0109573Y0245572D01*
X0109573Y0243974D02*
X0099752Y0243974D01*
X0109573Y0219996D02*
X0088390Y0219996D01*
X0086792Y0218398D02*
X0109573Y0218398D01*
X0109573Y0216799D02*
X0085193Y0216799D01*
X0083595Y0215201D02*
X0109573Y0215201D01*
X0109573Y0213602D02*
X0081482Y0213602D01*
X0081602Y0219996D02*
X0008568Y0219996D01*
X0008568Y0218398D02*
X0035517Y0218398D01*
X0033405Y0216799D02*
X0008568Y0216799D01*
X0008568Y0215201D02*
X0031806Y0215201D01*
X0030208Y0213602D02*
X0008568Y0213602D01*
X0008568Y0212003D02*
X0028609Y0212003D01*
X0030602Y0207208D02*
X0109573Y0207208D01*
X0109573Y0208806D02*
X0032201Y0208806D01*
X0033799Y0210405D02*
X0109573Y0210405D01*
X0109573Y0212003D02*
X0035398Y0212003D01*
X0029004Y0205609D02*
X0109573Y0205609D01*
X0109573Y0204011D02*
X0027405Y0204011D01*
X0025807Y0202412D02*
X0109573Y0202412D01*
X0109573Y0200814D02*
X0024208Y0200814D01*
X0023400Y0199215D02*
X0109573Y0199215D01*
X0109573Y0197617D02*
X0023400Y0197617D01*
X0020617Y0204011D02*
X0008568Y0204011D01*
X0008568Y0205609D02*
X0022215Y0205609D01*
X0023814Y0207208D02*
X0008568Y0207208D01*
X0008568Y0208806D02*
X0025412Y0208806D01*
X0027011Y0210405D02*
X0008568Y0210405D01*
X0008568Y0202412D02*
X0019018Y0202412D01*
X0018600Y0200814D02*
X0008568Y0200814D01*
X0008568Y0199215D02*
X0018600Y0199215D01*
X0018600Y0197617D02*
X0008568Y0197617D01*
X0008568Y0196018D02*
X0018600Y0196018D01*
X0018600Y0194420D02*
X0008568Y0194420D01*
X0008568Y0192821D02*
X0018600Y0192821D01*
X0018600Y0191223D02*
X0008568Y0191223D01*
X0008568Y0189624D02*
X0018600Y0189624D01*
X0018600Y0188026D02*
X0008568Y0188026D01*
X0008568Y0186427D02*
X0018600Y0186427D01*
X0018600Y0184829D02*
X0008568Y0184829D01*
X0008568Y0183230D02*
X0018600Y0183230D01*
X0018600Y0181632D02*
X0008568Y0181632D01*
X0008568Y0180033D02*
X0018600Y0180033D01*
X0018600Y0178435D02*
X0008568Y0178435D01*
X0008568Y0176836D02*
X0018600Y0176836D01*
X0018600Y0175238D02*
X0008568Y0175238D01*
X0008568Y0173639D02*
X0018600Y0173639D01*
X0018600Y0172041D02*
X0008568Y0172041D01*
X0008568Y0170442D02*
X0018600Y0170442D01*
X0018600Y0168844D02*
X0008568Y0168844D01*
X0008568Y0167245D02*
X0018600Y0167245D01*
X0018600Y0165647D02*
X0008568Y0165647D01*
X0008568Y0164048D02*
X0018600Y0164048D01*
X0018600Y0162450D02*
X0008568Y0162450D01*
X0008568Y0160851D02*
X0018600Y0160851D01*
X0018600Y0159253D02*
X0008568Y0159253D01*
X0008568Y0157654D02*
X0018600Y0157654D01*
X0018600Y0156056D02*
X0008568Y0156056D01*
X0008568Y0154457D02*
X0018600Y0154457D01*
X0018600Y0152859D02*
X0008568Y0152859D01*
X0008568Y0151260D02*
X0018600Y0151260D01*
X0018600Y0149662D02*
X0008568Y0149662D01*
X0008568Y0148063D02*
X0018600Y0148063D01*
X0018600Y0146465D02*
X0008568Y0146465D01*
X0008568Y0144866D02*
X0018600Y0144866D01*
X0018600Y0143268D02*
X0008568Y0143268D01*
X0008568Y0141669D02*
X0018600Y0141669D01*
X0018600Y0140070D02*
X0008568Y0140070D01*
X0008568Y0138472D02*
X0018600Y0138472D01*
X0018600Y0136873D02*
X0008568Y0136873D01*
X0008568Y0135275D02*
X0018600Y0135275D01*
X0018600Y0133676D02*
X0008568Y0133676D01*
X0008568Y0132078D02*
X0018600Y0132078D01*
X0018600Y0130479D02*
X0008568Y0130479D01*
X0008568Y0128881D02*
X0018600Y0128881D01*
X0018600Y0127282D02*
X0008568Y0127282D01*
X0008568Y0125684D02*
X0018600Y0125684D01*
X0018600Y0124085D02*
X0008568Y0124085D01*
X0008568Y0122487D02*
X0018600Y0122487D01*
X0018600Y0120888D02*
X0008568Y0120888D01*
X0008568Y0119290D02*
X0018600Y0119290D01*
X0018600Y0117691D02*
X0008568Y0117691D01*
X0008568Y0116093D02*
X0018600Y0116093D01*
X0018600Y0114494D02*
X0008568Y0114494D01*
X0008568Y0112896D02*
X0018600Y0112896D01*
X0018600Y0111297D02*
X0008568Y0111297D01*
X0008568Y0109699D02*
X0018600Y0109699D01*
X0018600Y0108100D02*
X0008568Y0108100D01*
X0008568Y0106502D02*
X0018600Y0106502D01*
X0018600Y0104903D02*
X0008568Y0104903D01*
X0008568Y0103305D02*
X0018600Y0103305D01*
X0018600Y0101706D02*
X0008568Y0101706D01*
X0008568Y0100108D02*
X0018600Y0100108D01*
X0018600Y0098509D02*
X0008568Y0098509D01*
X0008568Y0096911D02*
X0018600Y0096911D01*
X0018600Y0095312D02*
X0008568Y0095312D01*
X0008568Y0093714D02*
X0018600Y0093714D01*
X0018600Y0092115D02*
X0008568Y0092115D01*
X0008568Y0090517D02*
X0018602Y0090517D01*
X0019688Y0088918D02*
X0008568Y0088918D01*
X0008568Y0087320D02*
X0021286Y0087320D01*
X0022885Y0085721D02*
X0017687Y0085721D01*
X0018841Y0084123D02*
X0024483Y0084123D01*
X0026000Y0086000D02*
X0021000Y0091000D01*
X0019380Y0082524D02*
X0051852Y0082524D01*
X0051000Y0086000D02*
X0026000Y0086000D01*
X0026476Y0088918D02*
X0068688Y0088918D01*
X0070286Y0087320D02*
X0053331Y0087320D01*
X0051000Y0086000D02*
X0066500Y0075500D01*
X0066500Y0071000D01*
X0069151Y0074532D02*
X0073849Y0074532D01*
X0072569Y0072933D02*
X0070431Y0072933D01*
X0070872Y0071334D02*
X0072128Y0071334D01*
X0072292Y0069736D02*
X0070708Y0069736D01*
X0069820Y0068137D02*
X0073180Y0068137D01*
X0073411Y0064940D02*
X0079600Y0064940D01*
X0079600Y0063342D02*
X0075262Y0063342D01*
X0075872Y0061743D02*
X0078349Y0061743D01*
X0076751Y0060145D02*
X0075872Y0060145D01*
X0076000Y0056000D02*
X0082000Y0062000D01*
X0079600Y0066539D02*
X0033168Y0066539D01*
X0033113Y0066404D02*
X0034210Y0069054D01*
X0034210Y0071922D01*
X0033113Y0074572D01*
X0031084Y0076601D01*
X0028434Y0077698D01*
X0025566Y0077698D01*
X0022916Y0076601D01*
X0020887Y0074572D01*
X0019790Y0071922D01*
X0019790Y0069054D01*
X0020887Y0066404D01*
X0022916Y0064376D01*
X0025566Y0063278D01*
X0028434Y0063278D01*
X0031084Y0064376D01*
X0033113Y0066404D01*
X0033831Y0068137D02*
X0043180Y0068137D01*
X0042794Y0068524D02*
X0044024Y0067294D01*
X0045630Y0066628D01*
X0047370Y0066628D01*
X0048976Y0067294D01*
X0050206Y0068524D01*
X0050872Y0070130D01*
X0050872Y0071870D01*
X0050206Y0073476D01*
X0048976Y0074706D01*
X0047370Y0075372D01*
X0045630Y0075372D01*
X0044024Y0074706D01*
X0042794Y0073476D01*
X0042128Y0071870D01*
X0042128Y0070130D01*
X0042794Y0068524D01*
X0042292Y0069736D02*
X0034210Y0069736D01*
X0034210Y0071334D02*
X0042128Y0071334D01*
X0042569Y0072933D02*
X0033792Y0072933D01*
X0033130Y0074532D02*
X0043849Y0074532D01*
X0049151Y0074532D02*
X0053849Y0074532D01*
X0054024Y0074706D02*
X0052794Y0073476D01*
X0052128Y0071870D01*
X0052128Y0070130D01*
X0052794Y0068524D01*
X0054024Y0067294D01*
X0055630Y0066628D01*
X0057370Y0066628D01*
X0058976Y0067294D01*
X0060206Y0068524D01*
X0060872Y0070130D01*
X0060872Y0071870D01*
X0060206Y0073476D01*
X0058976Y0074706D01*
X0057370Y0075372D01*
X0055630Y0075372D01*
X0054024Y0074706D01*
X0052569Y0072933D02*
X0050431Y0072933D01*
X0050872Y0071334D02*
X0052128Y0071334D01*
X0052292Y0069736D02*
X0050708Y0069736D01*
X0049820Y0068137D02*
X0053180Y0068137D01*
X0052571Y0065459D02*
X0051860Y0065572D01*
X0051586Y0065572D01*
X0051586Y0061086D01*
X0056072Y0061086D01*
X0056072Y0061360D01*
X0055959Y0062071D01*
X0055737Y0062755D01*
X0055410Y0063396D01*
X0054987Y0063978D01*
X0054478Y0064487D01*
X0053896Y0064910D01*
X0053255Y0065237D01*
X0052571Y0065459D01*
X0051586Y0064940D02*
X0051414Y0064940D01*
X0051414Y0065572D02*
X0051414Y0061086D01*
X0051586Y0061086D01*
X0051586Y0060914D01*
X0056072Y0060914D01*
X0056072Y0060640D01*
X0055959Y0059929D01*
X0055737Y0059245D01*
X0055410Y0058604D01*
X0054987Y0058022D01*
X0054478Y0057513D01*
X0053896Y0057090D01*
X0053255Y0056763D01*
X0052571Y0056541D01*
X0051860Y0056428D01*
X0051586Y0056428D01*
X0051586Y0060914D01*
X0051414Y0060914D01*
X0051414Y0056428D01*
X0051140Y0056428D01*
X0050429Y0056541D01*
X0049745Y0056763D01*
X0049104Y0057090D01*
X0048522Y0057513D01*
X0048013Y0058022D01*
X0047590Y0058604D01*
X0047263Y0059245D01*
X0047041Y0059929D01*
X0046928Y0060640D01*
X0046928Y0060914D01*
X0051414Y0060914D01*
X0051414Y0061086D01*
X0046928Y0061086D01*
X0046928Y0061360D01*
X0047041Y0062071D01*
X0047263Y0062755D01*
X0047590Y0063396D01*
X0048013Y0063978D01*
X0048522Y0064487D01*
X0049104Y0064910D01*
X0049745Y0065237D01*
X0050429Y0065459D01*
X0051140Y0065572D01*
X0051414Y0065572D01*
X0051414Y0063342D02*
X0051586Y0063342D01*
X0051586Y0061743D02*
X0051414Y0061743D01*
X0051414Y0060145D02*
X0051586Y0060145D01*
X0051586Y0058546D02*
X0051414Y0058546D01*
X0051414Y0056948D02*
X0051586Y0056948D01*
X0053617Y0056948D02*
X0059859Y0056948D01*
X0057784Y0058546D02*
X0055368Y0058546D01*
X0055993Y0060145D02*
X0057128Y0060145D01*
X0057128Y0061743D02*
X0056011Y0061743D01*
X0055438Y0063342D02*
X0057738Y0063342D01*
X0059589Y0064940D02*
X0053836Y0064940D01*
X0049164Y0064940D02*
X0043411Y0064940D01*
X0043976Y0064706D02*
X0042370Y0065372D01*
X0040630Y0065372D01*
X0039024Y0064706D01*
X0037794Y0063476D01*
X0037128Y0061870D01*
X0037128Y0060130D01*
X0037794Y0058524D01*
X0039024Y0057294D01*
X0040630Y0056628D01*
X0042370Y0056628D01*
X0043976Y0057294D01*
X0045206Y0058524D01*
X0045872Y0060130D01*
X0045872Y0061870D01*
X0045206Y0063476D01*
X0043976Y0064706D01*
X0045262Y0063342D02*
X0047562Y0063342D01*
X0046989Y0061743D02*
X0045872Y0061743D01*
X0045872Y0060145D02*
X0047007Y0060145D01*
X0047632Y0058546D02*
X0045216Y0058546D01*
X0043141Y0056948D02*
X0049383Y0056948D01*
X0039859Y0056948D02*
X0019380Y0056948D01*
X0019380Y0058546D02*
X0037784Y0058546D01*
X0037128Y0060145D02*
X0019380Y0060145D01*
X0019380Y0061743D02*
X0037128Y0061743D01*
X0037738Y0063342D02*
X0028589Y0063342D01*
X0031649Y0064940D02*
X0039589Y0064940D01*
X0031555Y0076130D02*
X0061291Y0076130D01*
X0059151Y0074532D02*
X0063650Y0074532D01*
X0062569Y0072933D02*
X0060431Y0072933D01*
X0060872Y0071334D02*
X0062128Y0071334D01*
X0062292Y0069736D02*
X0060708Y0069736D01*
X0059820Y0068137D02*
X0063180Y0068137D01*
X0063411Y0064940D02*
X0069589Y0064940D01*
X0067738Y0063342D02*
X0065262Y0063342D01*
X0065872Y0061743D02*
X0067128Y0061743D01*
X0067128Y0060145D02*
X0065872Y0060145D01*
X0066848Y0058546D02*
X0067784Y0058546D01*
X0066000Y0056000D02*
X0076000Y0056000D01*
X0079151Y0074532D02*
X0079600Y0074532D01*
X0079600Y0076130D02*
X0068837Y0076130D01*
X0067489Y0077729D02*
X0079600Y0077729D01*
X0078279Y0079327D02*
X0065130Y0079327D01*
X0062770Y0080926D02*
X0076680Y0080926D01*
X0075082Y0082524D02*
X0060410Y0082524D01*
X0058051Y0084123D02*
X0073483Y0084123D01*
X0075476Y0088918D02*
X0084122Y0088918D01*
X0085721Y0087320D02*
X0077074Y0087320D01*
X0078673Y0085721D02*
X0087222Y0085721D01*
X0087688Y0084123D02*
X0080272Y0084123D01*
X0081870Y0082524D02*
X0089519Y0082524D01*
X0086445Y0076130D02*
X0084400Y0076130D01*
X0084400Y0074532D02*
X0084870Y0074532D01*
X0084400Y0077729D02*
X0098762Y0077729D01*
X0098762Y0079327D02*
X0084400Y0079327D01*
X0083469Y0080926D02*
X0098762Y0080926D01*
X0098762Y0082524D02*
X0092481Y0082524D01*
X0094312Y0084123D02*
X0099301Y0084123D01*
X0100455Y0085721D02*
X0094778Y0085721D01*
X0094543Y0087320D02*
X0109573Y0087320D01*
X0109573Y0088918D02*
X0093425Y0088918D01*
X0090443Y0090517D02*
X0109573Y0090517D01*
X0109573Y0092115D02*
X0088845Y0092115D01*
X0087246Y0093714D02*
X0109573Y0093714D01*
X0109573Y0095312D02*
X0085648Y0095312D01*
X0084049Y0096911D02*
X0109573Y0096911D01*
X0109573Y0098509D02*
X0082451Y0098509D01*
X0080852Y0100108D02*
X0109573Y0100108D01*
X0109573Y0101706D02*
X0079254Y0101706D01*
X0077655Y0103305D02*
X0109573Y0103305D01*
X0109573Y0104903D02*
X0074309Y0104903D01*
X0073826Y0106502D02*
X0109573Y0106502D01*
X0109573Y0108100D02*
X0075444Y0108100D01*
X0076150Y0109699D02*
X0109573Y0109699D01*
X0109573Y0111297D02*
X0076300Y0111297D01*
X0075957Y0112896D02*
X0109573Y0112896D01*
X0109573Y0114494D02*
X0075001Y0114494D01*
X0074904Y0117691D02*
X0109573Y0117691D01*
X0109573Y0116093D02*
X0072480Y0116093D01*
X0075812Y0119290D02*
X0109573Y0119290D01*
X0109573Y0120888D02*
X0076100Y0120888D01*
X0075904Y0122487D02*
X0109573Y0122487D01*
X0109573Y0124085D02*
X0075127Y0124085D01*
X0074495Y0127282D02*
X0109573Y0127282D01*
X0109573Y0125684D02*
X0073019Y0125684D01*
X0075642Y0128881D02*
X0109573Y0128881D01*
X0109573Y0130479D02*
X0076100Y0130479D01*
X0076074Y0132078D02*
X0109573Y0132078D01*
X0109573Y0133676D02*
X0075412Y0133676D01*
X0073938Y0135275D02*
X0109573Y0135275D01*
X0109573Y0136873D02*
X0065400Y0136873D01*
X0065400Y0135275D02*
X0068062Y0135275D01*
X0066588Y0133676D02*
X0065400Y0133676D01*
X0065400Y0132078D02*
X0065926Y0132078D01*
X0065900Y0130479D02*
X0065400Y0130479D01*
X0065400Y0138472D02*
X0109573Y0138472D01*
X0109573Y0140070D02*
X0065400Y0140070D01*
X0065400Y0141669D02*
X0109573Y0141669D01*
X0109573Y0143268D02*
X0065400Y0143268D01*
X0065400Y0144866D02*
X0109573Y0144866D01*
X0109573Y0146465D02*
X0065400Y0146465D01*
X0065400Y0148063D02*
X0109573Y0148063D01*
X0109573Y0149662D02*
X0065400Y0149662D01*
X0065400Y0151260D02*
X0109573Y0151260D01*
X0109573Y0152859D02*
X0065400Y0152859D01*
X0065400Y0154457D02*
X0109573Y0154457D01*
X0109573Y0156056D02*
X0072390Y0156056D01*
X0074867Y0157654D02*
X0109573Y0157654D01*
X0109573Y0159253D02*
X0075796Y0159253D01*
X0076100Y0160851D02*
X0109573Y0160851D01*
X0109573Y0162450D02*
X0075920Y0162450D01*
X0075164Y0164048D02*
X0109573Y0164048D01*
X0109573Y0165647D02*
X0073109Y0165647D01*
X0074741Y0167245D02*
X0109573Y0167245D01*
X0109573Y0168844D02*
X0075850Y0168844D01*
X0076278Y0170442D02*
X0109573Y0170442D01*
X0109573Y0172041D02*
X0076201Y0172041D01*
X0075604Y0173639D02*
X0109573Y0173639D01*
X0109573Y0175238D02*
X0074184Y0175238D01*
X0074049Y0176836D02*
X0109573Y0176836D01*
X0109573Y0178435D02*
X0075458Y0178435D01*
X0076100Y0180033D02*
X0109573Y0180033D01*
X0109573Y0181632D02*
X0076100Y0181632D01*
X0075596Y0183230D02*
X0109573Y0183230D01*
X0087390Y0232784D02*
X0008568Y0232784D01*
X0008568Y0231186D02*
X0085893Y0231186D01*
X0085600Y0229587D02*
X0008568Y0229587D01*
X0008568Y0227989D02*
X0085600Y0227989D01*
X0085600Y0226390D02*
X0008568Y0226390D01*
X0008568Y0224792D02*
X0085600Y0224792D01*
X0084799Y0223193D02*
X0008568Y0223193D01*
X0008568Y0221595D02*
X0083200Y0221595D01*
X0067951Y0176836D02*
X0065400Y0176836D01*
X0065400Y0175238D02*
X0067816Y0175238D01*
X0066396Y0173639D02*
X0065400Y0173639D01*
X0065400Y0172041D02*
X0065799Y0172041D01*
X0065722Y0170442D02*
X0065400Y0170442D01*
X0065400Y0168844D02*
X0066150Y0168844D01*
X0065400Y0167245D02*
X0067259Y0167245D01*
X0068891Y0165647D02*
X0065400Y0165647D01*
X0065400Y0164048D02*
X0066836Y0164048D01*
X0066080Y0162450D02*
X0065400Y0162450D01*
X0065400Y0160851D02*
X0065900Y0160851D01*
X0066204Y0159253D02*
X0065400Y0159253D01*
X0065400Y0157654D02*
X0067133Y0157654D01*
X0065400Y0156056D02*
X0069610Y0156056D01*
X0065700Y0111297D02*
X0064691Y0111297D01*
X0064400Y0109699D02*
X0065850Y0109699D01*
X0066556Y0108100D02*
X0064400Y0108100D01*
X0064400Y0106502D02*
X0068174Y0106502D01*
X0067691Y0104903D02*
X0064400Y0104903D01*
X0064400Y0103305D02*
X0066434Y0103305D01*
X0065900Y0101706D02*
X0064400Y0101706D01*
X0064400Y0100108D02*
X0065900Y0100108D01*
X0065885Y0098509D02*
X0066512Y0098509D01*
X0067483Y0096911D02*
X0067877Y0096911D01*
X0069082Y0095312D02*
X0077728Y0095312D01*
X0076130Y0096911D02*
X0074123Y0096911D01*
X0072279Y0092115D02*
X0080925Y0092115D01*
X0082524Y0090517D02*
X0073877Y0090517D01*
X0071885Y0085721D02*
X0055691Y0085721D01*
X0054212Y0080926D02*
X0019380Y0080926D01*
X0019380Y0079327D02*
X0056571Y0079327D01*
X0058931Y0077729D02*
X0019380Y0077729D01*
X0019380Y0076130D02*
X0022445Y0076130D01*
X0020870Y0074532D02*
X0019380Y0074532D01*
X0019380Y0072933D02*
X0020208Y0072933D01*
X0019790Y0071334D02*
X0019380Y0071334D01*
X0019380Y0069736D02*
X0019790Y0069736D01*
X0020169Y0068137D02*
X0019380Y0068137D01*
X0019380Y0066539D02*
X0020832Y0066539D01*
X0019380Y0064940D02*
X0022351Y0064940D01*
X0019380Y0063342D02*
X0025411Y0063342D01*
X0019380Y0055349D02*
X0063256Y0055349D01*
X0065158Y0053751D02*
X0019380Y0053751D01*
X0019380Y0052152D02*
X0098762Y0052152D01*
X0098762Y0050554D02*
X0019380Y0050554D01*
X0019380Y0048955D02*
X0098762Y0048955D01*
X0098762Y0047357D02*
X0019380Y0047357D01*
X0019380Y0045758D02*
X0031002Y0045758D01*
X0028821Y0044160D02*
X0019380Y0044160D01*
X0019380Y0042561D02*
X0027356Y0042561D01*
X0026433Y0040963D02*
X0019380Y0040963D01*
X0019380Y0039364D02*
X0025806Y0039364D01*
X0025378Y0037766D02*
X0019380Y0037766D01*
X0019380Y0036167D02*
X0025300Y0036167D01*
X0025300Y0034569D02*
X0019380Y0034569D01*
X0019380Y0032970D02*
X0025717Y0032970D01*
X0026239Y0031372D02*
X0019380Y0031372D01*
X0019380Y0029773D02*
X0020076Y0029773D01*
X0019720Y0018584D02*
X0019380Y0018584D01*
X0019380Y0016985D02*
X0022594Y0016985D01*
X0019380Y0015387D02*
X0098762Y0015387D01*
X0098762Y0016985D02*
X0095406Y0016985D01*
X0098280Y0018584D02*
X0098762Y0018584D01*
X0098762Y0013788D02*
X0019380Y0013788D01*
X0019380Y0012190D02*
X0098762Y0012190D01*
X0098762Y0010591D02*
X0019380Y0010591D01*
X0019380Y0008993D02*
X0098762Y0008993D01*
X0104362Y0002969D02*
X0104362Y0081709D01*
X0115173Y0081709D01*
X0115173Y0258874D01*
X0002969Y0258874D01*
X0002969Y0081709D01*
X0013780Y0081709D01*
X0013780Y0002969D01*
X0104362Y0002969D01*
X0098762Y0029773D02*
X0097924Y0029773D01*
X0098762Y0031372D02*
X0091760Y0031372D01*
X0092283Y0032970D02*
X0098762Y0032970D01*
X0098762Y0034569D02*
X0092700Y0034569D01*
X0092700Y0036167D02*
X0098762Y0036167D01*
X0098762Y0037766D02*
X0092622Y0037766D01*
X0092194Y0039364D02*
X0098762Y0039364D01*
X0098762Y0040963D02*
X0091567Y0040963D01*
X0090644Y0042561D02*
X0098762Y0042561D01*
X0098762Y0044160D02*
X0089179Y0044160D01*
X0086998Y0045758D02*
X0098762Y0045758D01*
X0098762Y0063342D02*
X0092589Y0063342D01*
X0095649Y0064940D02*
X0098762Y0064940D01*
X0098762Y0066539D02*
X0097168Y0066539D01*
X0097831Y0068137D02*
X0098762Y0068137D01*
X0098762Y0069736D02*
X0098210Y0069736D01*
X0098210Y0071334D02*
X0098762Y0071334D01*
X0098762Y0072933D02*
X0097792Y0072933D01*
X0097130Y0074532D02*
X0098762Y0074532D01*
X0098762Y0076130D02*
X0095555Y0076130D01*
X0079327Y0093714D02*
X0070680Y0093714D01*
X0061500Y0061000D02*
X0061500Y0060500D01*
X0066000Y0056000D01*
X0072162Y0029773D02*
X0045838Y0029773D01*
X0044514Y0028175D02*
X0073486Y0028175D01*
X0075423Y0026576D02*
X0042577Y0026576D01*
X0038638Y0024978D02*
X0079362Y0024978D01*
X0083638Y0024978D02*
X0086290Y0024978D01*
X0086290Y0023379D02*
X0031710Y0023379D01*
X0031710Y0024978D02*
X0034362Y0024978D01*
X0031385Y0021781D02*
X0086615Y0021781D01*
X0087277Y0020182D02*
X0030723Y0020182D01*
X0029280Y0018584D02*
X0088720Y0018584D01*
X0091594Y0016985D02*
X0026406Y0016985D01*
D12*
X0071000Y0101000D03*
X0071000Y0111000D03*
X0071000Y0121000D03*
X0071000Y0131000D03*
X0071000Y0161000D03*
X0071000Y0171000D03*
X0071000Y0181000D03*
X0071000Y0191000D03*
D13*
X0066500Y0071000D03*
X0061500Y0061000D03*
X0056500Y0071000D03*
X0051500Y0061000D03*
X0046500Y0071000D03*
X0041500Y0061000D03*
X0071500Y0061000D03*
X0076500Y0071000D03*
D14*
X0091000Y0070488D03*
X0093500Y0024000D03*
X0027000Y0070488D03*
X0024500Y0024000D03*
D15*
X0096000Y0228000D03*
X0096000Y0238000D03*
X0096000Y0248000D03*
D16*
X0076000Y0101000D02*
X0071000Y0101000D01*
X0076000Y0101000D02*
X0091000Y0086000D01*
D17*
X0091000Y0086000D03*
D18*
X0068000Y0043000D03*
X0049000Y0027000D03*
X0043000Y0091000D03*
X0037000Y0146000D03*
X0056000Y0206000D03*
X0046000Y0231000D03*
X0046000Y0251000D03*
M02*
