%
M48
M72
T01C0.02756
T02C0.03200
T03C0.03543
T04C0.03937
T05C0.07480
T06C0.12800
%
T01
X91000Y86000
X68000Y43000
X49000Y27000
X43000Y91000
X37000Y146000
X46000Y231000
X46000Y251000
X56000Y206000
T02
X96000Y248000
X96000Y238000
X96000Y228000
T03
X71500Y61000
X66500Y71000
X61500Y61000
X56500Y71000
X51500Y61000
X46500Y71000
X41500Y61000
X76500Y71000
T04
X71000Y101000
X71000Y111000
X71000Y121000
X71000Y131000
X71000Y161000
X71000Y171000
X71000Y181000
X71000Y191000
T05
X24500Y24000
X27000Y70488
X91000Y70488
X93500Y24000
T06
X81500Y36000
X36500Y36000
M30
