G75*
%MOIN*%
%OFA0B0*%
%FSLAX25Y25*%
%IPPOS*%
%LPD*%
%AMOC8*
5,1,8,0,0,1.08239X$1,22.5*
%
%ADD10C,0.00000*%
%ADD11C,0.01600*%
%ADD12C,0.07800*%
%ADD13C,0.06343*%
%ADD14C,0.12020*%
%ADD15C,0.13600*%
%ADD16C,0.08200*%
%ADD17R,0.06706X0.06706*%
%ADD18R,0.07099X0.05918*%
%ADD19C,0.05156*%
%ADD20OC8,0.05156*%
D10*
X0001000Y0001000D02*
X0117142Y0001000D01*
X0117142Y0260843D01*
X0001000Y0260843D01*
X0001000Y0001000D01*
X0030100Y0036000D02*
X0030102Y0036160D01*
X0030108Y0036319D01*
X0030118Y0036478D01*
X0030132Y0036637D01*
X0030150Y0036796D01*
X0030171Y0036954D01*
X0030197Y0037111D01*
X0030227Y0037268D01*
X0030260Y0037424D01*
X0030298Y0037579D01*
X0030339Y0037733D01*
X0030384Y0037886D01*
X0030433Y0038038D01*
X0030486Y0038189D01*
X0030542Y0038338D01*
X0030603Y0038486D01*
X0030666Y0038632D01*
X0030734Y0038777D01*
X0030805Y0038920D01*
X0030879Y0039061D01*
X0030957Y0039200D01*
X0031039Y0039337D01*
X0031124Y0039472D01*
X0031212Y0039605D01*
X0031304Y0039736D01*
X0031398Y0039864D01*
X0031496Y0039990D01*
X0031597Y0040114D01*
X0031701Y0040235D01*
X0031808Y0040353D01*
X0031918Y0040469D01*
X0032031Y0040582D01*
X0032147Y0040692D01*
X0032265Y0040799D01*
X0032386Y0040903D01*
X0032510Y0041004D01*
X0032636Y0041102D01*
X0032764Y0041196D01*
X0032895Y0041288D01*
X0033028Y0041376D01*
X0033163Y0041461D01*
X0033300Y0041543D01*
X0033439Y0041621D01*
X0033580Y0041695D01*
X0033723Y0041766D01*
X0033868Y0041834D01*
X0034014Y0041897D01*
X0034162Y0041958D01*
X0034311Y0042014D01*
X0034462Y0042067D01*
X0034614Y0042116D01*
X0034767Y0042161D01*
X0034921Y0042202D01*
X0035076Y0042240D01*
X0035232Y0042273D01*
X0035389Y0042303D01*
X0035546Y0042329D01*
X0035704Y0042350D01*
X0035863Y0042368D01*
X0036022Y0042382D01*
X0036181Y0042392D01*
X0036340Y0042398D01*
X0036500Y0042400D01*
X0036660Y0042398D01*
X0036819Y0042392D01*
X0036978Y0042382D01*
X0037137Y0042368D01*
X0037296Y0042350D01*
X0037454Y0042329D01*
X0037611Y0042303D01*
X0037768Y0042273D01*
X0037924Y0042240D01*
X0038079Y0042202D01*
X0038233Y0042161D01*
X0038386Y0042116D01*
X0038538Y0042067D01*
X0038689Y0042014D01*
X0038838Y0041958D01*
X0038986Y0041897D01*
X0039132Y0041834D01*
X0039277Y0041766D01*
X0039420Y0041695D01*
X0039561Y0041621D01*
X0039700Y0041543D01*
X0039837Y0041461D01*
X0039972Y0041376D01*
X0040105Y0041288D01*
X0040236Y0041196D01*
X0040364Y0041102D01*
X0040490Y0041004D01*
X0040614Y0040903D01*
X0040735Y0040799D01*
X0040853Y0040692D01*
X0040969Y0040582D01*
X0041082Y0040469D01*
X0041192Y0040353D01*
X0041299Y0040235D01*
X0041403Y0040114D01*
X0041504Y0039990D01*
X0041602Y0039864D01*
X0041696Y0039736D01*
X0041788Y0039605D01*
X0041876Y0039472D01*
X0041961Y0039337D01*
X0042043Y0039200D01*
X0042121Y0039061D01*
X0042195Y0038920D01*
X0042266Y0038777D01*
X0042334Y0038632D01*
X0042397Y0038486D01*
X0042458Y0038338D01*
X0042514Y0038189D01*
X0042567Y0038038D01*
X0042616Y0037886D01*
X0042661Y0037733D01*
X0042702Y0037579D01*
X0042740Y0037424D01*
X0042773Y0037268D01*
X0042803Y0037111D01*
X0042829Y0036954D01*
X0042850Y0036796D01*
X0042868Y0036637D01*
X0042882Y0036478D01*
X0042892Y0036319D01*
X0042898Y0036160D01*
X0042900Y0036000D01*
X0042898Y0035840D01*
X0042892Y0035681D01*
X0042882Y0035522D01*
X0042868Y0035363D01*
X0042850Y0035204D01*
X0042829Y0035046D01*
X0042803Y0034889D01*
X0042773Y0034732D01*
X0042740Y0034576D01*
X0042702Y0034421D01*
X0042661Y0034267D01*
X0042616Y0034114D01*
X0042567Y0033962D01*
X0042514Y0033811D01*
X0042458Y0033662D01*
X0042397Y0033514D01*
X0042334Y0033368D01*
X0042266Y0033223D01*
X0042195Y0033080D01*
X0042121Y0032939D01*
X0042043Y0032800D01*
X0041961Y0032663D01*
X0041876Y0032528D01*
X0041788Y0032395D01*
X0041696Y0032264D01*
X0041602Y0032136D01*
X0041504Y0032010D01*
X0041403Y0031886D01*
X0041299Y0031765D01*
X0041192Y0031647D01*
X0041082Y0031531D01*
X0040969Y0031418D01*
X0040853Y0031308D01*
X0040735Y0031201D01*
X0040614Y0031097D01*
X0040490Y0030996D01*
X0040364Y0030898D01*
X0040236Y0030804D01*
X0040105Y0030712D01*
X0039972Y0030624D01*
X0039837Y0030539D01*
X0039700Y0030457D01*
X0039561Y0030379D01*
X0039420Y0030305D01*
X0039277Y0030234D01*
X0039132Y0030166D01*
X0038986Y0030103D01*
X0038838Y0030042D01*
X0038689Y0029986D01*
X0038538Y0029933D01*
X0038386Y0029884D01*
X0038233Y0029839D01*
X0038079Y0029798D01*
X0037924Y0029760D01*
X0037768Y0029727D01*
X0037611Y0029697D01*
X0037454Y0029671D01*
X0037296Y0029650D01*
X0037137Y0029632D01*
X0036978Y0029618D01*
X0036819Y0029608D01*
X0036660Y0029602D01*
X0036500Y0029600D01*
X0036340Y0029602D01*
X0036181Y0029608D01*
X0036022Y0029618D01*
X0035863Y0029632D01*
X0035704Y0029650D01*
X0035546Y0029671D01*
X0035389Y0029697D01*
X0035232Y0029727D01*
X0035076Y0029760D01*
X0034921Y0029798D01*
X0034767Y0029839D01*
X0034614Y0029884D01*
X0034462Y0029933D01*
X0034311Y0029986D01*
X0034162Y0030042D01*
X0034014Y0030103D01*
X0033868Y0030166D01*
X0033723Y0030234D01*
X0033580Y0030305D01*
X0033439Y0030379D01*
X0033300Y0030457D01*
X0033163Y0030539D01*
X0033028Y0030624D01*
X0032895Y0030712D01*
X0032764Y0030804D01*
X0032636Y0030898D01*
X0032510Y0030996D01*
X0032386Y0031097D01*
X0032265Y0031201D01*
X0032147Y0031308D01*
X0032031Y0031418D01*
X0031918Y0031531D01*
X0031808Y0031647D01*
X0031701Y0031765D01*
X0031597Y0031886D01*
X0031496Y0032010D01*
X0031398Y0032136D01*
X0031304Y0032264D01*
X0031212Y0032395D01*
X0031124Y0032528D01*
X0031039Y0032663D01*
X0030957Y0032800D01*
X0030879Y0032939D01*
X0030805Y0033080D01*
X0030734Y0033223D01*
X0030666Y0033368D01*
X0030603Y0033514D01*
X0030542Y0033662D01*
X0030486Y0033811D01*
X0030433Y0033962D01*
X0030384Y0034114D01*
X0030339Y0034267D01*
X0030298Y0034421D01*
X0030260Y0034576D01*
X0030227Y0034732D01*
X0030197Y0034889D01*
X0030171Y0035046D01*
X0030150Y0035204D01*
X0030132Y0035363D01*
X0030118Y0035522D01*
X0030108Y0035681D01*
X0030102Y0035840D01*
X0030100Y0036000D01*
X0075100Y0036000D02*
X0075102Y0036160D01*
X0075108Y0036319D01*
X0075118Y0036478D01*
X0075132Y0036637D01*
X0075150Y0036796D01*
X0075171Y0036954D01*
X0075197Y0037111D01*
X0075227Y0037268D01*
X0075260Y0037424D01*
X0075298Y0037579D01*
X0075339Y0037733D01*
X0075384Y0037886D01*
X0075433Y0038038D01*
X0075486Y0038189D01*
X0075542Y0038338D01*
X0075603Y0038486D01*
X0075666Y0038632D01*
X0075734Y0038777D01*
X0075805Y0038920D01*
X0075879Y0039061D01*
X0075957Y0039200D01*
X0076039Y0039337D01*
X0076124Y0039472D01*
X0076212Y0039605D01*
X0076304Y0039736D01*
X0076398Y0039864D01*
X0076496Y0039990D01*
X0076597Y0040114D01*
X0076701Y0040235D01*
X0076808Y0040353D01*
X0076918Y0040469D01*
X0077031Y0040582D01*
X0077147Y0040692D01*
X0077265Y0040799D01*
X0077386Y0040903D01*
X0077510Y0041004D01*
X0077636Y0041102D01*
X0077764Y0041196D01*
X0077895Y0041288D01*
X0078028Y0041376D01*
X0078163Y0041461D01*
X0078300Y0041543D01*
X0078439Y0041621D01*
X0078580Y0041695D01*
X0078723Y0041766D01*
X0078868Y0041834D01*
X0079014Y0041897D01*
X0079162Y0041958D01*
X0079311Y0042014D01*
X0079462Y0042067D01*
X0079614Y0042116D01*
X0079767Y0042161D01*
X0079921Y0042202D01*
X0080076Y0042240D01*
X0080232Y0042273D01*
X0080389Y0042303D01*
X0080546Y0042329D01*
X0080704Y0042350D01*
X0080863Y0042368D01*
X0081022Y0042382D01*
X0081181Y0042392D01*
X0081340Y0042398D01*
X0081500Y0042400D01*
X0081660Y0042398D01*
X0081819Y0042392D01*
X0081978Y0042382D01*
X0082137Y0042368D01*
X0082296Y0042350D01*
X0082454Y0042329D01*
X0082611Y0042303D01*
X0082768Y0042273D01*
X0082924Y0042240D01*
X0083079Y0042202D01*
X0083233Y0042161D01*
X0083386Y0042116D01*
X0083538Y0042067D01*
X0083689Y0042014D01*
X0083838Y0041958D01*
X0083986Y0041897D01*
X0084132Y0041834D01*
X0084277Y0041766D01*
X0084420Y0041695D01*
X0084561Y0041621D01*
X0084700Y0041543D01*
X0084837Y0041461D01*
X0084972Y0041376D01*
X0085105Y0041288D01*
X0085236Y0041196D01*
X0085364Y0041102D01*
X0085490Y0041004D01*
X0085614Y0040903D01*
X0085735Y0040799D01*
X0085853Y0040692D01*
X0085969Y0040582D01*
X0086082Y0040469D01*
X0086192Y0040353D01*
X0086299Y0040235D01*
X0086403Y0040114D01*
X0086504Y0039990D01*
X0086602Y0039864D01*
X0086696Y0039736D01*
X0086788Y0039605D01*
X0086876Y0039472D01*
X0086961Y0039337D01*
X0087043Y0039200D01*
X0087121Y0039061D01*
X0087195Y0038920D01*
X0087266Y0038777D01*
X0087334Y0038632D01*
X0087397Y0038486D01*
X0087458Y0038338D01*
X0087514Y0038189D01*
X0087567Y0038038D01*
X0087616Y0037886D01*
X0087661Y0037733D01*
X0087702Y0037579D01*
X0087740Y0037424D01*
X0087773Y0037268D01*
X0087803Y0037111D01*
X0087829Y0036954D01*
X0087850Y0036796D01*
X0087868Y0036637D01*
X0087882Y0036478D01*
X0087892Y0036319D01*
X0087898Y0036160D01*
X0087900Y0036000D01*
X0087898Y0035840D01*
X0087892Y0035681D01*
X0087882Y0035522D01*
X0087868Y0035363D01*
X0087850Y0035204D01*
X0087829Y0035046D01*
X0087803Y0034889D01*
X0087773Y0034732D01*
X0087740Y0034576D01*
X0087702Y0034421D01*
X0087661Y0034267D01*
X0087616Y0034114D01*
X0087567Y0033962D01*
X0087514Y0033811D01*
X0087458Y0033662D01*
X0087397Y0033514D01*
X0087334Y0033368D01*
X0087266Y0033223D01*
X0087195Y0033080D01*
X0087121Y0032939D01*
X0087043Y0032800D01*
X0086961Y0032663D01*
X0086876Y0032528D01*
X0086788Y0032395D01*
X0086696Y0032264D01*
X0086602Y0032136D01*
X0086504Y0032010D01*
X0086403Y0031886D01*
X0086299Y0031765D01*
X0086192Y0031647D01*
X0086082Y0031531D01*
X0085969Y0031418D01*
X0085853Y0031308D01*
X0085735Y0031201D01*
X0085614Y0031097D01*
X0085490Y0030996D01*
X0085364Y0030898D01*
X0085236Y0030804D01*
X0085105Y0030712D01*
X0084972Y0030624D01*
X0084837Y0030539D01*
X0084700Y0030457D01*
X0084561Y0030379D01*
X0084420Y0030305D01*
X0084277Y0030234D01*
X0084132Y0030166D01*
X0083986Y0030103D01*
X0083838Y0030042D01*
X0083689Y0029986D01*
X0083538Y0029933D01*
X0083386Y0029884D01*
X0083233Y0029839D01*
X0083079Y0029798D01*
X0082924Y0029760D01*
X0082768Y0029727D01*
X0082611Y0029697D01*
X0082454Y0029671D01*
X0082296Y0029650D01*
X0082137Y0029632D01*
X0081978Y0029618D01*
X0081819Y0029608D01*
X0081660Y0029602D01*
X0081500Y0029600D01*
X0081340Y0029602D01*
X0081181Y0029608D01*
X0081022Y0029618D01*
X0080863Y0029632D01*
X0080704Y0029650D01*
X0080546Y0029671D01*
X0080389Y0029697D01*
X0080232Y0029727D01*
X0080076Y0029760D01*
X0079921Y0029798D01*
X0079767Y0029839D01*
X0079614Y0029884D01*
X0079462Y0029933D01*
X0079311Y0029986D01*
X0079162Y0030042D01*
X0079014Y0030103D01*
X0078868Y0030166D01*
X0078723Y0030234D01*
X0078580Y0030305D01*
X0078439Y0030379D01*
X0078300Y0030457D01*
X0078163Y0030539D01*
X0078028Y0030624D01*
X0077895Y0030712D01*
X0077764Y0030804D01*
X0077636Y0030898D01*
X0077510Y0030996D01*
X0077386Y0031097D01*
X0077265Y0031201D01*
X0077147Y0031308D01*
X0077031Y0031418D01*
X0076918Y0031531D01*
X0076808Y0031647D01*
X0076701Y0031765D01*
X0076597Y0031886D01*
X0076496Y0032010D01*
X0076398Y0032136D01*
X0076304Y0032264D01*
X0076212Y0032395D01*
X0076124Y0032528D01*
X0076039Y0032663D01*
X0075957Y0032800D01*
X0075879Y0032939D01*
X0075805Y0033080D01*
X0075734Y0033223D01*
X0075666Y0033368D01*
X0075603Y0033514D01*
X0075542Y0033662D01*
X0075486Y0033811D01*
X0075433Y0033962D01*
X0075384Y0034114D01*
X0075339Y0034267D01*
X0075298Y0034421D01*
X0075260Y0034576D01*
X0075227Y0034732D01*
X0075197Y0034889D01*
X0075171Y0035046D01*
X0075150Y0035204D01*
X0075132Y0035363D01*
X0075118Y0035522D01*
X0075108Y0035681D01*
X0075102Y0035840D01*
X0075100Y0036000D01*
D11*
X0104362Y0002969D02*
X0104362Y0081709D01*
X0115173Y0081709D01*
X0115173Y0258874D01*
X0002969Y0258874D01*
X0002969Y0081709D01*
X0013780Y0081709D01*
X0013780Y0002969D01*
X0104362Y0002969D01*
D12*
X0071000Y0101000D03*
X0071000Y0111000D03*
X0071000Y0121000D03*
X0071000Y0131000D03*
X0071000Y0161000D03*
X0071000Y0171000D03*
X0071000Y0181000D03*
X0071000Y0191000D03*
D13*
X0066500Y0071000D03*
X0061500Y0061000D03*
X0056500Y0071000D03*
X0051500Y0061000D03*
X0046500Y0071000D03*
X0041500Y0061000D03*
X0071500Y0061000D03*
X0076500Y0071000D03*
D14*
X0091000Y0070488D03*
X0093500Y0024000D03*
X0027000Y0070488D03*
X0024500Y0024000D03*
D15*
X0036500Y0036000D03*
X0081500Y0036000D03*
D16*
X0096000Y0228000D03*
X0096000Y0238000D03*
X0096000Y0248000D03*
D17*
X0101000Y0212890D03*
X0101000Y0199110D03*
X0101000Y0167890D03*
X0101000Y0154110D03*
X0101000Y0122890D03*
X0101000Y0109110D03*
X0016000Y0234110D03*
X0016000Y0247890D03*
D18*
X0016000Y0224740D03*
X0016000Y0217260D03*
X0101000Y0189740D03*
X0101000Y0182260D03*
X0101000Y0144740D03*
X0101000Y0137260D03*
X0101000Y0099740D03*
X0101000Y0092260D03*
D19*
X0091000Y0086000D03*
D20*
X0068000Y0043000D03*
X0049000Y0027000D03*
X0043000Y0091000D03*
X0037000Y0146000D03*
X0056000Y0206000D03*
X0046000Y0231000D03*
X0046000Y0251000D03*
M02*
