G75*
%MOIN*%
%OFA0B0*%
%FSLAX25Y25*%
%IPPOS*%
%LPD*%
%AMOC8*
5,1,8,0,0,1.08239X$1,22.5*
%
%ADD10C,0.01600*%
%ADD11C,0.06700*%
%ADD12OC8,0.06700*%
%ADD13C,0.06400*%
%ADD14C,0.12211*%
%ADD15C,0.13061*%
%ADD16OC8,0.06000*%
%ADD17R,0.06306X0.05518*%
%ADD18R,0.05518X0.06306*%
%ADD19R,0.06306X0.06306*%
%ADD20C,0.08200*%
%ADD21C,0.06900*%
%ADD22C,0.05550*%
%ADD23C,0.00394*%
%ADD24C,0.07400*%
%ADD25R,0.09061X0.06699*%
%ADD26R,0.07400X0.20400*%
%ADD27C,0.05943*%
%ADD28C,0.11620*%
%ADD29C,0.00000*%
%ADD30C,0.13200*%
%ADD31C,0.07800*%
%ADD32R,0.02762X0.05124*%
%ADD33R,0.06699X0.05518*%
%ADD34R,0.05518X0.06699*%
%ADD35C,0.12998*%
%ADD36C,0.06000*%
%ADD37C,0.13392*%
%ADD38C,0.03962*%
%ADD39R,0.03962X0.03962*%
D10*
X0001800Y0001800D02*
X0001800Y0393800D01*
X0393800Y0393800D01*
X0393800Y0001800D01*
X0001800Y0001800D01*
D11*
X0060091Y0140119D03*
X0097509Y0164666D03*
D12*
X0107509Y0164666D03*
X0070091Y0140119D03*
D13*
X0138800Y0126800D02*
X0144800Y0126800D01*
X0144800Y0116800D02*
X0138800Y0116800D01*
X0138800Y0106800D02*
X0144800Y0106800D01*
X0162608Y0102850D02*
X0166850Y0098608D01*
X0173921Y0105679D02*
X0169679Y0109921D01*
X0176750Y0116992D02*
X0180992Y0112750D01*
X0100850Y0305608D02*
X0096608Y0309850D01*
X0103679Y0316921D02*
X0107921Y0312679D01*
X0114992Y0319750D02*
X0110750Y0323992D01*
D14*
X0031743Y0095076D02*
X0019931Y0095076D01*
X0014400Y0083206D02*
X0014400Y0071394D01*
D15*
X0041979Y0070753D02*
X0041979Y0083414D01*
D16*
X0040800Y0031800D03*
X0040800Y0021800D03*
X0050800Y0021800D03*
X0050800Y0031800D03*
X0060800Y0031800D03*
X0060800Y0021800D03*
X0070800Y0021800D03*
X0070800Y0031800D03*
X0030800Y0031800D03*
X0030800Y0021800D03*
X0195800Y0314800D03*
X0195800Y0324800D03*
X0205800Y0324800D03*
X0205800Y0314800D03*
D17*
X0190300Y0182540D03*
X0190300Y0175060D03*
X0222800Y0174540D03*
X0222800Y0167060D03*
X0135300Y0168560D03*
X0135300Y0176040D03*
D18*
X0161060Y0188800D03*
X0168540Y0188800D03*
X0179060Y0164800D03*
X0186540Y0164800D03*
X0210060Y0205800D03*
X0217540Y0205800D03*
X0028040Y0178300D03*
X0020560Y0178300D03*
X0020560Y0165800D03*
X0028040Y0165800D03*
D19*
X0106643Y0138414D03*
X0106643Y0124635D03*
X0087800Y0249910D03*
X0087800Y0263690D03*
X0362910Y0170800D03*
X0376690Y0170800D03*
D20*
X0029204Y0148613D02*
X0021404Y0148613D01*
X0021404Y0128813D02*
X0029204Y0128813D01*
D21*
X0330957Y0256800D03*
X0350643Y0256800D03*
D22*
X0023875Y0283300D02*
X0018725Y0283300D01*
X0018725Y0293300D02*
X0023875Y0293300D01*
X0023875Y0303300D02*
X0018725Y0303300D01*
X0018725Y0313300D02*
X0023875Y0313300D01*
X0023875Y0323300D02*
X0018725Y0323300D01*
X0017769Y0264627D02*
X0022918Y0264627D01*
X0022918Y0256753D02*
X0017769Y0256753D01*
X0017769Y0248879D02*
X0022918Y0248879D01*
X0022918Y0241005D02*
X0017769Y0241005D01*
X0017769Y0233131D02*
X0022918Y0233131D01*
X0022918Y0225257D02*
X0017769Y0225257D01*
X0017769Y0217383D02*
X0022918Y0217383D01*
X0022918Y0209509D02*
X0017769Y0209509D01*
X0017769Y0201635D02*
X0022918Y0201635D01*
X0022918Y0193761D02*
X0017769Y0193761D01*
D23*
X0053026Y0228031D02*
X0056574Y0228031D01*
X0056574Y0222907D01*
X0053026Y0222907D01*
X0053026Y0228031D01*
X0053026Y0223300D02*
X0056574Y0223300D01*
X0056574Y0223693D02*
X0053026Y0223693D01*
X0053026Y0224086D02*
X0056574Y0224086D01*
X0056574Y0224479D02*
X0053026Y0224479D01*
X0053026Y0224872D02*
X0056574Y0224872D01*
X0056574Y0225265D02*
X0053026Y0225265D01*
X0053026Y0225658D02*
X0056574Y0225658D01*
X0056574Y0226051D02*
X0053026Y0226051D01*
X0053026Y0226444D02*
X0056574Y0226444D01*
X0056574Y0226837D02*
X0053026Y0226837D01*
X0053026Y0227230D02*
X0056574Y0227230D01*
X0056574Y0227623D02*
X0053026Y0227623D01*
X0053026Y0228016D02*
X0056574Y0228016D01*
X0056766Y0236693D02*
X0060314Y0236693D01*
X0060314Y0231569D01*
X0056766Y0231569D01*
X0056766Y0236693D01*
X0056766Y0231962D02*
X0060314Y0231962D01*
X0060314Y0232355D02*
X0056766Y0232355D01*
X0056766Y0232748D02*
X0060314Y0232748D01*
X0060314Y0233141D02*
X0056766Y0233141D01*
X0056766Y0233534D02*
X0060314Y0233534D01*
X0060314Y0233927D02*
X0056766Y0233927D01*
X0056766Y0234320D02*
X0060314Y0234320D01*
X0060314Y0234713D02*
X0056766Y0234713D01*
X0056766Y0235106D02*
X0060314Y0235106D01*
X0060314Y0235499D02*
X0056766Y0235499D01*
X0056766Y0235892D02*
X0060314Y0235892D01*
X0060314Y0236285D02*
X0056766Y0236285D01*
X0056766Y0236678D02*
X0060314Y0236678D01*
X0052834Y0236693D02*
X0049286Y0236693D01*
X0052834Y0236693D02*
X0052834Y0231569D01*
X0049286Y0231569D01*
X0049286Y0236693D01*
X0049286Y0231962D02*
X0052834Y0231962D01*
X0052834Y0232355D02*
X0049286Y0232355D01*
X0049286Y0232748D02*
X0052834Y0232748D01*
X0052834Y0233141D02*
X0049286Y0233141D01*
X0049286Y0233534D02*
X0052834Y0233534D01*
X0052834Y0233927D02*
X0049286Y0233927D01*
X0049286Y0234320D02*
X0052834Y0234320D01*
X0052834Y0234713D02*
X0049286Y0234713D01*
X0049286Y0235106D02*
X0052834Y0235106D01*
X0052834Y0235499D02*
X0049286Y0235499D01*
X0049286Y0235892D02*
X0052834Y0235892D01*
X0052834Y0236285D02*
X0049286Y0236285D01*
X0049286Y0236678D02*
X0052834Y0236678D01*
X0071026Y0250531D02*
X0074574Y0250531D01*
X0074574Y0245407D01*
X0071026Y0245407D01*
X0071026Y0250531D01*
X0071026Y0245800D02*
X0074574Y0245800D01*
X0074574Y0246193D02*
X0071026Y0246193D01*
X0071026Y0246586D02*
X0074574Y0246586D01*
X0074574Y0246979D02*
X0071026Y0246979D01*
X0071026Y0247372D02*
X0074574Y0247372D01*
X0074574Y0247765D02*
X0071026Y0247765D01*
X0071026Y0248158D02*
X0074574Y0248158D01*
X0074574Y0248551D02*
X0071026Y0248551D01*
X0071026Y0248944D02*
X0074574Y0248944D01*
X0074574Y0249337D02*
X0071026Y0249337D01*
X0071026Y0249730D02*
X0074574Y0249730D01*
X0074574Y0250123D02*
X0071026Y0250123D01*
X0071026Y0250516D02*
X0074574Y0250516D01*
X0074766Y0259193D02*
X0078314Y0259193D01*
X0078314Y0254069D01*
X0074766Y0254069D01*
X0074766Y0259193D01*
X0074766Y0254462D02*
X0078314Y0254462D01*
X0078314Y0254855D02*
X0074766Y0254855D01*
X0074766Y0255248D02*
X0078314Y0255248D01*
X0078314Y0255641D02*
X0074766Y0255641D01*
X0074766Y0256034D02*
X0078314Y0256034D01*
X0078314Y0256427D02*
X0074766Y0256427D01*
X0074766Y0256820D02*
X0078314Y0256820D01*
X0078314Y0257213D02*
X0074766Y0257213D01*
X0074766Y0257606D02*
X0078314Y0257606D01*
X0078314Y0257999D02*
X0074766Y0257999D01*
X0074766Y0258392D02*
X0078314Y0258392D01*
X0078314Y0258785D02*
X0074766Y0258785D01*
X0074766Y0259178D02*
X0078314Y0259178D01*
X0070834Y0259193D02*
X0067286Y0259193D01*
X0070834Y0259193D02*
X0070834Y0254069D01*
X0067286Y0254069D01*
X0067286Y0259193D01*
X0067286Y0254462D02*
X0070834Y0254462D01*
X0070834Y0254855D02*
X0067286Y0254855D01*
X0067286Y0255248D02*
X0070834Y0255248D01*
X0070834Y0255641D02*
X0067286Y0255641D01*
X0067286Y0256034D02*
X0070834Y0256034D01*
X0070834Y0256427D02*
X0067286Y0256427D01*
X0067286Y0256820D02*
X0070834Y0256820D01*
X0070834Y0257213D02*
X0067286Y0257213D01*
X0067286Y0257606D02*
X0070834Y0257606D01*
X0070834Y0257999D02*
X0067286Y0257999D01*
X0067286Y0258392D02*
X0070834Y0258392D01*
X0070834Y0258785D02*
X0067286Y0258785D01*
X0067286Y0259178D02*
X0070834Y0259178D01*
X0106907Y0265286D02*
X0106907Y0268834D01*
X0112031Y0268834D01*
X0112031Y0265286D01*
X0106907Y0265286D01*
X0106907Y0265679D02*
X0112031Y0265679D01*
X0112031Y0266072D02*
X0106907Y0266072D01*
X0106907Y0266465D02*
X0112031Y0266465D01*
X0112031Y0266858D02*
X0106907Y0266858D01*
X0106907Y0267251D02*
X0112031Y0267251D01*
X0112031Y0267644D02*
X0106907Y0267644D01*
X0106907Y0268037D02*
X0112031Y0268037D01*
X0112031Y0268430D02*
X0106907Y0268430D01*
X0106907Y0268823D02*
X0112031Y0268823D01*
X0106907Y0272766D02*
X0106907Y0276314D01*
X0112031Y0276314D01*
X0112031Y0272766D01*
X0106907Y0272766D01*
X0106907Y0273159D02*
X0112031Y0273159D01*
X0112031Y0273552D02*
X0106907Y0273552D01*
X0106907Y0273945D02*
X0112031Y0273945D01*
X0112031Y0274338D02*
X0106907Y0274338D01*
X0106907Y0274731D02*
X0112031Y0274731D01*
X0112031Y0275124D02*
X0106907Y0275124D01*
X0106907Y0275517D02*
X0112031Y0275517D01*
X0112031Y0275910D02*
X0106907Y0275910D01*
X0106907Y0276303D02*
X0112031Y0276303D01*
X0115569Y0272574D02*
X0115569Y0269026D01*
X0115569Y0272574D02*
X0120693Y0272574D01*
X0120693Y0269026D01*
X0115569Y0269026D01*
X0115569Y0269419D02*
X0120693Y0269419D01*
X0120693Y0269812D02*
X0115569Y0269812D01*
X0115569Y0270205D02*
X0120693Y0270205D01*
X0120693Y0270598D02*
X0115569Y0270598D01*
X0115569Y0270991D02*
X0120693Y0270991D01*
X0120693Y0271384D02*
X0115569Y0271384D01*
X0115569Y0271777D02*
X0120693Y0271777D01*
X0120693Y0272170D02*
X0115569Y0272170D01*
X0115569Y0272563D02*
X0120693Y0272563D01*
X0133286Y0285693D02*
X0136834Y0285693D01*
X0136834Y0280569D01*
X0133286Y0280569D01*
X0133286Y0285693D01*
X0133286Y0280962D02*
X0136834Y0280962D01*
X0136834Y0281355D02*
X0133286Y0281355D01*
X0133286Y0281748D02*
X0136834Y0281748D01*
X0136834Y0282141D02*
X0133286Y0282141D01*
X0133286Y0282534D02*
X0136834Y0282534D01*
X0136834Y0282927D02*
X0133286Y0282927D01*
X0133286Y0283320D02*
X0136834Y0283320D01*
X0136834Y0283713D02*
X0133286Y0283713D01*
X0133286Y0284106D02*
X0136834Y0284106D01*
X0136834Y0284499D02*
X0133286Y0284499D01*
X0133286Y0284892D02*
X0136834Y0284892D01*
X0136834Y0285285D02*
X0133286Y0285285D01*
X0133286Y0285678D02*
X0136834Y0285678D01*
X0140766Y0285693D02*
X0144314Y0285693D01*
X0144314Y0280569D01*
X0140766Y0280569D01*
X0140766Y0285693D01*
X0140766Y0280962D02*
X0144314Y0280962D01*
X0144314Y0281355D02*
X0140766Y0281355D01*
X0140766Y0281748D02*
X0144314Y0281748D01*
X0144314Y0282141D02*
X0140766Y0282141D01*
X0140766Y0282534D02*
X0144314Y0282534D01*
X0144314Y0282927D02*
X0140766Y0282927D01*
X0140766Y0283320D02*
X0144314Y0283320D01*
X0144314Y0283713D02*
X0140766Y0283713D01*
X0140766Y0284106D02*
X0144314Y0284106D01*
X0144314Y0284499D02*
X0140766Y0284499D01*
X0140766Y0284892D02*
X0144314Y0284892D01*
X0144314Y0285285D02*
X0140766Y0285285D01*
X0140766Y0285678D02*
X0144314Y0285678D01*
X0140574Y0277031D02*
X0137026Y0277031D01*
X0140574Y0277031D02*
X0140574Y0271907D01*
X0137026Y0271907D01*
X0137026Y0277031D01*
X0137026Y0272300D02*
X0140574Y0272300D01*
X0140574Y0272693D02*
X0137026Y0272693D01*
X0137026Y0273086D02*
X0140574Y0273086D01*
X0140574Y0273479D02*
X0137026Y0273479D01*
X0137026Y0273872D02*
X0140574Y0273872D01*
X0140574Y0274265D02*
X0137026Y0274265D01*
X0137026Y0274658D02*
X0140574Y0274658D01*
X0140574Y0275051D02*
X0137026Y0275051D01*
X0137026Y0275444D02*
X0140574Y0275444D01*
X0140574Y0275837D02*
X0137026Y0275837D01*
X0137026Y0276230D02*
X0140574Y0276230D01*
X0140574Y0276623D02*
X0137026Y0276623D01*
X0137026Y0277016D02*
X0140574Y0277016D01*
D24*
X0141800Y0342800D03*
X0131800Y0342800D03*
X0121800Y0342800D03*
X0111800Y0342800D03*
X0092800Y0342800D03*
X0082800Y0342800D03*
X0072800Y0342800D03*
X0062800Y0342800D03*
X0043800Y0342800D03*
X0033800Y0342800D03*
X0023800Y0342800D03*
X0013800Y0342800D03*
D25*
X0234800Y0168312D03*
X0234800Y0157288D03*
D26*
X0118800Y0185800D03*
X0118800Y0223800D03*
D27*
X0232804Y0372824D03*
X0242804Y0372824D03*
X0247804Y0382824D03*
X0237804Y0382824D03*
X0295304Y0372824D03*
X0305304Y0372824D03*
X0310304Y0382824D03*
X0300304Y0382824D03*
X0355304Y0372824D03*
X0365304Y0372824D03*
X0370304Y0382824D03*
X0360304Y0382824D03*
X0363300Y0027800D03*
X0353300Y0027800D03*
X0348300Y0017800D03*
X0358300Y0017800D03*
X0343300Y0027800D03*
X0333300Y0027800D03*
X0328300Y0017800D03*
X0338300Y0017800D03*
X0279300Y0027800D03*
X0269300Y0027800D03*
X0264300Y0017800D03*
X0254300Y0017800D03*
X0249300Y0027800D03*
X0259300Y0027800D03*
X0244300Y0017800D03*
X0274300Y0017800D03*
X0196300Y0027800D03*
X0186300Y0027800D03*
X0181300Y0017800D03*
X0171300Y0017800D03*
X0166300Y0027800D03*
X0176300Y0027800D03*
X0161300Y0017800D03*
X0191300Y0017800D03*
D28*
X0210800Y0018312D03*
X0229800Y0018312D03*
X0227300Y0064800D03*
X0213300Y0064800D03*
X0146800Y0018312D03*
X0144300Y0064800D03*
X0296300Y0064800D03*
X0311300Y0064800D03*
X0313800Y0018312D03*
X0293800Y0018312D03*
X0377800Y0018312D03*
X0380300Y0064800D03*
D29*
X0361900Y0052800D02*
X0361902Y0052960D01*
X0361908Y0053119D01*
X0361918Y0053278D01*
X0361932Y0053437D01*
X0361950Y0053596D01*
X0361971Y0053754D01*
X0361997Y0053911D01*
X0362027Y0054068D01*
X0362060Y0054224D01*
X0362098Y0054379D01*
X0362139Y0054533D01*
X0362184Y0054686D01*
X0362233Y0054838D01*
X0362286Y0054989D01*
X0362342Y0055138D01*
X0362403Y0055286D01*
X0362466Y0055432D01*
X0362534Y0055577D01*
X0362605Y0055720D01*
X0362679Y0055861D01*
X0362757Y0056000D01*
X0362839Y0056137D01*
X0362924Y0056272D01*
X0363012Y0056405D01*
X0363104Y0056536D01*
X0363198Y0056664D01*
X0363296Y0056790D01*
X0363397Y0056914D01*
X0363501Y0057035D01*
X0363608Y0057153D01*
X0363718Y0057269D01*
X0363831Y0057382D01*
X0363947Y0057492D01*
X0364065Y0057599D01*
X0364186Y0057703D01*
X0364310Y0057804D01*
X0364436Y0057902D01*
X0364564Y0057996D01*
X0364695Y0058088D01*
X0364828Y0058176D01*
X0364963Y0058261D01*
X0365100Y0058343D01*
X0365239Y0058421D01*
X0365380Y0058495D01*
X0365523Y0058566D01*
X0365668Y0058634D01*
X0365814Y0058697D01*
X0365962Y0058758D01*
X0366111Y0058814D01*
X0366262Y0058867D01*
X0366414Y0058916D01*
X0366567Y0058961D01*
X0366721Y0059002D01*
X0366876Y0059040D01*
X0367032Y0059073D01*
X0367189Y0059103D01*
X0367346Y0059129D01*
X0367504Y0059150D01*
X0367663Y0059168D01*
X0367822Y0059182D01*
X0367981Y0059192D01*
X0368140Y0059198D01*
X0368300Y0059200D01*
X0368460Y0059198D01*
X0368619Y0059192D01*
X0368778Y0059182D01*
X0368937Y0059168D01*
X0369096Y0059150D01*
X0369254Y0059129D01*
X0369411Y0059103D01*
X0369568Y0059073D01*
X0369724Y0059040D01*
X0369879Y0059002D01*
X0370033Y0058961D01*
X0370186Y0058916D01*
X0370338Y0058867D01*
X0370489Y0058814D01*
X0370638Y0058758D01*
X0370786Y0058697D01*
X0370932Y0058634D01*
X0371077Y0058566D01*
X0371220Y0058495D01*
X0371361Y0058421D01*
X0371500Y0058343D01*
X0371637Y0058261D01*
X0371772Y0058176D01*
X0371905Y0058088D01*
X0372036Y0057996D01*
X0372164Y0057902D01*
X0372290Y0057804D01*
X0372414Y0057703D01*
X0372535Y0057599D01*
X0372653Y0057492D01*
X0372769Y0057382D01*
X0372882Y0057269D01*
X0372992Y0057153D01*
X0373099Y0057035D01*
X0373203Y0056914D01*
X0373304Y0056790D01*
X0373402Y0056664D01*
X0373496Y0056536D01*
X0373588Y0056405D01*
X0373676Y0056272D01*
X0373761Y0056137D01*
X0373843Y0056000D01*
X0373921Y0055861D01*
X0373995Y0055720D01*
X0374066Y0055577D01*
X0374134Y0055432D01*
X0374197Y0055286D01*
X0374258Y0055138D01*
X0374314Y0054989D01*
X0374367Y0054838D01*
X0374416Y0054686D01*
X0374461Y0054533D01*
X0374502Y0054379D01*
X0374540Y0054224D01*
X0374573Y0054068D01*
X0374603Y0053911D01*
X0374629Y0053754D01*
X0374650Y0053596D01*
X0374668Y0053437D01*
X0374682Y0053278D01*
X0374692Y0053119D01*
X0374698Y0052960D01*
X0374700Y0052800D01*
X0374698Y0052640D01*
X0374692Y0052481D01*
X0374682Y0052322D01*
X0374668Y0052163D01*
X0374650Y0052004D01*
X0374629Y0051846D01*
X0374603Y0051689D01*
X0374573Y0051532D01*
X0374540Y0051376D01*
X0374502Y0051221D01*
X0374461Y0051067D01*
X0374416Y0050914D01*
X0374367Y0050762D01*
X0374314Y0050611D01*
X0374258Y0050462D01*
X0374197Y0050314D01*
X0374134Y0050168D01*
X0374066Y0050023D01*
X0373995Y0049880D01*
X0373921Y0049739D01*
X0373843Y0049600D01*
X0373761Y0049463D01*
X0373676Y0049328D01*
X0373588Y0049195D01*
X0373496Y0049064D01*
X0373402Y0048936D01*
X0373304Y0048810D01*
X0373203Y0048686D01*
X0373099Y0048565D01*
X0372992Y0048447D01*
X0372882Y0048331D01*
X0372769Y0048218D01*
X0372653Y0048108D01*
X0372535Y0048001D01*
X0372414Y0047897D01*
X0372290Y0047796D01*
X0372164Y0047698D01*
X0372036Y0047604D01*
X0371905Y0047512D01*
X0371772Y0047424D01*
X0371637Y0047339D01*
X0371500Y0047257D01*
X0371361Y0047179D01*
X0371220Y0047105D01*
X0371077Y0047034D01*
X0370932Y0046966D01*
X0370786Y0046903D01*
X0370638Y0046842D01*
X0370489Y0046786D01*
X0370338Y0046733D01*
X0370186Y0046684D01*
X0370033Y0046639D01*
X0369879Y0046598D01*
X0369724Y0046560D01*
X0369568Y0046527D01*
X0369411Y0046497D01*
X0369254Y0046471D01*
X0369096Y0046450D01*
X0368937Y0046432D01*
X0368778Y0046418D01*
X0368619Y0046408D01*
X0368460Y0046402D01*
X0368300Y0046400D01*
X0368140Y0046402D01*
X0367981Y0046408D01*
X0367822Y0046418D01*
X0367663Y0046432D01*
X0367504Y0046450D01*
X0367346Y0046471D01*
X0367189Y0046497D01*
X0367032Y0046527D01*
X0366876Y0046560D01*
X0366721Y0046598D01*
X0366567Y0046639D01*
X0366414Y0046684D01*
X0366262Y0046733D01*
X0366111Y0046786D01*
X0365962Y0046842D01*
X0365814Y0046903D01*
X0365668Y0046966D01*
X0365523Y0047034D01*
X0365380Y0047105D01*
X0365239Y0047179D01*
X0365100Y0047257D01*
X0364963Y0047339D01*
X0364828Y0047424D01*
X0364695Y0047512D01*
X0364564Y0047604D01*
X0364436Y0047698D01*
X0364310Y0047796D01*
X0364186Y0047897D01*
X0364065Y0048001D01*
X0363947Y0048108D01*
X0363831Y0048218D01*
X0363718Y0048331D01*
X0363608Y0048447D01*
X0363501Y0048565D01*
X0363397Y0048686D01*
X0363296Y0048810D01*
X0363198Y0048936D01*
X0363104Y0049064D01*
X0363012Y0049195D01*
X0362924Y0049328D01*
X0362839Y0049463D01*
X0362757Y0049600D01*
X0362679Y0049739D01*
X0362605Y0049880D01*
X0362534Y0050023D01*
X0362466Y0050168D01*
X0362403Y0050314D01*
X0362342Y0050462D01*
X0362286Y0050611D01*
X0362233Y0050762D01*
X0362184Y0050914D01*
X0362139Y0051067D01*
X0362098Y0051221D01*
X0362060Y0051376D01*
X0362027Y0051532D01*
X0361997Y0051689D01*
X0361971Y0051846D01*
X0361950Y0052004D01*
X0361932Y0052163D01*
X0361918Y0052322D01*
X0361908Y0052481D01*
X0361902Y0052640D01*
X0361900Y0052800D01*
X0316900Y0052800D02*
X0316902Y0052960D01*
X0316908Y0053119D01*
X0316918Y0053278D01*
X0316932Y0053437D01*
X0316950Y0053596D01*
X0316971Y0053754D01*
X0316997Y0053911D01*
X0317027Y0054068D01*
X0317060Y0054224D01*
X0317098Y0054379D01*
X0317139Y0054533D01*
X0317184Y0054686D01*
X0317233Y0054838D01*
X0317286Y0054989D01*
X0317342Y0055138D01*
X0317403Y0055286D01*
X0317466Y0055432D01*
X0317534Y0055577D01*
X0317605Y0055720D01*
X0317679Y0055861D01*
X0317757Y0056000D01*
X0317839Y0056137D01*
X0317924Y0056272D01*
X0318012Y0056405D01*
X0318104Y0056536D01*
X0318198Y0056664D01*
X0318296Y0056790D01*
X0318397Y0056914D01*
X0318501Y0057035D01*
X0318608Y0057153D01*
X0318718Y0057269D01*
X0318831Y0057382D01*
X0318947Y0057492D01*
X0319065Y0057599D01*
X0319186Y0057703D01*
X0319310Y0057804D01*
X0319436Y0057902D01*
X0319564Y0057996D01*
X0319695Y0058088D01*
X0319828Y0058176D01*
X0319963Y0058261D01*
X0320100Y0058343D01*
X0320239Y0058421D01*
X0320380Y0058495D01*
X0320523Y0058566D01*
X0320668Y0058634D01*
X0320814Y0058697D01*
X0320962Y0058758D01*
X0321111Y0058814D01*
X0321262Y0058867D01*
X0321414Y0058916D01*
X0321567Y0058961D01*
X0321721Y0059002D01*
X0321876Y0059040D01*
X0322032Y0059073D01*
X0322189Y0059103D01*
X0322346Y0059129D01*
X0322504Y0059150D01*
X0322663Y0059168D01*
X0322822Y0059182D01*
X0322981Y0059192D01*
X0323140Y0059198D01*
X0323300Y0059200D01*
X0323460Y0059198D01*
X0323619Y0059192D01*
X0323778Y0059182D01*
X0323937Y0059168D01*
X0324096Y0059150D01*
X0324254Y0059129D01*
X0324411Y0059103D01*
X0324568Y0059073D01*
X0324724Y0059040D01*
X0324879Y0059002D01*
X0325033Y0058961D01*
X0325186Y0058916D01*
X0325338Y0058867D01*
X0325489Y0058814D01*
X0325638Y0058758D01*
X0325786Y0058697D01*
X0325932Y0058634D01*
X0326077Y0058566D01*
X0326220Y0058495D01*
X0326361Y0058421D01*
X0326500Y0058343D01*
X0326637Y0058261D01*
X0326772Y0058176D01*
X0326905Y0058088D01*
X0327036Y0057996D01*
X0327164Y0057902D01*
X0327290Y0057804D01*
X0327414Y0057703D01*
X0327535Y0057599D01*
X0327653Y0057492D01*
X0327769Y0057382D01*
X0327882Y0057269D01*
X0327992Y0057153D01*
X0328099Y0057035D01*
X0328203Y0056914D01*
X0328304Y0056790D01*
X0328402Y0056664D01*
X0328496Y0056536D01*
X0328588Y0056405D01*
X0328676Y0056272D01*
X0328761Y0056137D01*
X0328843Y0056000D01*
X0328921Y0055861D01*
X0328995Y0055720D01*
X0329066Y0055577D01*
X0329134Y0055432D01*
X0329197Y0055286D01*
X0329258Y0055138D01*
X0329314Y0054989D01*
X0329367Y0054838D01*
X0329416Y0054686D01*
X0329461Y0054533D01*
X0329502Y0054379D01*
X0329540Y0054224D01*
X0329573Y0054068D01*
X0329603Y0053911D01*
X0329629Y0053754D01*
X0329650Y0053596D01*
X0329668Y0053437D01*
X0329682Y0053278D01*
X0329692Y0053119D01*
X0329698Y0052960D01*
X0329700Y0052800D01*
X0329698Y0052640D01*
X0329692Y0052481D01*
X0329682Y0052322D01*
X0329668Y0052163D01*
X0329650Y0052004D01*
X0329629Y0051846D01*
X0329603Y0051689D01*
X0329573Y0051532D01*
X0329540Y0051376D01*
X0329502Y0051221D01*
X0329461Y0051067D01*
X0329416Y0050914D01*
X0329367Y0050762D01*
X0329314Y0050611D01*
X0329258Y0050462D01*
X0329197Y0050314D01*
X0329134Y0050168D01*
X0329066Y0050023D01*
X0328995Y0049880D01*
X0328921Y0049739D01*
X0328843Y0049600D01*
X0328761Y0049463D01*
X0328676Y0049328D01*
X0328588Y0049195D01*
X0328496Y0049064D01*
X0328402Y0048936D01*
X0328304Y0048810D01*
X0328203Y0048686D01*
X0328099Y0048565D01*
X0327992Y0048447D01*
X0327882Y0048331D01*
X0327769Y0048218D01*
X0327653Y0048108D01*
X0327535Y0048001D01*
X0327414Y0047897D01*
X0327290Y0047796D01*
X0327164Y0047698D01*
X0327036Y0047604D01*
X0326905Y0047512D01*
X0326772Y0047424D01*
X0326637Y0047339D01*
X0326500Y0047257D01*
X0326361Y0047179D01*
X0326220Y0047105D01*
X0326077Y0047034D01*
X0325932Y0046966D01*
X0325786Y0046903D01*
X0325638Y0046842D01*
X0325489Y0046786D01*
X0325338Y0046733D01*
X0325186Y0046684D01*
X0325033Y0046639D01*
X0324879Y0046598D01*
X0324724Y0046560D01*
X0324568Y0046527D01*
X0324411Y0046497D01*
X0324254Y0046471D01*
X0324096Y0046450D01*
X0323937Y0046432D01*
X0323778Y0046418D01*
X0323619Y0046408D01*
X0323460Y0046402D01*
X0323300Y0046400D01*
X0323140Y0046402D01*
X0322981Y0046408D01*
X0322822Y0046418D01*
X0322663Y0046432D01*
X0322504Y0046450D01*
X0322346Y0046471D01*
X0322189Y0046497D01*
X0322032Y0046527D01*
X0321876Y0046560D01*
X0321721Y0046598D01*
X0321567Y0046639D01*
X0321414Y0046684D01*
X0321262Y0046733D01*
X0321111Y0046786D01*
X0320962Y0046842D01*
X0320814Y0046903D01*
X0320668Y0046966D01*
X0320523Y0047034D01*
X0320380Y0047105D01*
X0320239Y0047179D01*
X0320100Y0047257D01*
X0319963Y0047339D01*
X0319828Y0047424D01*
X0319695Y0047512D01*
X0319564Y0047604D01*
X0319436Y0047698D01*
X0319310Y0047796D01*
X0319186Y0047897D01*
X0319065Y0048001D01*
X0318947Y0048108D01*
X0318831Y0048218D01*
X0318718Y0048331D01*
X0318608Y0048447D01*
X0318501Y0048565D01*
X0318397Y0048686D01*
X0318296Y0048810D01*
X0318198Y0048936D01*
X0318104Y0049064D01*
X0318012Y0049195D01*
X0317924Y0049328D01*
X0317839Y0049463D01*
X0317757Y0049600D01*
X0317679Y0049739D01*
X0317605Y0049880D01*
X0317534Y0050023D01*
X0317466Y0050168D01*
X0317403Y0050314D01*
X0317342Y0050462D01*
X0317286Y0050611D01*
X0317233Y0050762D01*
X0317184Y0050914D01*
X0317139Y0051067D01*
X0317098Y0051221D01*
X0317060Y0051376D01*
X0317027Y0051532D01*
X0316997Y0051689D01*
X0316971Y0051846D01*
X0316950Y0052004D01*
X0316932Y0052163D01*
X0316918Y0052322D01*
X0316908Y0052481D01*
X0316902Y0052640D01*
X0316900Y0052800D01*
X0277900Y0052800D02*
X0277902Y0052960D01*
X0277908Y0053119D01*
X0277918Y0053278D01*
X0277932Y0053437D01*
X0277950Y0053596D01*
X0277971Y0053754D01*
X0277997Y0053911D01*
X0278027Y0054068D01*
X0278060Y0054224D01*
X0278098Y0054379D01*
X0278139Y0054533D01*
X0278184Y0054686D01*
X0278233Y0054838D01*
X0278286Y0054989D01*
X0278342Y0055138D01*
X0278403Y0055286D01*
X0278466Y0055432D01*
X0278534Y0055577D01*
X0278605Y0055720D01*
X0278679Y0055861D01*
X0278757Y0056000D01*
X0278839Y0056137D01*
X0278924Y0056272D01*
X0279012Y0056405D01*
X0279104Y0056536D01*
X0279198Y0056664D01*
X0279296Y0056790D01*
X0279397Y0056914D01*
X0279501Y0057035D01*
X0279608Y0057153D01*
X0279718Y0057269D01*
X0279831Y0057382D01*
X0279947Y0057492D01*
X0280065Y0057599D01*
X0280186Y0057703D01*
X0280310Y0057804D01*
X0280436Y0057902D01*
X0280564Y0057996D01*
X0280695Y0058088D01*
X0280828Y0058176D01*
X0280963Y0058261D01*
X0281100Y0058343D01*
X0281239Y0058421D01*
X0281380Y0058495D01*
X0281523Y0058566D01*
X0281668Y0058634D01*
X0281814Y0058697D01*
X0281962Y0058758D01*
X0282111Y0058814D01*
X0282262Y0058867D01*
X0282414Y0058916D01*
X0282567Y0058961D01*
X0282721Y0059002D01*
X0282876Y0059040D01*
X0283032Y0059073D01*
X0283189Y0059103D01*
X0283346Y0059129D01*
X0283504Y0059150D01*
X0283663Y0059168D01*
X0283822Y0059182D01*
X0283981Y0059192D01*
X0284140Y0059198D01*
X0284300Y0059200D01*
X0284460Y0059198D01*
X0284619Y0059192D01*
X0284778Y0059182D01*
X0284937Y0059168D01*
X0285096Y0059150D01*
X0285254Y0059129D01*
X0285411Y0059103D01*
X0285568Y0059073D01*
X0285724Y0059040D01*
X0285879Y0059002D01*
X0286033Y0058961D01*
X0286186Y0058916D01*
X0286338Y0058867D01*
X0286489Y0058814D01*
X0286638Y0058758D01*
X0286786Y0058697D01*
X0286932Y0058634D01*
X0287077Y0058566D01*
X0287220Y0058495D01*
X0287361Y0058421D01*
X0287500Y0058343D01*
X0287637Y0058261D01*
X0287772Y0058176D01*
X0287905Y0058088D01*
X0288036Y0057996D01*
X0288164Y0057902D01*
X0288290Y0057804D01*
X0288414Y0057703D01*
X0288535Y0057599D01*
X0288653Y0057492D01*
X0288769Y0057382D01*
X0288882Y0057269D01*
X0288992Y0057153D01*
X0289099Y0057035D01*
X0289203Y0056914D01*
X0289304Y0056790D01*
X0289402Y0056664D01*
X0289496Y0056536D01*
X0289588Y0056405D01*
X0289676Y0056272D01*
X0289761Y0056137D01*
X0289843Y0056000D01*
X0289921Y0055861D01*
X0289995Y0055720D01*
X0290066Y0055577D01*
X0290134Y0055432D01*
X0290197Y0055286D01*
X0290258Y0055138D01*
X0290314Y0054989D01*
X0290367Y0054838D01*
X0290416Y0054686D01*
X0290461Y0054533D01*
X0290502Y0054379D01*
X0290540Y0054224D01*
X0290573Y0054068D01*
X0290603Y0053911D01*
X0290629Y0053754D01*
X0290650Y0053596D01*
X0290668Y0053437D01*
X0290682Y0053278D01*
X0290692Y0053119D01*
X0290698Y0052960D01*
X0290700Y0052800D01*
X0290698Y0052640D01*
X0290692Y0052481D01*
X0290682Y0052322D01*
X0290668Y0052163D01*
X0290650Y0052004D01*
X0290629Y0051846D01*
X0290603Y0051689D01*
X0290573Y0051532D01*
X0290540Y0051376D01*
X0290502Y0051221D01*
X0290461Y0051067D01*
X0290416Y0050914D01*
X0290367Y0050762D01*
X0290314Y0050611D01*
X0290258Y0050462D01*
X0290197Y0050314D01*
X0290134Y0050168D01*
X0290066Y0050023D01*
X0289995Y0049880D01*
X0289921Y0049739D01*
X0289843Y0049600D01*
X0289761Y0049463D01*
X0289676Y0049328D01*
X0289588Y0049195D01*
X0289496Y0049064D01*
X0289402Y0048936D01*
X0289304Y0048810D01*
X0289203Y0048686D01*
X0289099Y0048565D01*
X0288992Y0048447D01*
X0288882Y0048331D01*
X0288769Y0048218D01*
X0288653Y0048108D01*
X0288535Y0048001D01*
X0288414Y0047897D01*
X0288290Y0047796D01*
X0288164Y0047698D01*
X0288036Y0047604D01*
X0287905Y0047512D01*
X0287772Y0047424D01*
X0287637Y0047339D01*
X0287500Y0047257D01*
X0287361Y0047179D01*
X0287220Y0047105D01*
X0287077Y0047034D01*
X0286932Y0046966D01*
X0286786Y0046903D01*
X0286638Y0046842D01*
X0286489Y0046786D01*
X0286338Y0046733D01*
X0286186Y0046684D01*
X0286033Y0046639D01*
X0285879Y0046598D01*
X0285724Y0046560D01*
X0285568Y0046527D01*
X0285411Y0046497D01*
X0285254Y0046471D01*
X0285096Y0046450D01*
X0284937Y0046432D01*
X0284778Y0046418D01*
X0284619Y0046408D01*
X0284460Y0046402D01*
X0284300Y0046400D01*
X0284140Y0046402D01*
X0283981Y0046408D01*
X0283822Y0046418D01*
X0283663Y0046432D01*
X0283504Y0046450D01*
X0283346Y0046471D01*
X0283189Y0046497D01*
X0283032Y0046527D01*
X0282876Y0046560D01*
X0282721Y0046598D01*
X0282567Y0046639D01*
X0282414Y0046684D01*
X0282262Y0046733D01*
X0282111Y0046786D01*
X0281962Y0046842D01*
X0281814Y0046903D01*
X0281668Y0046966D01*
X0281523Y0047034D01*
X0281380Y0047105D01*
X0281239Y0047179D01*
X0281100Y0047257D01*
X0280963Y0047339D01*
X0280828Y0047424D01*
X0280695Y0047512D01*
X0280564Y0047604D01*
X0280436Y0047698D01*
X0280310Y0047796D01*
X0280186Y0047897D01*
X0280065Y0048001D01*
X0279947Y0048108D01*
X0279831Y0048218D01*
X0279718Y0048331D01*
X0279608Y0048447D01*
X0279501Y0048565D01*
X0279397Y0048686D01*
X0279296Y0048810D01*
X0279198Y0048936D01*
X0279104Y0049064D01*
X0279012Y0049195D01*
X0278924Y0049328D01*
X0278839Y0049463D01*
X0278757Y0049600D01*
X0278679Y0049739D01*
X0278605Y0049880D01*
X0278534Y0050023D01*
X0278466Y0050168D01*
X0278403Y0050314D01*
X0278342Y0050462D01*
X0278286Y0050611D01*
X0278233Y0050762D01*
X0278184Y0050914D01*
X0278139Y0051067D01*
X0278098Y0051221D01*
X0278060Y0051376D01*
X0278027Y0051532D01*
X0277997Y0051689D01*
X0277971Y0051846D01*
X0277950Y0052004D01*
X0277932Y0052163D01*
X0277918Y0052322D01*
X0277908Y0052481D01*
X0277902Y0052640D01*
X0277900Y0052800D01*
X0232900Y0052800D02*
X0232902Y0052960D01*
X0232908Y0053119D01*
X0232918Y0053278D01*
X0232932Y0053437D01*
X0232950Y0053596D01*
X0232971Y0053754D01*
X0232997Y0053911D01*
X0233027Y0054068D01*
X0233060Y0054224D01*
X0233098Y0054379D01*
X0233139Y0054533D01*
X0233184Y0054686D01*
X0233233Y0054838D01*
X0233286Y0054989D01*
X0233342Y0055138D01*
X0233403Y0055286D01*
X0233466Y0055432D01*
X0233534Y0055577D01*
X0233605Y0055720D01*
X0233679Y0055861D01*
X0233757Y0056000D01*
X0233839Y0056137D01*
X0233924Y0056272D01*
X0234012Y0056405D01*
X0234104Y0056536D01*
X0234198Y0056664D01*
X0234296Y0056790D01*
X0234397Y0056914D01*
X0234501Y0057035D01*
X0234608Y0057153D01*
X0234718Y0057269D01*
X0234831Y0057382D01*
X0234947Y0057492D01*
X0235065Y0057599D01*
X0235186Y0057703D01*
X0235310Y0057804D01*
X0235436Y0057902D01*
X0235564Y0057996D01*
X0235695Y0058088D01*
X0235828Y0058176D01*
X0235963Y0058261D01*
X0236100Y0058343D01*
X0236239Y0058421D01*
X0236380Y0058495D01*
X0236523Y0058566D01*
X0236668Y0058634D01*
X0236814Y0058697D01*
X0236962Y0058758D01*
X0237111Y0058814D01*
X0237262Y0058867D01*
X0237414Y0058916D01*
X0237567Y0058961D01*
X0237721Y0059002D01*
X0237876Y0059040D01*
X0238032Y0059073D01*
X0238189Y0059103D01*
X0238346Y0059129D01*
X0238504Y0059150D01*
X0238663Y0059168D01*
X0238822Y0059182D01*
X0238981Y0059192D01*
X0239140Y0059198D01*
X0239300Y0059200D01*
X0239460Y0059198D01*
X0239619Y0059192D01*
X0239778Y0059182D01*
X0239937Y0059168D01*
X0240096Y0059150D01*
X0240254Y0059129D01*
X0240411Y0059103D01*
X0240568Y0059073D01*
X0240724Y0059040D01*
X0240879Y0059002D01*
X0241033Y0058961D01*
X0241186Y0058916D01*
X0241338Y0058867D01*
X0241489Y0058814D01*
X0241638Y0058758D01*
X0241786Y0058697D01*
X0241932Y0058634D01*
X0242077Y0058566D01*
X0242220Y0058495D01*
X0242361Y0058421D01*
X0242500Y0058343D01*
X0242637Y0058261D01*
X0242772Y0058176D01*
X0242905Y0058088D01*
X0243036Y0057996D01*
X0243164Y0057902D01*
X0243290Y0057804D01*
X0243414Y0057703D01*
X0243535Y0057599D01*
X0243653Y0057492D01*
X0243769Y0057382D01*
X0243882Y0057269D01*
X0243992Y0057153D01*
X0244099Y0057035D01*
X0244203Y0056914D01*
X0244304Y0056790D01*
X0244402Y0056664D01*
X0244496Y0056536D01*
X0244588Y0056405D01*
X0244676Y0056272D01*
X0244761Y0056137D01*
X0244843Y0056000D01*
X0244921Y0055861D01*
X0244995Y0055720D01*
X0245066Y0055577D01*
X0245134Y0055432D01*
X0245197Y0055286D01*
X0245258Y0055138D01*
X0245314Y0054989D01*
X0245367Y0054838D01*
X0245416Y0054686D01*
X0245461Y0054533D01*
X0245502Y0054379D01*
X0245540Y0054224D01*
X0245573Y0054068D01*
X0245603Y0053911D01*
X0245629Y0053754D01*
X0245650Y0053596D01*
X0245668Y0053437D01*
X0245682Y0053278D01*
X0245692Y0053119D01*
X0245698Y0052960D01*
X0245700Y0052800D01*
X0245698Y0052640D01*
X0245692Y0052481D01*
X0245682Y0052322D01*
X0245668Y0052163D01*
X0245650Y0052004D01*
X0245629Y0051846D01*
X0245603Y0051689D01*
X0245573Y0051532D01*
X0245540Y0051376D01*
X0245502Y0051221D01*
X0245461Y0051067D01*
X0245416Y0050914D01*
X0245367Y0050762D01*
X0245314Y0050611D01*
X0245258Y0050462D01*
X0245197Y0050314D01*
X0245134Y0050168D01*
X0245066Y0050023D01*
X0244995Y0049880D01*
X0244921Y0049739D01*
X0244843Y0049600D01*
X0244761Y0049463D01*
X0244676Y0049328D01*
X0244588Y0049195D01*
X0244496Y0049064D01*
X0244402Y0048936D01*
X0244304Y0048810D01*
X0244203Y0048686D01*
X0244099Y0048565D01*
X0243992Y0048447D01*
X0243882Y0048331D01*
X0243769Y0048218D01*
X0243653Y0048108D01*
X0243535Y0048001D01*
X0243414Y0047897D01*
X0243290Y0047796D01*
X0243164Y0047698D01*
X0243036Y0047604D01*
X0242905Y0047512D01*
X0242772Y0047424D01*
X0242637Y0047339D01*
X0242500Y0047257D01*
X0242361Y0047179D01*
X0242220Y0047105D01*
X0242077Y0047034D01*
X0241932Y0046966D01*
X0241786Y0046903D01*
X0241638Y0046842D01*
X0241489Y0046786D01*
X0241338Y0046733D01*
X0241186Y0046684D01*
X0241033Y0046639D01*
X0240879Y0046598D01*
X0240724Y0046560D01*
X0240568Y0046527D01*
X0240411Y0046497D01*
X0240254Y0046471D01*
X0240096Y0046450D01*
X0239937Y0046432D01*
X0239778Y0046418D01*
X0239619Y0046408D01*
X0239460Y0046402D01*
X0239300Y0046400D01*
X0239140Y0046402D01*
X0238981Y0046408D01*
X0238822Y0046418D01*
X0238663Y0046432D01*
X0238504Y0046450D01*
X0238346Y0046471D01*
X0238189Y0046497D01*
X0238032Y0046527D01*
X0237876Y0046560D01*
X0237721Y0046598D01*
X0237567Y0046639D01*
X0237414Y0046684D01*
X0237262Y0046733D01*
X0237111Y0046786D01*
X0236962Y0046842D01*
X0236814Y0046903D01*
X0236668Y0046966D01*
X0236523Y0047034D01*
X0236380Y0047105D01*
X0236239Y0047179D01*
X0236100Y0047257D01*
X0235963Y0047339D01*
X0235828Y0047424D01*
X0235695Y0047512D01*
X0235564Y0047604D01*
X0235436Y0047698D01*
X0235310Y0047796D01*
X0235186Y0047897D01*
X0235065Y0048001D01*
X0234947Y0048108D01*
X0234831Y0048218D01*
X0234718Y0048331D01*
X0234608Y0048447D01*
X0234501Y0048565D01*
X0234397Y0048686D01*
X0234296Y0048810D01*
X0234198Y0048936D01*
X0234104Y0049064D01*
X0234012Y0049195D01*
X0233924Y0049328D01*
X0233839Y0049463D01*
X0233757Y0049600D01*
X0233679Y0049739D01*
X0233605Y0049880D01*
X0233534Y0050023D01*
X0233466Y0050168D01*
X0233403Y0050314D01*
X0233342Y0050462D01*
X0233286Y0050611D01*
X0233233Y0050762D01*
X0233184Y0050914D01*
X0233139Y0051067D01*
X0233098Y0051221D01*
X0233060Y0051376D01*
X0233027Y0051532D01*
X0232997Y0051689D01*
X0232971Y0051846D01*
X0232950Y0052004D01*
X0232932Y0052163D01*
X0232918Y0052322D01*
X0232908Y0052481D01*
X0232902Y0052640D01*
X0232900Y0052800D01*
X0194900Y0052800D02*
X0194902Y0052960D01*
X0194908Y0053119D01*
X0194918Y0053278D01*
X0194932Y0053437D01*
X0194950Y0053596D01*
X0194971Y0053754D01*
X0194997Y0053911D01*
X0195027Y0054068D01*
X0195060Y0054224D01*
X0195098Y0054379D01*
X0195139Y0054533D01*
X0195184Y0054686D01*
X0195233Y0054838D01*
X0195286Y0054989D01*
X0195342Y0055138D01*
X0195403Y0055286D01*
X0195466Y0055432D01*
X0195534Y0055577D01*
X0195605Y0055720D01*
X0195679Y0055861D01*
X0195757Y0056000D01*
X0195839Y0056137D01*
X0195924Y0056272D01*
X0196012Y0056405D01*
X0196104Y0056536D01*
X0196198Y0056664D01*
X0196296Y0056790D01*
X0196397Y0056914D01*
X0196501Y0057035D01*
X0196608Y0057153D01*
X0196718Y0057269D01*
X0196831Y0057382D01*
X0196947Y0057492D01*
X0197065Y0057599D01*
X0197186Y0057703D01*
X0197310Y0057804D01*
X0197436Y0057902D01*
X0197564Y0057996D01*
X0197695Y0058088D01*
X0197828Y0058176D01*
X0197963Y0058261D01*
X0198100Y0058343D01*
X0198239Y0058421D01*
X0198380Y0058495D01*
X0198523Y0058566D01*
X0198668Y0058634D01*
X0198814Y0058697D01*
X0198962Y0058758D01*
X0199111Y0058814D01*
X0199262Y0058867D01*
X0199414Y0058916D01*
X0199567Y0058961D01*
X0199721Y0059002D01*
X0199876Y0059040D01*
X0200032Y0059073D01*
X0200189Y0059103D01*
X0200346Y0059129D01*
X0200504Y0059150D01*
X0200663Y0059168D01*
X0200822Y0059182D01*
X0200981Y0059192D01*
X0201140Y0059198D01*
X0201300Y0059200D01*
X0201460Y0059198D01*
X0201619Y0059192D01*
X0201778Y0059182D01*
X0201937Y0059168D01*
X0202096Y0059150D01*
X0202254Y0059129D01*
X0202411Y0059103D01*
X0202568Y0059073D01*
X0202724Y0059040D01*
X0202879Y0059002D01*
X0203033Y0058961D01*
X0203186Y0058916D01*
X0203338Y0058867D01*
X0203489Y0058814D01*
X0203638Y0058758D01*
X0203786Y0058697D01*
X0203932Y0058634D01*
X0204077Y0058566D01*
X0204220Y0058495D01*
X0204361Y0058421D01*
X0204500Y0058343D01*
X0204637Y0058261D01*
X0204772Y0058176D01*
X0204905Y0058088D01*
X0205036Y0057996D01*
X0205164Y0057902D01*
X0205290Y0057804D01*
X0205414Y0057703D01*
X0205535Y0057599D01*
X0205653Y0057492D01*
X0205769Y0057382D01*
X0205882Y0057269D01*
X0205992Y0057153D01*
X0206099Y0057035D01*
X0206203Y0056914D01*
X0206304Y0056790D01*
X0206402Y0056664D01*
X0206496Y0056536D01*
X0206588Y0056405D01*
X0206676Y0056272D01*
X0206761Y0056137D01*
X0206843Y0056000D01*
X0206921Y0055861D01*
X0206995Y0055720D01*
X0207066Y0055577D01*
X0207134Y0055432D01*
X0207197Y0055286D01*
X0207258Y0055138D01*
X0207314Y0054989D01*
X0207367Y0054838D01*
X0207416Y0054686D01*
X0207461Y0054533D01*
X0207502Y0054379D01*
X0207540Y0054224D01*
X0207573Y0054068D01*
X0207603Y0053911D01*
X0207629Y0053754D01*
X0207650Y0053596D01*
X0207668Y0053437D01*
X0207682Y0053278D01*
X0207692Y0053119D01*
X0207698Y0052960D01*
X0207700Y0052800D01*
X0207698Y0052640D01*
X0207692Y0052481D01*
X0207682Y0052322D01*
X0207668Y0052163D01*
X0207650Y0052004D01*
X0207629Y0051846D01*
X0207603Y0051689D01*
X0207573Y0051532D01*
X0207540Y0051376D01*
X0207502Y0051221D01*
X0207461Y0051067D01*
X0207416Y0050914D01*
X0207367Y0050762D01*
X0207314Y0050611D01*
X0207258Y0050462D01*
X0207197Y0050314D01*
X0207134Y0050168D01*
X0207066Y0050023D01*
X0206995Y0049880D01*
X0206921Y0049739D01*
X0206843Y0049600D01*
X0206761Y0049463D01*
X0206676Y0049328D01*
X0206588Y0049195D01*
X0206496Y0049064D01*
X0206402Y0048936D01*
X0206304Y0048810D01*
X0206203Y0048686D01*
X0206099Y0048565D01*
X0205992Y0048447D01*
X0205882Y0048331D01*
X0205769Y0048218D01*
X0205653Y0048108D01*
X0205535Y0048001D01*
X0205414Y0047897D01*
X0205290Y0047796D01*
X0205164Y0047698D01*
X0205036Y0047604D01*
X0204905Y0047512D01*
X0204772Y0047424D01*
X0204637Y0047339D01*
X0204500Y0047257D01*
X0204361Y0047179D01*
X0204220Y0047105D01*
X0204077Y0047034D01*
X0203932Y0046966D01*
X0203786Y0046903D01*
X0203638Y0046842D01*
X0203489Y0046786D01*
X0203338Y0046733D01*
X0203186Y0046684D01*
X0203033Y0046639D01*
X0202879Y0046598D01*
X0202724Y0046560D01*
X0202568Y0046527D01*
X0202411Y0046497D01*
X0202254Y0046471D01*
X0202096Y0046450D01*
X0201937Y0046432D01*
X0201778Y0046418D01*
X0201619Y0046408D01*
X0201460Y0046402D01*
X0201300Y0046400D01*
X0201140Y0046402D01*
X0200981Y0046408D01*
X0200822Y0046418D01*
X0200663Y0046432D01*
X0200504Y0046450D01*
X0200346Y0046471D01*
X0200189Y0046497D01*
X0200032Y0046527D01*
X0199876Y0046560D01*
X0199721Y0046598D01*
X0199567Y0046639D01*
X0199414Y0046684D01*
X0199262Y0046733D01*
X0199111Y0046786D01*
X0198962Y0046842D01*
X0198814Y0046903D01*
X0198668Y0046966D01*
X0198523Y0047034D01*
X0198380Y0047105D01*
X0198239Y0047179D01*
X0198100Y0047257D01*
X0197963Y0047339D01*
X0197828Y0047424D01*
X0197695Y0047512D01*
X0197564Y0047604D01*
X0197436Y0047698D01*
X0197310Y0047796D01*
X0197186Y0047897D01*
X0197065Y0048001D01*
X0196947Y0048108D01*
X0196831Y0048218D01*
X0196718Y0048331D01*
X0196608Y0048447D01*
X0196501Y0048565D01*
X0196397Y0048686D01*
X0196296Y0048810D01*
X0196198Y0048936D01*
X0196104Y0049064D01*
X0196012Y0049195D01*
X0195924Y0049328D01*
X0195839Y0049463D01*
X0195757Y0049600D01*
X0195679Y0049739D01*
X0195605Y0049880D01*
X0195534Y0050023D01*
X0195466Y0050168D01*
X0195403Y0050314D01*
X0195342Y0050462D01*
X0195286Y0050611D01*
X0195233Y0050762D01*
X0195184Y0050914D01*
X0195139Y0051067D01*
X0195098Y0051221D01*
X0195060Y0051376D01*
X0195027Y0051532D01*
X0194997Y0051689D01*
X0194971Y0051846D01*
X0194950Y0052004D01*
X0194932Y0052163D01*
X0194918Y0052322D01*
X0194908Y0052481D01*
X0194902Y0052640D01*
X0194900Y0052800D01*
X0149900Y0052800D02*
X0149902Y0052960D01*
X0149908Y0053119D01*
X0149918Y0053278D01*
X0149932Y0053437D01*
X0149950Y0053596D01*
X0149971Y0053754D01*
X0149997Y0053911D01*
X0150027Y0054068D01*
X0150060Y0054224D01*
X0150098Y0054379D01*
X0150139Y0054533D01*
X0150184Y0054686D01*
X0150233Y0054838D01*
X0150286Y0054989D01*
X0150342Y0055138D01*
X0150403Y0055286D01*
X0150466Y0055432D01*
X0150534Y0055577D01*
X0150605Y0055720D01*
X0150679Y0055861D01*
X0150757Y0056000D01*
X0150839Y0056137D01*
X0150924Y0056272D01*
X0151012Y0056405D01*
X0151104Y0056536D01*
X0151198Y0056664D01*
X0151296Y0056790D01*
X0151397Y0056914D01*
X0151501Y0057035D01*
X0151608Y0057153D01*
X0151718Y0057269D01*
X0151831Y0057382D01*
X0151947Y0057492D01*
X0152065Y0057599D01*
X0152186Y0057703D01*
X0152310Y0057804D01*
X0152436Y0057902D01*
X0152564Y0057996D01*
X0152695Y0058088D01*
X0152828Y0058176D01*
X0152963Y0058261D01*
X0153100Y0058343D01*
X0153239Y0058421D01*
X0153380Y0058495D01*
X0153523Y0058566D01*
X0153668Y0058634D01*
X0153814Y0058697D01*
X0153962Y0058758D01*
X0154111Y0058814D01*
X0154262Y0058867D01*
X0154414Y0058916D01*
X0154567Y0058961D01*
X0154721Y0059002D01*
X0154876Y0059040D01*
X0155032Y0059073D01*
X0155189Y0059103D01*
X0155346Y0059129D01*
X0155504Y0059150D01*
X0155663Y0059168D01*
X0155822Y0059182D01*
X0155981Y0059192D01*
X0156140Y0059198D01*
X0156300Y0059200D01*
X0156460Y0059198D01*
X0156619Y0059192D01*
X0156778Y0059182D01*
X0156937Y0059168D01*
X0157096Y0059150D01*
X0157254Y0059129D01*
X0157411Y0059103D01*
X0157568Y0059073D01*
X0157724Y0059040D01*
X0157879Y0059002D01*
X0158033Y0058961D01*
X0158186Y0058916D01*
X0158338Y0058867D01*
X0158489Y0058814D01*
X0158638Y0058758D01*
X0158786Y0058697D01*
X0158932Y0058634D01*
X0159077Y0058566D01*
X0159220Y0058495D01*
X0159361Y0058421D01*
X0159500Y0058343D01*
X0159637Y0058261D01*
X0159772Y0058176D01*
X0159905Y0058088D01*
X0160036Y0057996D01*
X0160164Y0057902D01*
X0160290Y0057804D01*
X0160414Y0057703D01*
X0160535Y0057599D01*
X0160653Y0057492D01*
X0160769Y0057382D01*
X0160882Y0057269D01*
X0160992Y0057153D01*
X0161099Y0057035D01*
X0161203Y0056914D01*
X0161304Y0056790D01*
X0161402Y0056664D01*
X0161496Y0056536D01*
X0161588Y0056405D01*
X0161676Y0056272D01*
X0161761Y0056137D01*
X0161843Y0056000D01*
X0161921Y0055861D01*
X0161995Y0055720D01*
X0162066Y0055577D01*
X0162134Y0055432D01*
X0162197Y0055286D01*
X0162258Y0055138D01*
X0162314Y0054989D01*
X0162367Y0054838D01*
X0162416Y0054686D01*
X0162461Y0054533D01*
X0162502Y0054379D01*
X0162540Y0054224D01*
X0162573Y0054068D01*
X0162603Y0053911D01*
X0162629Y0053754D01*
X0162650Y0053596D01*
X0162668Y0053437D01*
X0162682Y0053278D01*
X0162692Y0053119D01*
X0162698Y0052960D01*
X0162700Y0052800D01*
X0162698Y0052640D01*
X0162692Y0052481D01*
X0162682Y0052322D01*
X0162668Y0052163D01*
X0162650Y0052004D01*
X0162629Y0051846D01*
X0162603Y0051689D01*
X0162573Y0051532D01*
X0162540Y0051376D01*
X0162502Y0051221D01*
X0162461Y0051067D01*
X0162416Y0050914D01*
X0162367Y0050762D01*
X0162314Y0050611D01*
X0162258Y0050462D01*
X0162197Y0050314D01*
X0162134Y0050168D01*
X0162066Y0050023D01*
X0161995Y0049880D01*
X0161921Y0049739D01*
X0161843Y0049600D01*
X0161761Y0049463D01*
X0161676Y0049328D01*
X0161588Y0049195D01*
X0161496Y0049064D01*
X0161402Y0048936D01*
X0161304Y0048810D01*
X0161203Y0048686D01*
X0161099Y0048565D01*
X0160992Y0048447D01*
X0160882Y0048331D01*
X0160769Y0048218D01*
X0160653Y0048108D01*
X0160535Y0048001D01*
X0160414Y0047897D01*
X0160290Y0047796D01*
X0160164Y0047698D01*
X0160036Y0047604D01*
X0159905Y0047512D01*
X0159772Y0047424D01*
X0159637Y0047339D01*
X0159500Y0047257D01*
X0159361Y0047179D01*
X0159220Y0047105D01*
X0159077Y0047034D01*
X0158932Y0046966D01*
X0158786Y0046903D01*
X0158638Y0046842D01*
X0158489Y0046786D01*
X0158338Y0046733D01*
X0158186Y0046684D01*
X0158033Y0046639D01*
X0157879Y0046598D01*
X0157724Y0046560D01*
X0157568Y0046527D01*
X0157411Y0046497D01*
X0157254Y0046471D01*
X0157096Y0046450D01*
X0156937Y0046432D01*
X0156778Y0046418D01*
X0156619Y0046408D01*
X0156460Y0046402D01*
X0156300Y0046400D01*
X0156140Y0046402D01*
X0155981Y0046408D01*
X0155822Y0046418D01*
X0155663Y0046432D01*
X0155504Y0046450D01*
X0155346Y0046471D01*
X0155189Y0046497D01*
X0155032Y0046527D01*
X0154876Y0046560D01*
X0154721Y0046598D01*
X0154567Y0046639D01*
X0154414Y0046684D01*
X0154262Y0046733D01*
X0154111Y0046786D01*
X0153962Y0046842D01*
X0153814Y0046903D01*
X0153668Y0046966D01*
X0153523Y0047034D01*
X0153380Y0047105D01*
X0153239Y0047179D01*
X0153100Y0047257D01*
X0152963Y0047339D01*
X0152828Y0047424D01*
X0152695Y0047512D01*
X0152564Y0047604D01*
X0152436Y0047698D01*
X0152310Y0047796D01*
X0152186Y0047897D01*
X0152065Y0048001D01*
X0151947Y0048108D01*
X0151831Y0048218D01*
X0151718Y0048331D01*
X0151608Y0048447D01*
X0151501Y0048565D01*
X0151397Y0048686D01*
X0151296Y0048810D01*
X0151198Y0048936D01*
X0151104Y0049064D01*
X0151012Y0049195D01*
X0150924Y0049328D01*
X0150839Y0049463D01*
X0150757Y0049600D01*
X0150679Y0049739D01*
X0150605Y0049880D01*
X0150534Y0050023D01*
X0150466Y0050168D01*
X0150403Y0050314D01*
X0150342Y0050462D01*
X0150286Y0050611D01*
X0150233Y0050762D01*
X0150184Y0050914D01*
X0150139Y0051067D01*
X0150098Y0051221D01*
X0150060Y0051376D01*
X0150027Y0051532D01*
X0149997Y0051689D01*
X0149971Y0051846D01*
X0149950Y0052004D01*
X0149932Y0052163D01*
X0149918Y0052322D01*
X0149908Y0052481D01*
X0149902Y0052640D01*
X0149900Y0052800D01*
X0045501Y0198650D02*
X0045503Y0198808D01*
X0045509Y0198966D01*
X0045519Y0199124D01*
X0045533Y0199282D01*
X0045551Y0199439D01*
X0045572Y0199596D01*
X0045598Y0199752D01*
X0045628Y0199908D01*
X0045661Y0200063D01*
X0045699Y0200216D01*
X0045740Y0200369D01*
X0045785Y0200521D01*
X0045834Y0200672D01*
X0045887Y0200821D01*
X0045943Y0200969D01*
X0046003Y0201115D01*
X0046067Y0201260D01*
X0046135Y0201403D01*
X0046206Y0201545D01*
X0046280Y0201685D01*
X0046358Y0201822D01*
X0046440Y0201958D01*
X0046524Y0202092D01*
X0046613Y0202223D01*
X0046704Y0202352D01*
X0046799Y0202479D01*
X0046896Y0202604D01*
X0046997Y0202726D01*
X0047101Y0202845D01*
X0047208Y0202962D01*
X0047318Y0203076D01*
X0047431Y0203187D01*
X0047546Y0203296D01*
X0047664Y0203401D01*
X0047785Y0203503D01*
X0047908Y0203603D01*
X0048034Y0203699D01*
X0048162Y0203792D01*
X0048292Y0203882D01*
X0048425Y0203968D01*
X0048560Y0204052D01*
X0048696Y0204131D01*
X0048835Y0204208D01*
X0048976Y0204280D01*
X0049118Y0204350D01*
X0049262Y0204415D01*
X0049408Y0204477D01*
X0049555Y0204535D01*
X0049704Y0204590D01*
X0049854Y0204641D01*
X0050005Y0204688D01*
X0050157Y0204731D01*
X0050310Y0204770D01*
X0050465Y0204806D01*
X0050620Y0204837D01*
X0050776Y0204865D01*
X0050932Y0204889D01*
X0051089Y0204909D01*
X0051247Y0204925D01*
X0051404Y0204937D01*
X0051563Y0204945D01*
X0051721Y0204949D01*
X0051879Y0204949D01*
X0052037Y0204945D01*
X0052196Y0204937D01*
X0052353Y0204925D01*
X0052511Y0204909D01*
X0052668Y0204889D01*
X0052824Y0204865D01*
X0052980Y0204837D01*
X0053135Y0204806D01*
X0053290Y0204770D01*
X0053443Y0204731D01*
X0053595Y0204688D01*
X0053746Y0204641D01*
X0053896Y0204590D01*
X0054045Y0204535D01*
X0054192Y0204477D01*
X0054338Y0204415D01*
X0054482Y0204350D01*
X0054624Y0204280D01*
X0054765Y0204208D01*
X0054904Y0204131D01*
X0055040Y0204052D01*
X0055175Y0203968D01*
X0055308Y0203882D01*
X0055438Y0203792D01*
X0055566Y0203699D01*
X0055692Y0203603D01*
X0055815Y0203503D01*
X0055936Y0203401D01*
X0056054Y0203296D01*
X0056169Y0203187D01*
X0056282Y0203076D01*
X0056392Y0202962D01*
X0056499Y0202845D01*
X0056603Y0202726D01*
X0056704Y0202604D01*
X0056801Y0202479D01*
X0056896Y0202352D01*
X0056987Y0202223D01*
X0057076Y0202092D01*
X0057160Y0201958D01*
X0057242Y0201822D01*
X0057320Y0201685D01*
X0057394Y0201545D01*
X0057465Y0201403D01*
X0057533Y0201260D01*
X0057597Y0201115D01*
X0057657Y0200969D01*
X0057713Y0200821D01*
X0057766Y0200672D01*
X0057815Y0200521D01*
X0057860Y0200369D01*
X0057901Y0200216D01*
X0057939Y0200063D01*
X0057972Y0199908D01*
X0058002Y0199752D01*
X0058028Y0199596D01*
X0058049Y0199439D01*
X0058067Y0199282D01*
X0058081Y0199124D01*
X0058091Y0198966D01*
X0058097Y0198808D01*
X0058099Y0198650D01*
X0058097Y0198492D01*
X0058091Y0198334D01*
X0058081Y0198176D01*
X0058067Y0198018D01*
X0058049Y0197861D01*
X0058028Y0197704D01*
X0058002Y0197548D01*
X0057972Y0197392D01*
X0057939Y0197237D01*
X0057901Y0197084D01*
X0057860Y0196931D01*
X0057815Y0196779D01*
X0057766Y0196628D01*
X0057713Y0196479D01*
X0057657Y0196331D01*
X0057597Y0196185D01*
X0057533Y0196040D01*
X0057465Y0195897D01*
X0057394Y0195755D01*
X0057320Y0195615D01*
X0057242Y0195478D01*
X0057160Y0195342D01*
X0057076Y0195208D01*
X0056987Y0195077D01*
X0056896Y0194948D01*
X0056801Y0194821D01*
X0056704Y0194696D01*
X0056603Y0194574D01*
X0056499Y0194455D01*
X0056392Y0194338D01*
X0056282Y0194224D01*
X0056169Y0194113D01*
X0056054Y0194004D01*
X0055936Y0193899D01*
X0055815Y0193797D01*
X0055692Y0193697D01*
X0055566Y0193601D01*
X0055438Y0193508D01*
X0055308Y0193418D01*
X0055175Y0193332D01*
X0055040Y0193248D01*
X0054904Y0193169D01*
X0054765Y0193092D01*
X0054624Y0193020D01*
X0054482Y0192950D01*
X0054338Y0192885D01*
X0054192Y0192823D01*
X0054045Y0192765D01*
X0053896Y0192710D01*
X0053746Y0192659D01*
X0053595Y0192612D01*
X0053443Y0192569D01*
X0053290Y0192530D01*
X0053135Y0192494D01*
X0052980Y0192463D01*
X0052824Y0192435D01*
X0052668Y0192411D01*
X0052511Y0192391D01*
X0052353Y0192375D01*
X0052196Y0192363D01*
X0052037Y0192355D01*
X0051879Y0192351D01*
X0051721Y0192351D01*
X0051563Y0192355D01*
X0051404Y0192363D01*
X0051247Y0192375D01*
X0051089Y0192391D01*
X0050932Y0192411D01*
X0050776Y0192435D01*
X0050620Y0192463D01*
X0050465Y0192494D01*
X0050310Y0192530D01*
X0050157Y0192569D01*
X0050005Y0192612D01*
X0049854Y0192659D01*
X0049704Y0192710D01*
X0049555Y0192765D01*
X0049408Y0192823D01*
X0049262Y0192885D01*
X0049118Y0192950D01*
X0048976Y0193020D01*
X0048835Y0193092D01*
X0048696Y0193169D01*
X0048560Y0193248D01*
X0048425Y0193332D01*
X0048292Y0193418D01*
X0048162Y0193508D01*
X0048034Y0193601D01*
X0047908Y0193697D01*
X0047785Y0193797D01*
X0047664Y0193899D01*
X0047546Y0194004D01*
X0047431Y0194113D01*
X0047318Y0194224D01*
X0047208Y0194338D01*
X0047101Y0194455D01*
X0046997Y0194574D01*
X0046896Y0194696D01*
X0046799Y0194821D01*
X0046704Y0194948D01*
X0046613Y0195077D01*
X0046524Y0195208D01*
X0046440Y0195342D01*
X0046358Y0195478D01*
X0046280Y0195615D01*
X0046206Y0195755D01*
X0046135Y0195897D01*
X0046067Y0196040D01*
X0046003Y0196185D01*
X0045943Y0196331D01*
X0045887Y0196479D01*
X0045834Y0196628D01*
X0045785Y0196779D01*
X0045740Y0196931D01*
X0045699Y0197084D01*
X0045661Y0197237D01*
X0045628Y0197392D01*
X0045598Y0197548D01*
X0045572Y0197704D01*
X0045551Y0197861D01*
X0045533Y0198018D01*
X0045519Y0198176D01*
X0045509Y0198334D01*
X0045503Y0198492D01*
X0045501Y0198650D01*
X0172666Y0356131D02*
X0172668Y0356289D01*
X0172674Y0356447D01*
X0172684Y0356605D01*
X0172698Y0356763D01*
X0172716Y0356920D01*
X0172737Y0357077D01*
X0172763Y0357233D01*
X0172793Y0357389D01*
X0172826Y0357544D01*
X0172864Y0357697D01*
X0172905Y0357850D01*
X0172950Y0358002D01*
X0172999Y0358153D01*
X0173052Y0358302D01*
X0173108Y0358450D01*
X0173168Y0358596D01*
X0173232Y0358741D01*
X0173300Y0358884D01*
X0173371Y0359026D01*
X0173445Y0359166D01*
X0173523Y0359303D01*
X0173605Y0359439D01*
X0173689Y0359573D01*
X0173778Y0359704D01*
X0173869Y0359833D01*
X0173964Y0359960D01*
X0174061Y0360085D01*
X0174162Y0360207D01*
X0174266Y0360326D01*
X0174373Y0360443D01*
X0174483Y0360557D01*
X0174596Y0360668D01*
X0174711Y0360777D01*
X0174829Y0360882D01*
X0174950Y0360984D01*
X0175073Y0361084D01*
X0175199Y0361180D01*
X0175327Y0361273D01*
X0175457Y0361363D01*
X0175590Y0361449D01*
X0175725Y0361533D01*
X0175861Y0361612D01*
X0176000Y0361689D01*
X0176141Y0361761D01*
X0176283Y0361831D01*
X0176427Y0361896D01*
X0176573Y0361958D01*
X0176720Y0362016D01*
X0176869Y0362071D01*
X0177019Y0362122D01*
X0177170Y0362169D01*
X0177322Y0362212D01*
X0177475Y0362251D01*
X0177630Y0362287D01*
X0177785Y0362318D01*
X0177941Y0362346D01*
X0178097Y0362370D01*
X0178254Y0362390D01*
X0178412Y0362406D01*
X0178569Y0362418D01*
X0178728Y0362426D01*
X0178886Y0362430D01*
X0179044Y0362430D01*
X0179202Y0362426D01*
X0179361Y0362418D01*
X0179518Y0362406D01*
X0179676Y0362390D01*
X0179833Y0362370D01*
X0179989Y0362346D01*
X0180145Y0362318D01*
X0180300Y0362287D01*
X0180455Y0362251D01*
X0180608Y0362212D01*
X0180760Y0362169D01*
X0180911Y0362122D01*
X0181061Y0362071D01*
X0181210Y0362016D01*
X0181357Y0361958D01*
X0181503Y0361896D01*
X0181647Y0361831D01*
X0181789Y0361761D01*
X0181930Y0361689D01*
X0182069Y0361612D01*
X0182205Y0361533D01*
X0182340Y0361449D01*
X0182473Y0361363D01*
X0182603Y0361273D01*
X0182731Y0361180D01*
X0182857Y0361084D01*
X0182980Y0360984D01*
X0183101Y0360882D01*
X0183219Y0360777D01*
X0183334Y0360668D01*
X0183447Y0360557D01*
X0183557Y0360443D01*
X0183664Y0360326D01*
X0183768Y0360207D01*
X0183869Y0360085D01*
X0183966Y0359960D01*
X0184061Y0359833D01*
X0184152Y0359704D01*
X0184241Y0359573D01*
X0184325Y0359439D01*
X0184407Y0359303D01*
X0184485Y0359166D01*
X0184559Y0359026D01*
X0184630Y0358884D01*
X0184698Y0358741D01*
X0184762Y0358596D01*
X0184822Y0358450D01*
X0184878Y0358302D01*
X0184931Y0358153D01*
X0184980Y0358002D01*
X0185025Y0357850D01*
X0185066Y0357697D01*
X0185104Y0357544D01*
X0185137Y0357389D01*
X0185167Y0357233D01*
X0185193Y0357077D01*
X0185214Y0356920D01*
X0185232Y0356763D01*
X0185246Y0356605D01*
X0185256Y0356447D01*
X0185262Y0356289D01*
X0185264Y0356131D01*
X0185262Y0355973D01*
X0185256Y0355815D01*
X0185246Y0355657D01*
X0185232Y0355499D01*
X0185214Y0355342D01*
X0185193Y0355185D01*
X0185167Y0355029D01*
X0185137Y0354873D01*
X0185104Y0354718D01*
X0185066Y0354565D01*
X0185025Y0354412D01*
X0184980Y0354260D01*
X0184931Y0354109D01*
X0184878Y0353960D01*
X0184822Y0353812D01*
X0184762Y0353666D01*
X0184698Y0353521D01*
X0184630Y0353378D01*
X0184559Y0353236D01*
X0184485Y0353096D01*
X0184407Y0352959D01*
X0184325Y0352823D01*
X0184241Y0352689D01*
X0184152Y0352558D01*
X0184061Y0352429D01*
X0183966Y0352302D01*
X0183869Y0352177D01*
X0183768Y0352055D01*
X0183664Y0351936D01*
X0183557Y0351819D01*
X0183447Y0351705D01*
X0183334Y0351594D01*
X0183219Y0351485D01*
X0183101Y0351380D01*
X0182980Y0351278D01*
X0182857Y0351178D01*
X0182731Y0351082D01*
X0182603Y0350989D01*
X0182473Y0350899D01*
X0182340Y0350813D01*
X0182205Y0350729D01*
X0182069Y0350650D01*
X0181930Y0350573D01*
X0181789Y0350501D01*
X0181647Y0350431D01*
X0181503Y0350366D01*
X0181357Y0350304D01*
X0181210Y0350246D01*
X0181061Y0350191D01*
X0180911Y0350140D01*
X0180760Y0350093D01*
X0180608Y0350050D01*
X0180455Y0350011D01*
X0180300Y0349975D01*
X0180145Y0349944D01*
X0179989Y0349916D01*
X0179833Y0349892D01*
X0179676Y0349872D01*
X0179518Y0349856D01*
X0179361Y0349844D01*
X0179202Y0349836D01*
X0179044Y0349832D01*
X0178886Y0349832D01*
X0178728Y0349836D01*
X0178569Y0349844D01*
X0178412Y0349856D01*
X0178254Y0349872D01*
X0178097Y0349892D01*
X0177941Y0349916D01*
X0177785Y0349944D01*
X0177630Y0349975D01*
X0177475Y0350011D01*
X0177322Y0350050D01*
X0177170Y0350093D01*
X0177019Y0350140D01*
X0176869Y0350191D01*
X0176720Y0350246D01*
X0176573Y0350304D01*
X0176427Y0350366D01*
X0176283Y0350431D01*
X0176141Y0350501D01*
X0176000Y0350573D01*
X0175861Y0350650D01*
X0175725Y0350729D01*
X0175590Y0350813D01*
X0175457Y0350899D01*
X0175327Y0350989D01*
X0175199Y0351082D01*
X0175073Y0351178D01*
X0174950Y0351278D01*
X0174829Y0351380D01*
X0174711Y0351485D01*
X0174596Y0351594D01*
X0174483Y0351705D01*
X0174373Y0351819D01*
X0174266Y0351936D01*
X0174162Y0352055D01*
X0174061Y0352177D01*
X0173964Y0352302D01*
X0173869Y0352429D01*
X0173778Y0352558D01*
X0173689Y0352689D01*
X0173605Y0352823D01*
X0173523Y0352959D01*
X0173445Y0353096D01*
X0173371Y0353236D01*
X0173300Y0353378D01*
X0173232Y0353521D01*
X0173168Y0353666D01*
X0173108Y0353812D01*
X0173052Y0353960D01*
X0172999Y0354109D01*
X0172950Y0354260D01*
X0172905Y0354412D01*
X0172864Y0354565D01*
X0172826Y0354718D01*
X0172793Y0354873D01*
X0172763Y0355029D01*
X0172737Y0355185D01*
X0172716Y0355342D01*
X0172698Y0355499D01*
X0172684Y0355657D01*
X0172674Y0355815D01*
X0172668Y0355973D01*
X0172666Y0356131D01*
X0213788Y0347824D02*
X0213790Y0347985D01*
X0213796Y0348145D01*
X0213806Y0348306D01*
X0213820Y0348466D01*
X0213838Y0348625D01*
X0213859Y0348785D01*
X0213885Y0348943D01*
X0213915Y0349101D01*
X0213948Y0349258D01*
X0213986Y0349415D01*
X0214027Y0349570D01*
X0214072Y0349724D01*
X0214121Y0349877D01*
X0214174Y0350029D01*
X0214230Y0350179D01*
X0214290Y0350328D01*
X0214354Y0350476D01*
X0214421Y0350622D01*
X0214492Y0350766D01*
X0214567Y0350908D01*
X0214645Y0351049D01*
X0214726Y0351187D01*
X0214811Y0351324D01*
X0214900Y0351458D01*
X0214991Y0351590D01*
X0215086Y0351720D01*
X0215184Y0351847D01*
X0215285Y0351972D01*
X0215389Y0352095D01*
X0215496Y0352214D01*
X0215606Y0352331D01*
X0215719Y0352446D01*
X0215835Y0352557D01*
X0215953Y0352666D01*
X0216074Y0352771D01*
X0216198Y0352874D01*
X0216324Y0352974D01*
X0216453Y0353070D01*
X0216584Y0353163D01*
X0216717Y0353253D01*
X0216852Y0353340D01*
X0216990Y0353423D01*
X0217129Y0353502D01*
X0217271Y0353579D01*
X0217414Y0353652D01*
X0217559Y0353721D01*
X0217706Y0353786D01*
X0217854Y0353848D01*
X0218004Y0353907D01*
X0218155Y0353961D01*
X0218307Y0354012D01*
X0218461Y0354059D01*
X0218616Y0354102D01*
X0218771Y0354141D01*
X0218928Y0354177D01*
X0219086Y0354209D01*
X0219244Y0354236D01*
X0219403Y0354260D01*
X0219562Y0354280D01*
X0219722Y0354296D01*
X0219883Y0354308D01*
X0220043Y0354316D01*
X0220204Y0354320D01*
X0220364Y0354320D01*
X0220525Y0354316D01*
X0220685Y0354308D01*
X0220846Y0354296D01*
X0221006Y0354280D01*
X0221165Y0354260D01*
X0221324Y0354236D01*
X0221482Y0354209D01*
X0221640Y0354177D01*
X0221797Y0354141D01*
X0221952Y0354102D01*
X0222107Y0354059D01*
X0222261Y0354012D01*
X0222413Y0353961D01*
X0222564Y0353907D01*
X0222714Y0353848D01*
X0222862Y0353786D01*
X0223009Y0353721D01*
X0223154Y0353652D01*
X0223297Y0353579D01*
X0223439Y0353502D01*
X0223578Y0353423D01*
X0223716Y0353340D01*
X0223851Y0353253D01*
X0223984Y0353163D01*
X0224115Y0353070D01*
X0224244Y0352974D01*
X0224370Y0352874D01*
X0224494Y0352771D01*
X0224615Y0352666D01*
X0224733Y0352557D01*
X0224849Y0352446D01*
X0224962Y0352331D01*
X0225072Y0352214D01*
X0225179Y0352095D01*
X0225283Y0351972D01*
X0225384Y0351847D01*
X0225482Y0351720D01*
X0225577Y0351590D01*
X0225668Y0351458D01*
X0225757Y0351324D01*
X0225842Y0351187D01*
X0225923Y0351049D01*
X0226001Y0350908D01*
X0226076Y0350766D01*
X0226147Y0350622D01*
X0226214Y0350476D01*
X0226278Y0350328D01*
X0226338Y0350179D01*
X0226394Y0350029D01*
X0226447Y0349877D01*
X0226496Y0349724D01*
X0226541Y0349570D01*
X0226582Y0349415D01*
X0226620Y0349258D01*
X0226653Y0349101D01*
X0226683Y0348943D01*
X0226709Y0348785D01*
X0226730Y0348625D01*
X0226748Y0348466D01*
X0226762Y0348306D01*
X0226772Y0348145D01*
X0226778Y0347985D01*
X0226780Y0347824D01*
X0226778Y0347663D01*
X0226772Y0347503D01*
X0226762Y0347342D01*
X0226748Y0347182D01*
X0226730Y0347023D01*
X0226709Y0346863D01*
X0226683Y0346705D01*
X0226653Y0346547D01*
X0226620Y0346390D01*
X0226582Y0346233D01*
X0226541Y0346078D01*
X0226496Y0345924D01*
X0226447Y0345771D01*
X0226394Y0345619D01*
X0226338Y0345469D01*
X0226278Y0345320D01*
X0226214Y0345172D01*
X0226147Y0345026D01*
X0226076Y0344882D01*
X0226001Y0344740D01*
X0225923Y0344599D01*
X0225842Y0344461D01*
X0225757Y0344324D01*
X0225668Y0344190D01*
X0225577Y0344058D01*
X0225482Y0343928D01*
X0225384Y0343801D01*
X0225283Y0343676D01*
X0225179Y0343553D01*
X0225072Y0343434D01*
X0224962Y0343317D01*
X0224849Y0343202D01*
X0224733Y0343091D01*
X0224615Y0342982D01*
X0224494Y0342877D01*
X0224370Y0342774D01*
X0224244Y0342674D01*
X0224115Y0342578D01*
X0223984Y0342485D01*
X0223851Y0342395D01*
X0223716Y0342308D01*
X0223578Y0342225D01*
X0223439Y0342146D01*
X0223297Y0342069D01*
X0223154Y0341996D01*
X0223009Y0341927D01*
X0222862Y0341862D01*
X0222714Y0341800D01*
X0222564Y0341741D01*
X0222413Y0341687D01*
X0222261Y0341636D01*
X0222107Y0341589D01*
X0221952Y0341546D01*
X0221797Y0341507D01*
X0221640Y0341471D01*
X0221482Y0341439D01*
X0221324Y0341412D01*
X0221165Y0341388D01*
X0221006Y0341368D01*
X0220846Y0341352D01*
X0220685Y0341340D01*
X0220525Y0341332D01*
X0220364Y0341328D01*
X0220204Y0341328D01*
X0220043Y0341332D01*
X0219883Y0341340D01*
X0219722Y0341352D01*
X0219562Y0341368D01*
X0219403Y0341388D01*
X0219244Y0341412D01*
X0219086Y0341439D01*
X0218928Y0341471D01*
X0218771Y0341507D01*
X0218616Y0341546D01*
X0218461Y0341589D01*
X0218307Y0341636D01*
X0218155Y0341687D01*
X0218004Y0341741D01*
X0217854Y0341800D01*
X0217706Y0341862D01*
X0217559Y0341927D01*
X0217414Y0341996D01*
X0217271Y0342069D01*
X0217129Y0342146D01*
X0216990Y0342225D01*
X0216852Y0342308D01*
X0216717Y0342395D01*
X0216584Y0342485D01*
X0216453Y0342578D01*
X0216324Y0342674D01*
X0216198Y0342774D01*
X0216074Y0342877D01*
X0215953Y0342982D01*
X0215835Y0343091D01*
X0215719Y0343202D01*
X0215606Y0343317D01*
X0215496Y0343434D01*
X0215389Y0343553D01*
X0215285Y0343676D01*
X0215184Y0343801D01*
X0215086Y0343928D01*
X0214991Y0344058D01*
X0214900Y0344190D01*
X0214811Y0344324D01*
X0214726Y0344461D01*
X0214645Y0344599D01*
X0214567Y0344740D01*
X0214492Y0344882D01*
X0214421Y0345026D01*
X0214354Y0345172D01*
X0214290Y0345320D01*
X0214230Y0345469D01*
X0214174Y0345619D01*
X0214121Y0345771D01*
X0214072Y0345924D01*
X0214027Y0346078D01*
X0213986Y0346233D01*
X0213948Y0346390D01*
X0213915Y0346547D01*
X0213885Y0346705D01*
X0213859Y0346863D01*
X0213838Y0347023D01*
X0213820Y0347182D01*
X0213806Y0347342D01*
X0213796Y0347503D01*
X0213790Y0347663D01*
X0213788Y0347824D01*
X0253788Y0347824D02*
X0253790Y0347985D01*
X0253796Y0348145D01*
X0253806Y0348306D01*
X0253820Y0348466D01*
X0253838Y0348625D01*
X0253859Y0348785D01*
X0253885Y0348943D01*
X0253915Y0349101D01*
X0253948Y0349258D01*
X0253986Y0349415D01*
X0254027Y0349570D01*
X0254072Y0349724D01*
X0254121Y0349877D01*
X0254174Y0350029D01*
X0254230Y0350179D01*
X0254290Y0350328D01*
X0254354Y0350476D01*
X0254421Y0350622D01*
X0254492Y0350766D01*
X0254567Y0350908D01*
X0254645Y0351049D01*
X0254726Y0351187D01*
X0254811Y0351324D01*
X0254900Y0351458D01*
X0254991Y0351590D01*
X0255086Y0351720D01*
X0255184Y0351847D01*
X0255285Y0351972D01*
X0255389Y0352095D01*
X0255496Y0352214D01*
X0255606Y0352331D01*
X0255719Y0352446D01*
X0255835Y0352557D01*
X0255953Y0352666D01*
X0256074Y0352771D01*
X0256198Y0352874D01*
X0256324Y0352974D01*
X0256453Y0353070D01*
X0256584Y0353163D01*
X0256717Y0353253D01*
X0256852Y0353340D01*
X0256990Y0353423D01*
X0257129Y0353502D01*
X0257271Y0353579D01*
X0257414Y0353652D01*
X0257559Y0353721D01*
X0257706Y0353786D01*
X0257854Y0353848D01*
X0258004Y0353907D01*
X0258155Y0353961D01*
X0258307Y0354012D01*
X0258461Y0354059D01*
X0258616Y0354102D01*
X0258771Y0354141D01*
X0258928Y0354177D01*
X0259086Y0354209D01*
X0259244Y0354236D01*
X0259403Y0354260D01*
X0259562Y0354280D01*
X0259722Y0354296D01*
X0259883Y0354308D01*
X0260043Y0354316D01*
X0260204Y0354320D01*
X0260364Y0354320D01*
X0260525Y0354316D01*
X0260685Y0354308D01*
X0260846Y0354296D01*
X0261006Y0354280D01*
X0261165Y0354260D01*
X0261324Y0354236D01*
X0261482Y0354209D01*
X0261640Y0354177D01*
X0261797Y0354141D01*
X0261952Y0354102D01*
X0262107Y0354059D01*
X0262261Y0354012D01*
X0262413Y0353961D01*
X0262564Y0353907D01*
X0262714Y0353848D01*
X0262862Y0353786D01*
X0263009Y0353721D01*
X0263154Y0353652D01*
X0263297Y0353579D01*
X0263439Y0353502D01*
X0263578Y0353423D01*
X0263716Y0353340D01*
X0263851Y0353253D01*
X0263984Y0353163D01*
X0264115Y0353070D01*
X0264244Y0352974D01*
X0264370Y0352874D01*
X0264494Y0352771D01*
X0264615Y0352666D01*
X0264733Y0352557D01*
X0264849Y0352446D01*
X0264962Y0352331D01*
X0265072Y0352214D01*
X0265179Y0352095D01*
X0265283Y0351972D01*
X0265384Y0351847D01*
X0265482Y0351720D01*
X0265577Y0351590D01*
X0265668Y0351458D01*
X0265757Y0351324D01*
X0265842Y0351187D01*
X0265923Y0351049D01*
X0266001Y0350908D01*
X0266076Y0350766D01*
X0266147Y0350622D01*
X0266214Y0350476D01*
X0266278Y0350328D01*
X0266338Y0350179D01*
X0266394Y0350029D01*
X0266447Y0349877D01*
X0266496Y0349724D01*
X0266541Y0349570D01*
X0266582Y0349415D01*
X0266620Y0349258D01*
X0266653Y0349101D01*
X0266683Y0348943D01*
X0266709Y0348785D01*
X0266730Y0348625D01*
X0266748Y0348466D01*
X0266762Y0348306D01*
X0266772Y0348145D01*
X0266778Y0347985D01*
X0266780Y0347824D01*
X0266778Y0347663D01*
X0266772Y0347503D01*
X0266762Y0347342D01*
X0266748Y0347182D01*
X0266730Y0347023D01*
X0266709Y0346863D01*
X0266683Y0346705D01*
X0266653Y0346547D01*
X0266620Y0346390D01*
X0266582Y0346233D01*
X0266541Y0346078D01*
X0266496Y0345924D01*
X0266447Y0345771D01*
X0266394Y0345619D01*
X0266338Y0345469D01*
X0266278Y0345320D01*
X0266214Y0345172D01*
X0266147Y0345026D01*
X0266076Y0344882D01*
X0266001Y0344740D01*
X0265923Y0344599D01*
X0265842Y0344461D01*
X0265757Y0344324D01*
X0265668Y0344190D01*
X0265577Y0344058D01*
X0265482Y0343928D01*
X0265384Y0343801D01*
X0265283Y0343676D01*
X0265179Y0343553D01*
X0265072Y0343434D01*
X0264962Y0343317D01*
X0264849Y0343202D01*
X0264733Y0343091D01*
X0264615Y0342982D01*
X0264494Y0342877D01*
X0264370Y0342774D01*
X0264244Y0342674D01*
X0264115Y0342578D01*
X0263984Y0342485D01*
X0263851Y0342395D01*
X0263716Y0342308D01*
X0263578Y0342225D01*
X0263439Y0342146D01*
X0263297Y0342069D01*
X0263154Y0341996D01*
X0263009Y0341927D01*
X0262862Y0341862D01*
X0262714Y0341800D01*
X0262564Y0341741D01*
X0262413Y0341687D01*
X0262261Y0341636D01*
X0262107Y0341589D01*
X0261952Y0341546D01*
X0261797Y0341507D01*
X0261640Y0341471D01*
X0261482Y0341439D01*
X0261324Y0341412D01*
X0261165Y0341388D01*
X0261006Y0341368D01*
X0260846Y0341352D01*
X0260685Y0341340D01*
X0260525Y0341332D01*
X0260364Y0341328D01*
X0260204Y0341328D01*
X0260043Y0341332D01*
X0259883Y0341340D01*
X0259722Y0341352D01*
X0259562Y0341368D01*
X0259403Y0341388D01*
X0259244Y0341412D01*
X0259086Y0341439D01*
X0258928Y0341471D01*
X0258771Y0341507D01*
X0258616Y0341546D01*
X0258461Y0341589D01*
X0258307Y0341636D01*
X0258155Y0341687D01*
X0258004Y0341741D01*
X0257854Y0341800D01*
X0257706Y0341862D01*
X0257559Y0341927D01*
X0257414Y0341996D01*
X0257271Y0342069D01*
X0257129Y0342146D01*
X0256990Y0342225D01*
X0256852Y0342308D01*
X0256717Y0342395D01*
X0256584Y0342485D01*
X0256453Y0342578D01*
X0256324Y0342674D01*
X0256198Y0342774D01*
X0256074Y0342877D01*
X0255953Y0342982D01*
X0255835Y0343091D01*
X0255719Y0343202D01*
X0255606Y0343317D01*
X0255496Y0343434D01*
X0255389Y0343553D01*
X0255285Y0343676D01*
X0255184Y0343801D01*
X0255086Y0343928D01*
X0254991Y0344058D01*
X0254900Y0344190D01*
X0254811Y0344324D01*
X0254726Y0344461D01*
X0254645Y0344599D01*
X0254567Y0344740D01*
X0254492Y0344882D01*
X0254421Y0345026D01*
X0254354Y0345172D01*
X0254290Y0345320D01*
X0254230Y0345469D01*
X0254174Y0345619D01*
X0254121Y0345771D01*
X0254072Y0345924D01*
X0254027Y0346078D01*
X0253986Y0346233D01*
X0253948Y0346390D01*
X0253915Y0346547D01*
X0253885Y0346705D01*
X0253859Y0346863D01*
X0253838Y0347023D01*
X0253820Y0347182D01*
X0253806Y0347342D01*
X0253796Y0347503D01*
X0253790Y0347663D01*
X0253788Y0347824D01*
X0276288Y0347824D02*
X0276290Y0347985D01*
X0276296Y0348145D01*
X0276306Y0348306D01*
X0276320Y0348466D01*
X0276338Y0348625D01*
X0276359Y0348785D01*
X0276385Y0348943D01*
X0276415Y0349101D01*
X0276448Y0349258D01*
X0276486Y0349415D01*
X0276527Y0349570D01*
X0276572Y0349724D01*
X0276621Y0349877D01*
X0276674Y0350029D01*
X0276730Y0350179D01*
X0276790Y0350328D01*
X0276854Y0350476D01*
X0276921Y0350622D01*
X0276992Y0350766D01*
X0277067Y0350908D01*
X0277145Y0351049D01*
X0277226Y0351187D01*
X0277311Y0351324D01*
X0277400Y0351458D01*
X0277491Y0351590D01*
X0277586Y0351720D01*
X0277684Y0351847D01*
X0277785Y0351972D01*
X0277889Y0352095D01*
X0277996Y0352214D01*
X0278106Y0352331D01*
X0278219Y0352446D01*
X0278335Y0352557D01*
X0278453Y0352666D01*
X0278574Y0352771D01*
X0278698Y0352874D01*
X0278824Y0352974D01*
X0278953Y0353070D01*
X0279084Y0353163D01*
X0279217Y0353253D01*
X0279352Y0353340D01*
X0279490Y0353423D01*
X0279629Y0353502D01*
X0279771Y0353579D01*
X0279914Y0353652D01*
X0280059Y0353721D01*
X0280206Y0353786D01*
X0280354Y0353848D01*
X0280504Y0353907D01*
X0280655Y0353961D01*
X0280807Y0354012D01*
X0280961Y0354059D01*
X0281116Y0354102D01*
X0281271Y0354141D01*
X0281428Y0354177D01*
X0281586Y0354209D01*
X0281744Y0354236D01*
X0281903Y0354260D01*
X0282062Y0354280D01*
X0282222Y0354296D01*
X0282383Y0354308D01*
X0282543Y0354316D01*
X0282704Y0354320D01*
X0282864Y0354320D01*
X0283025Y0354316D01*
X0283185Y0354308D01*
X0283346Y0354296D01*
X0283506Y0354280D01*
X0283665Y0354260D01*
X0283824Y0354236D01*
X0283982Y0354209D01*
X0284140Y0354177D01*
X0284297Y0354141D01*
X0284452Y0354102D01*
X0284607Y0354059D01*
X0284761Y0354012D01*
X0284913Y0353961D01*
X0285064Y0353907D01*
X0285214Y0353848D01*
X0285362Y0353786D01*
X0285509Y0353721D01*
X0285654Y0353652D01*
X0285797Y0353579D01*
X0285939Y0353502D01*
X0286078Y0353423D01*
X0286216Y0353340D01*
X0286351Y0353253D01*
X0286484Y0353163D01*
X0286615Y0353070D01*
X0286744Y0352974D01*
X0286870Y0352874D01*
X0286994Y0352771D01*
X0287115Y0352666D01*
X0287233Y0352557D01*
X0287349Y0352446D01*
X0287462Y0352331D01*
X0287572Y0352214D01*
X0287679Y0352095D01*
X0287783Y0351972D01*
X0287884Y0351847D01*
X0287982Y0351720D01*
X0288077Y0351590D01*
X0288168Y0351458D01*
X0288257Y0351324D01*
X0288342Y0351187D01*
X0288423Y0351049D01*
X0288501Y0350908D01*
X0288576Y0350766D01*
X0288647Y0350622D01*
X0288714Y0350476D01*
X0288778Y0350328D01*
X0288838Y0350179D01*
X0288894Y0350029D01*
X0288947Y0349877D01*
X0288996Y0349724D01*
X0289041Y0349570D01*
X0289082Y0349415D01*
X0289120Y0349258D01*
X0289153Y0349101D01*
X0289183Y0348943D01*
X0289209Y0348785D01*
X0289230Y0348625D01*
X0289248Y0348466D01*
X0289262Y0348306D01*
X0289272Y0348145D01*
X0289278Y0347985D01*
X0289280Y0347824D01*
X0289278Y0347663D01*
X0289272Y0347503D01*
X0289262Y0347342D01*
X0289248Y0347182D01*
X0289230Y0347023D01*
X0289209Y0346863D01*
X0289183Y0346705D01*
X0289153Y0346547D01*
X0289120Y0346390D01*
X0289082Y0346233D01*
X0289041Y0346078D01*
X0288996Y0345924D01*
X0288947Y0345771D01*
X0288894Y0345619D01*
X0288838Y0345469D01*
X0288778Y0345320D01*
X0288714Y0345172D01*
X0288647Y0345026D01*
X0288576Y0344882D01*
X0288501Y0344740D01*
X0288423Y0344599D01*
X0288342Y0344461D01*
X0288257Y0344324D01*
X0288168Y0344190D01*
X0288077Y0344058D01*
X0287982Y0343928D01*
X0287884Y0343801D01*
X0287783Y0343676D01*
X0287679Y0343553D01*
X0287572Y0343434D01*
X0287462Y0343317D01*
X0287349Y0343202D01*
X0287233Y0343091D01*
X0287115Y0342982D01*
X0286994Y0342877D01*
X0286870Y0342774D01*
X0286744Y0342674D01*
X0286615Y0342578D01*
X0286484Y0342485D01*
X0286351Y0342395D01*
X0286216Y0342308D01*
X0286078Y0342225D01*
X0285939Y0342146D01*
X0285797Y0342069D01*
X0285654Y0341996D01*
X0285509Y0341927D01*
X0285362Y0341862D01*
X0285214Y0341800D01*
X0285064Y0341741D01*
X0284913Y0341687D01*
X0284761Y0341636D01*
X0284607Y0341589D01*
X0284452Y0341546D01*
X0284297Y0341507D01*
X0284140Y0341471D01*
X0283982Y0341439D01*
X0283824Y0341412D01*
X0283665Y0341388D01*
X0283506Y0341368D01*
X0283346Y0341352D01*
X0283185Y0341340D01*
X0283025Y0341332D01*
X0282864Y0341328D01*
X0282704Y0341328D01*
X0282543Y0341332D01*
X0282383Y0341340D01*
X0282222Y0341352D01*
X0282062Y0341368D01*
X0281903Y0341388D01*
X0281744Y0341412D01*
X0281586Y0341439D01*
X0281428Y0341471D01*
X0281271Y0341507D01*
X0281116Y0341546D01*
X0280961Y0341589D01*
X0280807Y0341636D01*
X0280655Y0341687D01*
X0280504Y0341741D01*
X0280354Y0341800D01*
X0280206Y0341862D01*
X0280059Y0341927D01*
X0279914Y0341996D01*
X0279771Y0342069D01*
X0279629Y0342146D01*
X0279490Y0342225D01*
X0279352Y0342308D01*
X0279217Y0342395D01*
X0279084Y0342485D01*
X0278953Y0342578D01*
X0278824Y0342674D01*
X0278698Y0342774D01*
X0278574Y0342877D01*
X0278453Y0342982D01*
X0278335Y0343091D01*
X0278219Y0343202D01*
X0278106Y0343317D01*
X0277996Y0343434D01*
X0277889Y0343553D01*
X0277785Y0343676D01*
X0277684Y0343801D01*
X0277586Y0343928D01*
X0277491Y0344058D01*
X0277400Y0344190D01*
X0277311Y0344324D01*
X0277226Y0344461D01*
X0277145Y0344599D01*
X0277067Y0344740D01*
X0276992Y0344882D01*
X0276921Y0345026D01*
X0276854Y0345172D01*
X0276790Y0345320D01*
X0276730Y0345469D01*
X0276674Y0345619D01*
X0276621Y0345771D01*
X0276572Y0345924D01*
X0276527Y0346078D01*
X0276486Y0346233D01*
X0276448Y0346390D01*
X0276415Y0346547D01*
X0276385Y0346705D01*
X0276359Y0346863D01*
X0276338Y0347023D01*
X0276320Y0347182D01*
X0276306Y0347342D01*
X0276296Y0347503D01*
X0276290Y0347663D01*
X0276288Y0347824D01*
X0316288Y0347824D02*
X0316290Y0347985D01*
X0316296Y0348145D01*
X0316306Y0348306D01*
X0316320Y0348466D01*
X0316338Y0348625D01*
X0316359Y0348785D01*
X0316385Y0348943D01*
X0316415Y0349101D01*
X0316448Y0349258D01*
X0316486Y0349415D01*
X0316527Y0349570D01*
X0316572Y0349724D01*
X0316621Y0349877D01*
X0316674Y0350029D01*
X0316730Y0350179D01*
X0316790Y0350328D01*
X0316854Y0350476D01*
X0316921Y0350622D01*
X0316992Y0350766D01*
X0317067Y0350908D01*
X0317145Y0351049D01*
X0317226Y0351187D01*
X0317311Y0351324D01*
X0317400Y0351458D01*
X0317491Y0351590D01*
X0317586Y0351720D01*
X0317684Y0351847D01*
X0317785Y0351972D01*
X0317889Y0352095D01*
X0317996Y0352214D01*
X0318106Y0352331D01*
X0318219Y0352446D01*
X0318335Y0352557D01*
X0318453Y0352666D01*
X0318574Y0352771D01*
X0318698Y0352874D01*
X0318824Y0352974D01*
X0318953Y0353070D01*
X0319084Y0353163D01*
X0319217Y0353253D01*
X0319352Y0353340D01*
X0319490Y0353423D01*
X0319629Y0353502D01*
X0319771Y0353579D01*
X0319914Y0353652D01*
X0320059Y0353721D01*
X0320206Y0353786D01*
X0320354Y0353848D01*
X0320504Y0353907D01*
X0320655Y0353961D01*
X0320807Y0354012D01*
X0320961Y0354059D01*
X0321116Y0354102D01*
X0321271Y0354141D01*
X0321428Y0354177D01*
X0321586Y0354209D01*
X0321744Y0354236D01*
X0321903Y0354260D01*
X0322062Y0354280D01*
X0322222Y0354296D01*
X0322383Y0354308D01*
X0322543Y0354316D01*
X0322704Y0354320D01*
X0322864Y0354320D01*
X0323025Y0354316D01*
X0323185Y0354308D01*
X0323346Y0354296D01*
X0323506Y0354280D01*
X0323665Y0354260D01*
X0323824Y0354236D01*
X0323982Y0354209D01*
X0324140Y0354177D01*
X0324297Y0354141D01*
X0324452Y0354102D01*
X0324607Y0354059D01*
X0324761Y0354012D01*
X0324913Y0353961D01*
X0325064Y0353907D01*
X0325214Y0353848D01*
X0325362Y0353786D01*
X0325509Y0353721D01*
X0325654Y0353652D01*
X0325797Y0353579D01*
X0325939Y0353502D01*
X0326078Y0353423D01*
X0326216Y0353340D01*
X0326351Y0353253D01*
X0326484Y0353163D01*
X0326615Y0353070D01*
X0326744Y0352974D01*
X0326870Y0352874D01*
X0326994Y0352771D01*
X0327115Y0352666D01*
X0327233Y0352557D01*
X0327349Y0352446D01*
X0327462Y0352331D01*
X0327572Y0352214D01*
X0327679Y0352095D01*
X0327783Y0351972D01*
X0327884Y0351847D01*
X0327982Y0351720D01*
X0328077Y0351590D01*
X0328168Y0351458D01*
X0328257Y0351324D01*
X0328342Y0351187D01*
X0328423Y0351049D01*
X0328501Y0350908D01*
X0328576Y0350766D01*
X0328647Y0350622D01*
X0328714Y0350476D01*
X0328778Y0350328D01*
X0328838Y0350179D01*
X0328894Y0350029D01*
X0328947Y0349877D01*
X0328996Y0349724D01*
X0329041Y0349570D01*
X0329082Y0349415D01*
X0329120Y0349258D01*
X0329153Y0349101D01*
X0329183Y0348943D01*
X0329209Y0348785D01*
X0329230Y0348625D01*
X0329248Y0348466D01*
X0329262Y0348306D01*
X0329272Y0348145D01*
X0329278Y0347985D01*
X0329280Y0347824D01*
X0329278Y0347663D01*
X0329272Y0347503D01*
X0329262Y0347342D01*
X0329248Y0347182D01*
X0329230Y0347023D01*
X0329209Y0346863D01*
X0329183Y0346705D01*
X0329153Y0346547D01*
X0329120Y0346390D01*
X0329082Y0346233D01*
X0329041Y0346078D01*
X0328996Y0345924D01*
X0328947Y0345771D01*
X0328894Y0345619D01*
X0328838Y0345469D01*
X0328778Y0345320D01*
X0328714Y0345172D01*
X0328647Y0345026D01*
X0328576Y0344882D01*
X0328501Y0344740D01*
X0328423Y0344599D01*
X0328342Y0344461D01*
X0328257Y0344324D01*
X0328168Y0344190D01*
X0328077Y0344058D01*
X0327982Y0343928D01*
X0327884Y0343801D01*
X0327783Y0343676D01*
X0327679Y0343553D01*
X0327572Y0343434D01*
X0327462Y0343317D01*
X0327349Y0343202D01*
X0327233Y0343091D01*
X0327115Y0342982D01*
X0326994Y0342877D01*
X0326870Y0342774D01*
X0326744Y0342674D01*
X0326615Y0342578D01*
X0326484Y0342485D01*
X0326351Y0342395D01*
X0326216Y0342308D01*
X0326078Y0342225D01*
X0325939Y0342146D01*
X0325797Y0342069D01*
X0325654Y0341996D01*
X0325509Y0341927D01*
X0325362Y0341862D01*
X0325214Y0341800D01*
X0325064Y0341741D01*
X0324913Y0341687D01*
X0324761Y0341636D01*
X0324607Y0341589D01*
X0324452Y0341546D01*
X0324297Y0341507D01*
X0324140Y0341471D01*
X0323982Y0341439D01*
X0323824Y0341412D01*
X0323665Y0341388D01*
X0323506Y0341368D01*
X0323346Y0341352D01*
X0323185Y0341340D01*
X0323025Y0341332D01*
X0322864Y0341328D01*
X0322704Y0341328D01*
X0322543Y0341332D01*
X0322383Y0341340D01*
X0322222Y0341352D01*
X0322062Y0341368D01*
X0321903Y0341388D01*
X0321744Y0341412D01*
X0321586Y0341439D01*
X0321428Y0341471D01*
X0321271Y0341507D01*
X0321116Y0341546D01*
X0320961Y0341589D01*
X0320807Y0341636D01*
X0320655Y0341687D01*
X0320504Y0341741D01*
X0320354Y0341800D01*
X0320206Y0341862D01*
X0320059Y0341927D01*
X0319914Y0341996D01*
X0319771Y0342069D01*
X0319629Y0342146D01*
X0319490Y0342225D01*
X0319352Y0342308D01*
X0319217Y0342395D01*
X0319084Y0342485D01*
X0318953Y0342578D01*
X0318824Y0342674D01*
X0318698Y0342774D01*
X0318574Y0342877D01*
X0318453Y0342982D01*
X0318335Y0343091D01*
X0318219Y0343202D01*
X0318106Y0343317D01*
X0317996Y0343434D01*
X0317889Y0343553D01*
X0317785Y0343676D01*
X0317684Y0343801D01*
X0317586Y0343928D01*
X0317491Y0344058D01*
X0317400Y0344190D01*
X0317311Y0344324D01*
X0317226Y0344461D01*
X0317145Y0344599D01*
X0317067Y0344740D01*
X0316992Y0344882D01*
X0316921Y0345026D01*
X0316854Y0345172D01*
X0316790Y0345320D01*
X0316730Y0345469D01*
X0316674Y0345619D01*
X0316621Y0345771D01*
X0316572Y0345924D01*
X0316527Y0346078D01*
X0316486Y0346233D01*
X0316448Y0346390D01*
X0316415Y0346547D01*
X0316385Y0346705D01*
X0316359Y0346863D01*
X0316338Y0347023D01*
X0316320Y0347182D01*
X0316306Y0347342D01*
X0316296Y0347503D01*
X0316290Y0347663D01*
X0316288Y0347824D01*
X0336288Y0347824D02*
X0336290Y0347985D01*
X0336296Y0348145D01*
X0336306Y0348306D01*
X0336320Y0348466D01*
X0336338Y0348625D01*
X0336359Y0348785D01*
X0336385Y0348943D01*
X0336415Y0349101D01*
X0336448Y0349258D01*
X0336486Y0349415D01*
X0336527Y0349570D01*
X0336572Y0349724D01*
X0336621Y0349877D01*
X0336674Y0350029D01*
X0336730Y0350179D01*
X0336790Y0350328D01*
X0336854Y0350476D01*
X0336921Y0350622D01*
X0336992Y0350766D01*
X0337067Y0350908D01*
X0337145Y0351049D01*
X0337226Y0351187D01*
X0337311Y0351324D01*
X0337400Y0351458D01*
X0337491Y0351590D01*
X0337586Y0351720D01*
X0337684Y0351847D01*
X0337785Y0351972D01*
X0337889Y0352095D01*
X0337996Y0352214D01*
X0338106Y0352331D01*
X0338219Y0352446D01*
X0338335Y0352557D01*
X0338453Y0352666D01*
X0338574Y0352771D01*
X0338698Y0352874D01*
X0338824Y0352974D01*
X0338953Y0353070D01*
X0339084Y0353163D01*
X0339217Y0353253D01*
X0339352Y0353340D01*
X0339490Y0353423D01*
X0339629Y0353502D01*
X0339771Y0353579D01*
X0339914Y0353652D01*
X0340059Y0353721D01*
X0340206Y0353786D01*
X0340354Y0353848D01*
X0340504Y0353907D01*
X0340655Y0353961D01*
X0340807Y0354012D01*
X0340961Y0354059D01*
X0341116Y0354102D01*
X0341271Y0354141D01*
X0341428Y0354177D01*
X0341586Y0354209D01*
X0341744Y0354236D01*
X0341903Y0354260D01*
X0342062Y0354280D01*
X0342222Y0354296D01*
X0342383Y0354308D01*
X0342543Y0354316D01*
X0342704Y0354320D01*
X0342864Y0354320D01*
X0343025Y0354316D01*
X0343185Y0354308D01*
X0343346Y0354296D01*
X0343506Y0354280D01*
X0343665Y0354260D01*
X0343824Y0354236D01*
X0343982Y0354209D01*
X0344140Y0354177D01*
X0344297Y0354141D01*
X0344452Y0354102D01*
X0344607Y0354059D01*
X0344761Y0354012D01*
X0344913Y0353961D01*
X0345064Y0353907D01*
X0345214Y0353848D01*
X0345362Y0353786D01*
X0345509Y0353721D01*
X0345654Y0353652D01*
X0345797Y0353579D01*
X0345939Y0353502D01*
X0346078Y0353423D01*
X0346216Y0353340D01*
X0346351Y0353253D01*
X0346484Y0353163D01*
X0346615Y0353070D01*
X0346744Y0352974D01*
X0346870Y0352874D01*
X0346994Y0352771D01*
X0347115Y0352666D01*
X0347233Y0352557D01*
X0347349Y0352446D01*
X0347462Y0352331D01*
X0347572Y0352214D01*
X0347679Y0352095D01*
X0347783Y0351972D01*
X0347884Y0351847D01*
X0347982Y0351720D01*
X0348077Y0351590D01*
X0348168Y0351458D01*
X0348257Y0351324D01*
X0348342Y0351187D01*
X0348423Y0351049D01*
X0348501Y0350908D01*
X0348576Y0350766D01*
X0348647Y0350622D01*
X0348714Y0350476D01*
X0348778Y0350328D01*
X0348838Y0350179D01*
X0348894Y0350029D01*
X0348947Y0349877D01*
X0348996Y0349724D01*
X0349041Y0349570D01*
X0349082Y0349415D01*
X0349120Y0349258D01*
X0349153Y0349101D01*
X0349183Y0348943D01*
X0349209Y0348785D01*
X0349230Y0348625D01*
X0349248Y0348466D01*
X0349262Y0348306D01*
X0349272Y0348145D01*
X0349278Y0347985D01*
X0349280Y0347824D01*
X0349278Y0347663D01*
X0349272Y0347503D01*
X0349262Y0347342D01*
X0349248Y0347182D01*
X0349230Y0347023D01*
X0349209Y0346863D01*
X0349183Y0346705D01*
X0349153Y0346547D01*
X0349120Y0346390D01*
X0349082Y0346233D01*
X0349041Y0346078D01*
X0348996Y0345924D01*
X0348947Y0345771D01*
X0348894Y0345619D01*
X0348838Y0345469D01*
X0348778Y0345320D01*
X0348714Y0345172D01*
X0348647Y0345026D01*
X0348576Y0344882D01*
X0348501Y0344740D01*
X0348423Y0344599D01*
X0348342Y0344461D01*
X0348257Y0344324D01*
X0348168Y0344190D01*
X0348077Y0344058D01*
X0347982Y0343928D01*
X0347884Y0343801D01*
X0347783Y0343676D01*
X0347679Y0343553D01*
X0347572Y0343434D01*
X0347462Y0343317D01*
X0347349Y0343202D01*
X0347233Y0343091D01*
X0347115Y0342982D01*
X0346994Y0342877D01*
X0346870Y0342774D01*
X0346744Y0342674D01*
X0346615Y0342578D01*
X0346484Y0342485D01*
X0346351Y0342395D01*
X0346216Y0342308D01*
X0346078Y0342225D01*
X0345939Y0342146D01*
X0345797Y0342069D01*
X0345654Y0341996D01*
X0345509Y0341927D01*
X0345362Y0341862D01*
X0345214Y0341800D01*
X0345064Y0341741D01*
X0344913Y0341687D01*
X0344761Y0341636D01*
X0344607Y0341589D01*
X0344452Y0341546D01*
X0344297Y0341507D01*
X0344140Y0341471D01*
X0343982Y0341439D01*
X0343824Y0341412D01*
X0343665Y0341388D01*
X0343506Y0341368D01*
X0343346Y0341352D01*
X0343185Y0341340D01*
X0343025Y0341332D01*
X0342864Y0341328D01*
X0342704Y0341328D01*
X0342543Y0341332D01*
X0342383Y0341340D01*
X0342222Y0341352D01*
X0342062Y0341368D01*
X0341903Y0341388D01*
X0341744Y0341412D01*
X0341586Y0341439D01*
X0341428Y0341471D01*
X0341271Y0341507D01*
X0341116Y0341546D01*
X0340961Y0341589D01*
X0340807Y0341636D01*
X0340655Y0341687D01*
X0340504Y0341741D01*
X0340354Y0341800D01*
X0340206Y0341862D01*
X0340059Y0341927D01*
X0339914Y0341996D01*
X0339771Y0342069D01*
X0339629Y0342146D01*
X0339490Y0342225D01*
X0339352Y0342308D01*
X0339217Y0342395D01*
X0339084Y0342485D01*
X0338953Y0342578D01*
X0338824Y0342674D01*
X0338698Y0342774D01*
X0338574Y0342877D01*
X0338453Y0342982D01*
X0338335Y0343091D01*
X0338219Y0343202D01*
X0338106Y0343317D01*
X0337996Y0343434D01*
X0337889Y0343553D01*
X0337785Y0343676D01*
X0337684Y0343801D01*
X0337586Y0343928D01*
X0337491Y0344058D01*
X0337400Y0344190D01*
X0337311Y0344324D01*
X0337226Y0344461D01*
X0337145Y0344599D01*
X0337067Y0344740D01*
X0336992Y0344882D01*
X0336921Y0345026D01*
X0336854Y0345172D01*
X0336790Y0345320D01*
X0336730Y0345469D01*
X0336674Y0345619D01*
X0336621Y0345771D01*
X0336572Y0345924D01*
X0336527Y0346078D01*
X0336486Y0346233D01*
X0336448Y0346390D01*
X0336415Y0346547D01*
X0336385Y0346705D01*
X0336359Y0346863D01*
X0336338Y0347023D01*
X0336320Y0347182D01*
X0336306Y0347342D01*
X0336296Y0347503D01*
X0336290Y0347663D01*
X0336288Y0347824D01*
X0376288Y0347824D02*
X0376290Y0347985D01*
X0376296Y0348145D01*
X0376306Y0348306D01*
X0376320Y0348466D01*
X0376338Y0348625D01*
X0376359Y0348785D01*
X0376385Y0348943D01*
X0376415Y0349101D01*
X0376448Y0349258D01*
X0376486Y0349415D01*
X0376527Y0349570D01*
X0376572Y0349724D01*
X0376621Y0349877D01*
X0376674Y0350029D01*
X0376730Y0350179D01*
X0376790Y0350328D01*
X0376854Y0350476D01*
X0376921Y0350622D01*
X0376992Y0350766D01*
X0377067Y0350908D01*
X0377145Y0351049D01*
X0377226Y0351187D01*
X0377311Y0351324D01*
X0377400Y0351458D01*
X0377491Y0351590D01*
X0377586Y0351720D01*
X0377684Y0351847D01*
X0377785Y0351972D01*
X0377889Y0352095D01*
X0377996Y0352214D01*
X0378106Y0352331D01*
X0378219Y0352446D01*
X0378335Y0352557D01*
X0378453Y0352666D01*
X0378574Y0352771D01*
X0378698Y0352874D01*
X0378824Y0352974D01*
X0378953Y0353070D01*
X0379084Y0353163D01*
X0379217Y0353253D01*
X0379352Y0353340D01*
X0379490Y0353423D01*
X0379629Y0353502D01*
X0379771Y0353579D01*
X0379914Y0353652D01*
X0380059Y0353721D01*
X0380206Y0353786D01*
X0380354Y0353848D01*
X0380504Y0353907D01*
X0380655Y0353961D01*
X0380807Y0354012D01*
X0380961Y0354059D01*
X0381116Y0354102D01*
X0381271Y0354141D01*
X0381428Y0354177D01*
X0381586Y0354209D01*
X0381744Y0354236D01*
X0381903Y0354260D01*
X0382062Y0354280D01*
X0382222Y0354296D01*
X0382383Y0354308D01*
X0382543Y0354316D01*
X0382704Y0354320D01*
X0382864Y0354320D01*
X0383025Y0354316D01*
X0383185Y0354308D01*
X0383346Y0354296D01*
X0383506Y0354280D01*
X0383665Y0354260D01*
X0383824Y0354236D01*
X0383982Y0354209D01*
X0384140Y0354177D01*
X0384297Y0354141D01*
X0384452Y0354102D01*
X0384607Y0354059D01*
X0384761Y0354012D01*
X0384913Y0353961D01*
X0385064Y0353907D01*
X0385214Y0353848D01*
X0385362Y0353786D01*
X0385509Y0353721D01*
X0385654Y0353652D01*
X0385797Y0353579D01*
X0385939Y0353502D01*
X0386078Y0353423D01*
X0386216Y0353340D01*
X0386351Y0353253D01*
X0386484Y0353163D01*
X0386615Y0353070D01*
X0386744Y0352974D01*
X0386870Y0352874D01*
X0386994Y0352771D01*
X0387115Y0352666D01*
X0387233Y0352557D01*
X0387349Y0352446D01*
X0387462Y0352331D01*
X0387572Y0352214D01*
X0387679Y0352095D01*
X0387783Y0351972D01*
X0387884Y0351847D01*
X0387982Y0351720D01*
X0388077Y0351590D01*
X0388168Y0351458D01*
X0388257Y0351324D01*
X0388342Y0351187D01*
X0388423Y0351049D01*
X0388501Y0350908D01*
X0388576Y0350766D01*
X0388647Y0350622D01*
X0388714Y0350476D01*
X0388778Y0350328D01*
X0388838Y0350179D01*
X0388894Y0350029D01*
X0388947Y0349877D01*
X0388996Y0349724D01*
X0389041Y0349570D01*
X0389082Y0349415D01*
X0389120Y0349258D01*
X0389153Y0349101D01*
X0389183Y0348943D01*
X0389209Y0348785D01*
X0389230Y0348625D01*
X0389248Y0348466D01*
X0389262Y0348306D01*
X0389272Y0348145D01*
X0389278Y0347985D01*
X0389280Y0347824D01*
X0389278Y0347663D01*
X0389272Y0347503D01*
X0389262Y0347342D01*
X0389248Y0347182D01*
X0389230Y0347023D01*
X0389209Y0346863D01*
X0389183Y0346705D01*
X0389153Y0346547D01*
X0389120Y0346390D01*
X0389082Y0346233D01*
X0389041Y0346078D01*
X0388996Y0345924D01*
X0388947Y0345771D01*
X0388894Y0345619D01*
X0388838Y0345469D01*
X0388778Y0345320D01*
X0388714Y0345172D01*
X0388647Y0345026D01*
X0388576Y0344882D01*
X0388501Y0344740D01*
X0388423Y0344599D01*
X0388342Y0344461D01*
X0388257Y0344324D01*
X0388168Y0344190D01*
X0388077Y0344058D01*
X0387982Y0343928D01*
X0387884Y0343801D01*
X0387783Y0343676D01*
X0387679Y0343553D01*
X0387572Y0343434D01*
X0387462Y0343317D01*
X0387349Y0343202D01*
X0387233Y0343091D01*
X0387115Y0342982D01*
X0386994Y0342877D01*
X0386870Y0342774D01*
X0386744Y0342674D01*
X0386615Y0342578D01*
X0386484Y0342485D01*
X0386351Y0342395D01*
X0386216Y0342308D01*
X0386078Y0342225D01*
X0385939Y0342146D01*
X0385797Y0342069D01*
X0385654Y0341996D01*
X0385509Y0341927D01*
X0385362Y0341862D01*
X0385214Y0341800D01*
X0385064Y0341741D01*
X0384913Y0341687D01*
X0384761Y0341636D01*
X0384607Y0341589D01*
X0384452Y0341546D01*
X0384297Y0341507D01*
X0384140Y0341471D01*
X0383982Y0341439D01*
X0383824Y0341412D01*
X0383665Y0341388D01*
X0383506Y0341368D01*
X0383346Y0341352D01*
X0383185Y0341340D01*
X0383025Y0341332D01*
X0382864Y0341328D01*
X0382704Y0341328D01*
X0382543Y0341332D01*
X0382383Y0341340D01*
X0382222Y0341352D01*
X0382062Y0341368D01*
X0381903Y0341388D01*
X0381744Y0341412D01*
X0381586Y0341439D01*
X0381428Y0341471D01*
X0381271Y0341507D01*
X0381116Y0341546D01*
X0380961Y0341589D01*
X0380807Y0341636D01*
X0380655Y0341687D01*
X0380504Y0341741D01*
X0380354Y0341800D01*
X0380206Y0341862D01*
X0380059Y0341927D01*
X0379914Y0341996D01*
X0379771Y0342069D01*
X0379629Y0342146D01*
X0379490Y0342225D01*
X0379352Y0342308D01*
X0379217Y0342395D01*
X0379084Y0342485D01*
X0378953Y0342578D01*
X0378824Y0342674D01*
X0378698Y0342774D01*
X0378574Y0342877D01*
X0378453Y0342982D01*
X0378335Y0343091D01*
X0378219Y0343202D01*
X0378106Y0343317D01*
X0377996Y0343434D01*
X0377889Y0343553D01*
X0377785Y0343676D01*
X0377684Y0343801D01*
X0377586Y0343928D01*
X0377491Y0344058D01*
X0377400Y0344190D01*
X0377311Y0344324D01*
X0377226Y0344461D01*
X0377145Y0344599D01*
X0377067Y0344740D01*
X0376992Y0344882D01*
X0376921Y0345026D01*
X0376854Y0345172D01*
X0376790Y0345320D01*
X0376730Y0345469D01*
X0376674Y0345619D01*
X0376621Y0345771D01*
X0376572Y0345924D01*
X0376527Y0346078D01*
X0376486Y0346233D01*
X0376448Y0346390D01*
X0376415Y0346547D01*
X0376385Y0346705D01*
X0376359Y0346863D01*
X0376338Y0347023D01*
X0376320Y0347182D01*
X0376306Y0347342D01*
X0376296Y0347503D01*
X0376290Y0347663D01*
X0376288Y0347824D01*
X0366501Y0198650D02*
X0366503Y0198808D01*
X0366509Y0198966D01*
X0366519Y0199124D01*
X0366533Y0199282D01*
X0366551Y0199439D01*
X0366572Y0199596D01*
X0366598Y0199752D01*
X0366628Y0199908D01*
X0366661Y0200063D01*
X0366699Y0200216D01*
X0366740Y0200369D01*
X0366785Y0200521D01*
X0366834Y0200672D01*
X0366887Y0200821D01*
X0366943Y0200969D01*
X0367003Y0201115D01*
X0367067Y0201260D01*
X0367135Y0201403D01*
X0367206Y0201545D01*
X0367280Y0201685D01*
X0367358Y0201822D01*
X0367440Y0201958D01*
X0367524Y0202092D01*
X0367613Y0202223D01*
X0367704Y0202352D01*
X0367799Y0202479D01*
X0367896Y0202604D01*
X0367997Y0202726D01*
X0368101Y0202845D01*
X0368208Y0202962D01*
X0368318Y0203076D01*
X0368431Y0203187D01*
X0368546Y0203296D01*
X0368664Y0203401D01*
X0368785Y0203503D01*
X0368908Y0203603D01*
X0369034Y0203699D01*
X0369162Y0203792D01*
X0369292Y0203882D01*
X0369425Y0203968D01*
X0369560Y0204052D01*
X0369696Y0204131D01*
X0369835Y0204208D01*
X0369976Y0204280D01*
X0370118Y0204350D01*
X0370262Y0204415D01*
X0370408Y0204477D01*
X0370555Y0204535D01*
X0370704Y0204590D01*
X0370854Y0204641D01*
X0371005Y0204688D01*
X0371157Y0204731D01*
X0371310Y0204770D01*
X0371465Y0204806D01*
X0371620Y0204837D01*
X0371776Y0204865D01*
X0371932Y0204889D01*
X0372089Y0204909D01*
X0372247Y0204925D01*
X0372404Y0204937D01*
X0372563Y0204945D01*
X0372721Y0204949D01*
X0372879Y0204949D01*
X0373037Y0204945D01*
X0373196Y0204937D01*
X0373353Y0204925D01*
X0373511Y0204909D01*
X0373668Y0204889D01*
X0373824Y0204865D01*
X0373980Y0204837D01*
X0374135Y0204806D01*
X0374290Y0204770D01*
X0374443Y0204731D01*
X0374595Y0204688D01*
X0374746Y0204641D01*
X0374896Y0204590D01*
X0375045Y0204535D01*
X0375192Y0204477D01*
X0375338Y0204415D01*
X0375482Y0204350D01*
X0375624Y0204280D01*
X0375765Y0204208D01*
X0375904Y0204131D01*
X0376040Y0204052D01*
X0376175Y0203968D01*
X0376308Y0203882D01*
X0376438Y0203792D01*
X0376566Y0203699D01*
X0376692Y0203603D01*
X0376815Y0203503D01*
X0376936Y0203401D01*
X0377054Y0203296D01*
X0377169Y0203187D01*
X0377282Y0203076D01*
X0377392Y0202962D01*
X0377499Y0202845D01*
X0377603Y0202726D01*
X0377704Y0202604D01*
X0377801Y0202479D01*
X0377896Y0202352D01*
X0377987Y0202223D01*
X0378076Y0202092D01*
X0378160Y0201958D01*
X0378242Y0201822D01*
X0378320Y0201685D01*
X0378394Y0201545D01*
X0378465Y0201403D01*
X0378533Y0201260D01*
X0378597Y0201115D01*
X0378657Y0200969D01*
X0378713Y0200821D01*
X0378766Y0200672D01*
X0378815Y0200521D01*
X0378860Y0200369D01*
X0378901Y0200216D01*
X0378939Y0200063D01*
X0378972Y0199908D01*
X0379002Y0199752D01*
X0379028Y0199596D01*
X0379049Y0199439D01*
X0379067Y0199282D01*
X0379081Y0199124D01*
X0379091Y0198966D01*
X0379097Y0198808D01*
X0379099Y0198650D01*
X0379097Y0198492D01*
X0379091Y0198334D01*
X0379081Y0198176D01*
X0379067Y0198018D01*
X0379049Y0197861D01*
X0379028Y0197704D01*
X0379002Y0197548D01*
X0378972Y0197392D01*
X0378939Y0197237D01*
X0378901Y0197084D01*
X0378860Y0196931D01*
X0378815Y0196779D01*
X0378766Y0196628D01*
X0378713Y0196479D01*
X0378657Y0196331D01*
X0378597Y0196185D01*
X0378533Y0196040D01*
X0378465Y0195897D01*
X0378394Y0195755D01*
X0378320Y0195615D01*
X0378242Y0195478D01*
X0378160Y0195342D01*
X0378076Y0195208D01*
X0377987Y0195077D01*
X0377896Y0194948D01*
X0377801Y0194821D01*
X0377704Y0194696D01*
X0377603Y0194574D01*
X0377499Y0194455D01*
X0377392Y0194338D01*
X0377282Y0194224D01*
X0377169Y0194113D01*
X0377054Y0194004D01*
X0376936Y0193899D01*
X0376815Y0193797D01*
X0376692Y0193697D01*
X0376566Y0193601D01*
X0376438Y0193508D01*
X0376308Y0193418D01*
X0376175Y0193332D01*
X0376040Y0193248D01*
X0375904Y0193169D01*
X0375765Y0193092D01*
X0375624Y0193020D01*
X0375482Y0192950D01*
X0375338Y0192885D01*
X0375192Y0192823D01*
X0375045Y0192765D01*
X0374896Y0192710D01*
X0374746Y0192659D01*
X0374595Y0192612D01*
X0374443Y0192569D01*
X0374290Y0192530D01*
X0374135Y0192494D01*
X0373980Y0192463D01*
X0373824Y0192435D01*
X0373668Y0192411D01*
X0373511Y0192391D01*
X0373353Y0192375D01*
X0373196Y0192363D01*
X0373037Y0192355D01*
X0372879Y0192351D01*
X0372721Y0192351D01*
X0372563Y0192355D01*
X0372404Y0192363D01*
X0372247Y0192375D01*
X0372089Y0192391D01*
X0371932Y0192411D01*
X0371776Y0192435D01*
X0371620Y0192463D01*
X0371465Y0192494D01*
X0371310Y0192530D01*
X0371157Y0192569D01*
X0371005Y0192612D01*
X0370854Y0192659D01*
X0370704Y0192710D01*
X0370555Y0192765D01*
X0370408Y0192823D01*
X0370262Y0192885D01*
X0370118Y0192950D01*
X0369976Y0193020D01*
X0369835Y0193092D01*
X0369696Y0193169D01*
X0369560Y0193248D01*
X0369425Y0193332D01*
X0369292Y0193418D01*
X0369162Y0193508D01*
X0369034Y0193601D01*
X0368908Y0193697D01*
X0368785Y0193797D01*
X0368664Y0193899D01*
X0368546Y0194004D01*
X0368431Y0194113D01*
X0368318Y0194224D01*
X0368208Y0194338D01*
X0368101Y0194455D01*
X0367997Y0194574D01*
X0367896Y0194696D01*
X0367799Y0194821D01*
X0367704Y0194948D01*
X0367613Y0195077D01*
X0367524Y0195208D01*
X0367440Y0195342D01*
X0367358Y0195478D01*
X0367280Y0195615D01*
X0367206Y0195755D01*
X0367135Y0195897D01*
X0367067Y0196040D01*
X0367003Y0196185D01*
X0366943Y0196331D01*
X0366887Y0196479D01*
X0366834Y0196628D01*
X0366785Y0196779D01*
X0366740Y0196931D01*
X0366699Y0197084D01*
X0366661Y0197237D01*
X0366628Y0197392D01*
X0366598Y0197548D01*
X0366572Y0197704D01*
X0366551Y0197861D01*
X0366533Y0198018D01*
X0366519Y0198176D01*
X0366509Y0198334D01*
X0366503Y0198492D01*
X0366501Y0198650D01*
D30*
X0368300Y0052800D03*
X0323300Y0052800D03*
X0284300Y0052800D03*
X0239300Y0052800D03*
X0201300Y0052800D03*
X0156300Y0052800D03*
D31*
X0105800Y0035800D03*
X0105800Y0025800D03*
X0105800Y0015800D03*
D32*
X0174300Y0283776D03*
X0179300Y0283776D03*
X0184300Y0283776D03*
X0189300Y0283776D03*
X0189300Y0305824D03*
X0184300Y0305824D03*
X0179300Y0305824D03*
X0174300Y0305824D03*
D33*
X0144800Y0303540D03*
X0144800Y0296060D03*
X0123800Y0296060D03*
X0123800Y0303540D03*
X0102800Y0293540D03*
X0102800Y0286060D03*
X0109800Y0252540D03*
X0109800Y0245060D03*
X0093800Y0232540D03*
X0093800Y0225060D03*
X0092800Y0208540D03*
X0092800Y0201060D03*
X0074300Y0225060D03*
X0074300Y0232540D03*
X0053800Y0251060D03*
X0053800Y0258540D03*
X0040300Y0232540D03*
X0040300Y0225060D03*
X0121800Y0078540D03*
X0121800Y0071060D03*
D34*
X0130060Y0250800D03*
X0137540Y0250800D03*
D35*
X0051800Y0198650D03*
X0178965Y0356131D03*
X0372800Y0198650D03*
D36*
X0206600Y0365300D02*
X0201000Y0365300D01*
X0201000Y0375300D02*
X0206600Y0375300D01*
X0206600Y0385300D02*
X0201000Y0385300D01*
D37*
X0220284Y0347824D03*
X0260284Y0347824D03*
X0282784Y0347824D03*
X0322784Y0347824D03*
X0342784Y0347824D03*
X0382784Y0347824D03*
D38*
X0380800Y0307300D03*
X0281800Y0366800D03*
X0261800Y0361800D03*
X0240300Y0339800D03*
X0226800Y0321800D03*
X0226800Y0311800D03*
X0235800Y0297300D03*
X0206800Y0291800D03*
X0201800Y0296800D03*
X0208800Y0283800D03*
X0221800Y0266800D03*
X0216800Y0251800D03*
X0196800Y0251800D03*
X0191800Y0246800D03*
X0186800Y0241800D03*
X0171800Y0246800D03*
X0161800Y0236800D03*
X0156800Y0226800D03*
X0146800Y0233800D03*
X0146800Y0241800D03*
X0134300Y0241300D03*
X0138800Y0224300D03*
X0131800Y0221800D03*
X0147300Y0216300D03*
X0150800Y0210800D03*
X0149800Y0204300D03*
X0158800Y0201300D03*
X0168300Y0180800D03*
X0166800Y0168300D03*
X0179800Y0175300D03*
X0185800Y0189300D03*
X0190800Y0191800D03*
X0210800Y0179300D03*
X0214300Y0183300D03*
X0221800Y0186800D03*
X0214300Y0195300D03*
X0234300Y0178800D03*
X0214300Y0171800D03*
X0201800Y0155300D03*
X0201800Y0141800D03*
X0214300Y0143800D03*
X0187800Y0132800D03*
X0186800Y0126800D03*
X0191800Y0113800D03*
X0191800Y0099800D03*
X0199300Y0100300D03*
X0206800Y0101800D03*
X0201800Y0091800D03*
X0209800Y0089800D03*
X0215300Y0083300D03*
X0221800Y0091800D03*
X0228800Y0091800D03*
X0231800Y0101800D03*
X0260800Y0107300D03*
X0266800Y0141800D03*
X0251800Y0141800D03*
X0281800Y0181800D03*
X0311800Y0181800D03*
X0311800Y0196800D03*
X0351800Y0166800D03*
X0365800Y0142300D03*
X0310800Y0132300D03*
X0202800Y0221800D03*
X0172800Y0226800D03*
X0155800Y0264800D03*
X0151800Y0276800D03*
X0161800Y0276800D03*
X0166800Y0271800D03*
X0166800Y0281800D03*
X0179300Y0292300D03*
X0168300Y0311300D03*
X0164800Y0333300D03*
X0141800Y0316800D03*
X0121800Y0286800D03*
X0126800Y0271800D03*
X0097800Y0243800D03*
X0089800Y0242800D03*
X0082800Y0223800D03*
X0094800Y0216800D03*
X0101800Y0224300D03*
X0068300Y0233800D03*
X0044800Y0243800D03*
X0031300Y0241800D03*
X0069800Y0266800D03*
X0078800Y0263800D03*
X0055300Y0323300D03*
X0077800Y0188800D03*
X0106800Y0149300D03*
X0134800Y0184300D03*
X0142800Y0180800D03*
X0150800Y0147800D03*
X0160800Y0147300D03*
X0166800Y0141800D03*
X0164300Y0130300D03*
X0157800Y0126300D03*
X0161800Y0116800D03*
X0147300Y0135300D03*
X0156800Y0096800D03*
X0136800Y0091800D03*
X0131800Y0096800D03*
X0126800Y0091800D03*
X0111800Y0086800D03*
X0106800Y0066800D03*
X0101800Y0060300D03*
X0096800Y0051800D03*
X0106800Y0051800D03*
X0126800Y0056800D03*
X0141800Y0036800D03*
X0166800Y0046800D03*
X0171800Y0066800D03*
X0180800Y0090800D03*
X0211800Y0006800D03*
X0086800Y0096800D03*
X0081800Y0106800D03*
X0081800Y0081800D03*
X0029300Y0114300D03*
X0199300Y0338800D03*
X0218800Y0367300D03*
X0226800Y0361300D03*
X0271800Y0331800D03*
X0276800Y0311800D03*
D39*
X0250800Y0363300D03*
M02*
