%
M48
M72
T01C0.02362
T02C0.02756
T03C0.03150
T04C0.03200
T05C0.03543
T06C0.03600
T07C0.03937
T08C0.04000
T09C0.05200
T10C0.07480
T11C0.07874
T12C0.08661
T13C0.12598
T14C0.12800
T15C0.12992
%
T01
X81800Y81800
X86800Y96800
X81800Y106800
X111800Y86800
X126800Y91800
X131800Y96800
X136800Y91800
X156800Y96800
X161800Y116800
X157800Y126300
X164300Y130300
X166800Y141800
X160800Y147300
X150800Y147800
X147300Y135300
X166800Y168300
X168300Y180800
X179800Y175300
X185800Y189300
X190800Y191800
X210800Y179300
X214300Y183300
X221800Y186800
X214300Y195300
X234300Y178800
X214300Y171800
X201800Y155300
X201800Y141800
X214300Y143800
X187800Y132800
X186800Y126800
X191800Y113800
X191800Y99800
X199300Y100300
X206800Y101800
X201800Y91800
X209800Y89800
X215300Y83300
X221800Y91800
X228800Y91800
X231800Y101800
X260800Y107300
X266800Y141800
X251800Y141800
X281800Y181800
X311800Y181800
X311800Y196800
X351800Y166800
X365800Y142300
X310800Y132300
X380800Y307300
X261800Y361800
X250800Y363300
X240300Y339800
X226800Y361300
X218800Y367300
X199300Y338800
X164800Y333300
X168300Y311300
X179300Y292300
X166800Y281800
X161800Y276800
X166800Y271800
X155800Y264800
X151800Y276800
X126800Y271800
X121800Y286800
X141800Y316800
X201800Y296800
X206800Y291800
X208800Y283800
X221800Y266800
X216800Y251800
X196800Y251800
X191800Y246800
X186800Y241800
X171800Y246800
X161800Y236800
X156800Y226800
X146800Y233800
X146800Y241800
X134300Y241300
X138800Y224300
X131800Y221800
X147300Y216300
X150800Y210800
X149800Y204300
X158800Y201300
X142800Y180800
X134800Y184300
X106800Y149300
X77800Y188800
X68300Y233800
X82800Y223800
X94800Y216800
X101800Y224300
X89800Y242800
X97800Y243800
X78800Y263800
X69800Y266800
X44800Y243800
X31300Y241800
X55300Y323300
X172800Y226800
X202800Y221800
X235800Y297300
X226800Y311800
X226800Y321800
X271800Y331800
X276800Y311800
X281800Y366800
X29300Y114300
X96800Y51800
X106800Y51800
X101800Y60300
X106800Y66800
X126800Y56800
X141800Y36800
X166800Y46800
X171800Y66800
X180800Y90800
X211800Y6800
T02
X350643Y256800
X330957Y256800
T03
X21300Y323300
X21300Y313300
X21300Y303300
X21300Y293300
X21300Y283300
X20343Y264627
X20343Y256753
X20343Y248879
X20343Y241005
X20343Y233131
X20343Y225257
X20343Y217383
X20343Y209509
X20343Y201635
X20343Y193761
T04
X105800Y15800
X105800Y25800
X105800Y35800
X97509Y164666
X107509Y164666
X70091Y140119
X60091Y140119
T05
X166300Y27800
X176300Y27800
X171300Y17800
X181300Y17800
X186300Y27800
X196300Y27800
X191300Y17800
X161300Y17800
X249300Y27800
X259300Y27800
X254300Y17800
X264300Y17800
X269300Y27800
X279300Y27800
X274300Y17800
X244300Y17800
X333300Y27800
X343300Y27800
X338300Y17800
X328300Y17800
X348300Y17800
X358300Y17800
X353300Y27800
X363300Y27800
X365304Y372824
X355304Y372824
X360304Y382824
X370304Y382824
X305304Y372824
X295304Y372824
X300304Y382824
X310304Y382824
X242804Y372824
X232804Y372824
X237804Y382824
X247804Y382824
T06
X30800Y21800
X30800Y31800
X40800Y31800
X40800Y21800
X50800Y21800
X50800Y31800
X60800Y31800
X60800Y21800
X70800Y21800
X70800Y31800
X203800Y365300
X203800Y375300
X203800Y385300
X195800Y324800
X195800Y314800
X205800Y314800
X205800Y324800
T07
X141800Y342800
X131800Y342800
X121800Y342800
X111800Y342800
X92800Y342800
X82800Y342800
X72800Y342800
X62800Y342800
X43800Y342800
X33800Y342800
X23800Y342800
X13800Y342800
T08
X141800Y106800
X141800Y116800
X141800Y126800
X164729Y100729
X171800Y107800
X178871Y114871
X112871Y321871
X105800Y314800
X98729Y307729
T09
X25304Y128813
X25304Y148613
T10
X144300Y64800
X146800Y18312
X213300Y64800
X227300Y64800
X229800Y18312
X210800Y18312
X296300Y64800
X311300Y64800
X313800Y18312
X293800Y18312
X380300Y64800
X377800Y18312
T11
X14400Y77300
X25837Y95076
T12
X41979Y77083
T13
X372800Y198650
X178965Y356131
X51800Y198650
T14
X156300Y52800
X201300Y52800
X239300Y52800
X284300Y52800
X323300Y52800
X368300Y52800
T15
X382784Y347824
X342784Y347824
X322784Y347824
X282784Y347824
X260284Y347824
X220284Y347824
M30
